<svg xmlns="http://www.w3.org/2000/svg" width="1157.68" height="1157.68" viewBox="0 0 1157.68 1157.68"><defs><style>.a{fill:#c50c17;}</style></defs><path d="M197.27,283.82l-2.69.38-5.41,20H187.8l-5.54-16.67-5.21,16.67h-1.38l-5.76-20.09-2.65-.32v-1.31H176v1.31l-3,.35L177,299l4.9-14.76-3.24-.38v-1.31h8.71v1.31l-3.23.38,4.73,14.88,4.1-14.84-2.91-.42v-1.31h7.26Z"/><path d="M199.8,296.14c.07,3.93,2.08,6.17,5.19,6.17a5.47,5.47,0,0,0,4.44-2.24l.77.61a6.57,6.57,0,0,1-6.14,3.71c-4.32,0-7.14-3-7.14-7.93s3.36-8.26,7.36-8.26a5.77,5.77,0,0,1,5.95,6.18,6.36,6.36,0,0,1-.22,1.76Zm5.89-1.34c1.54,0,1.89-.74,1.89-1.67a3.49,3.49,0,0,0-3.49-3.45c-1.79,0-3.87,1.4-4.22,5.12Z"/><path d="M223.58,296.14c.06,3.93,2.08,6.17,5.18,6.17a5.48,5.48,0,0,0,4.45-2.24l.77.61a6.59,6.59,0,0,1-6.15,3.71c-4.32,0-7.13-3-7.13-7.93s3.36-8.26,7.36-8.26a5.78,5.78,0,0,1,5.95,6.18,6.31,6.31,0,0,1-.23,1.76Zm5.89-1.34c1.53,0,1.88-.74,1.88-1.67a3.48,3.48,0,0,0-3.48-3.45c-1.8,0-3.88,1.4-4.23,5.12Z"/><path d="M243.73,302.76v1.15H235.8v-1.15l2.56-.45c0-1.72.06-3.42.06-5.12V283.47l-2.62-.32V282l5-1.44.45.25-.13,4.55v11.8c0,1.7,0,3.43.06,5.12Z"/><path d="M261.17,302.76v1.15l-4.45.32-.32-2.84a7.3,7.3,0,0,1-5.66,3c-2.59,0-4.19-1.53-4.16-5.76l.1-8-2.27-.48V289l4.7-.45.32.32-.16,4.48v5c0,2.78.83,3.74,2.56,3.74a6.64,6.64,0,0,0,4.48-2l.09-9.44-2.27-.48V289l4.64-.45.32.32-.09,4.48v9Z"/><path d="M276.1,300.27a5.83,5.83,0,0,1-6,4.12c-4.38,0-7.17-3.1-7.17-8s3.55-8.16,7.39-8.16c2.88,0,5.25,1.8,5.67,4.16a1.35,1.35,0,0,1-1.47,1.22,1.69,1.69,0,0,1-1.76-1.54l-.58-2.11a5.88,5.88,0,0,0-1.73-.25c-2.72,0-4.7,2.27-4.7,6.36s2.11,6.27,5.09,6.27a5.13,5.13,0,0,0,4.44-2.46Z"/><path d="M285.81,302.76v1.15h-7.43v-1.15l2.37-.45c0-1.6.06-3.68.06-5.12V295.6c0-1.76,0-2.76-.09-4l-2.53-.28v-1.12l5-2,.48.32-.1,4.36v4.31c0,1.41,0,3.52.07,5.12Zm-5.8-20a2.15,2.15,0,0,1,4.29,0,2.15,2.15,0,0,1-4.29,0Z"/><path d="M303.66,302.76v1.15l-5,.32-.22-2.17a5.24,5.24,0,0,1-4.48,2.33c-3.9,0-6.53-3.26-6.53-7.93,0-4.9,2.91-8.26,6.82-8.26a5.2,5.2,0,0,1,4.19,2.08v-6.81l-2.72-.32V282l5-1.44.45.25-.13,4.55v17Zm-5.28-11a5.41,5.41,0,0,0-3.61-1.69c-2.37,0-4.42,2-4.42,6.37,0,4.19,1.89,6.17,4.45,6.17a4.47,4.47,0,0,0,3.58-1.86Z"/><path d="M320.32,302.57a2.68,2.68,0,0,1-2.59,1.66,2.79,2.79,0,0,1-3.07-2.46c-1.76,1.76-2.82,2.62-4.71,2.62-2.33,0-4.28-1.4-4.28-4.06,0-1.82,1-3.29,5.31-4.86a33.81,33.81,0,0,1,3.61-1.06v-.86c0-3.11-.89-3.87-3-3.87a6.6,6.6,0,0,0-1.64.19l-.64,2.21c-.28,1-.86,1.53-1.72,1.53a1.42,1.42,0,0,1-1.51-1.37c.61-2.44,3-4,6.24-4s5,1.54,5,5.57v6.91c0,1.31.35,1.89,1.06,1.89a1.75,1.75,0,0,0,1.18-.54l.16-.16Zm-5.73-7c-1.12.32-2.27.7-2.94,1-2.78,1.08-3.14,2.33-3.14,3.29a2.22,2.22,0,0,0,.64,1.7,2.53,2.53,0,0,0,1.92.73c1.06,0,1.67-.45,3.52-1.76Z"/><path d="M330.43,302.57a4.61,4.61,0,0,1-3.77,1.66c-2.24,0-3.65-1.15-3.65-3.64,0-.8,0-1.48,0-2.72v-7.39h-2.66v-1.41l2.85-.35.83-4.36H326l-.16,4.42h4.29v1.7h-4.35v9.75c0,1.64.67,2.34,1.76,2.34a3.67,3.67,0,0,0,2.14-.86Z"/><path d="M334.45,296.14c.06,3.93,2.08,6.17,5.18,6.17a5.48,5.48,0,0,0,4.45-2.24l.77.61a6.59,6.59,0,0,1-6.15,3.71c-4.32,0-7.13-3-7.13-7.93s3.36-8.26,7.36-8.26a5.77,5.77,0,0,1,5.95,6.18,6.76,6.76,0,0,1-.22,1.76Zm5.89-1.34c1.53,0,1.88-.74,1.88-1.67a3.48,3.48,0,0,0-3.48-3.45c-1.8,0-3.88,1.4-4.23,5.12Z"/><path d="M364.18,302.57a4.64,4.64,0,0,1-3.78,1.66c-2.24,0-3.65-1.15-3.65-3.64,0-.8,0-1.48,0-2.72v-7.39h-2.65v-1.41l2.85-.35.83-4.36h1.92l-.16,4.42h4.29v1.7H359.5v9.75c0,1.64.68,2.34,1.76,2.34a3.67,3.67,0,0,0,2.15-.86Z"/><path d="M383.25,302.76v1.15h-7.42v-1.15l2.34-.41c0-1.6.06-3.68.06-5.16v-2.81c0-2.94-.74-3.87-2.62-3.87-1.54,0-2.82.57-4.52,2.08v4.6c0,1.41,0,3.52.07,5.12l2.21.45v1.15h-7.43v-1.15l2.4-.45c0-1.6.07-3.71.07-5.12V283.47l-2.63-.32V282l4.9-1.44.45.25-.13,4.55v5.79a8.44,8.44,0,0,1,5.85-3c2.76,0,4.1,1.73,4.1,5.92v3.07c0,1.48,0,3.52.06,5.12Z"/><path d="M387.77,296.14c.06,3.93,2.08,6.17,5.18,6.17a5.48,5.48,0,0,0,4.45-2.24l.77.61a6.59,6.59,0,0,1-6.15,3.71c-4.31,0-7.13-3-7.13-7.93s3.36-8.26,7.36-8.26a5.77,5.77,0,0,1,5.95,6.18,6.76,6.76,0,0,1-.22,1.76Zm5.89-1.34c1.53,0,1.89-.74,1.89-1.67a3.49,3.49,0,0,0-3.49-3.45c-1.8,0-3.87,1.4-4.23,5.12Z"/><path d="M614,296.33c0,5.31-3.61,8.06-7.36,8.06s-7.32-2.75-7.32-8.06,3.64-8.13,7.32-8.13S614,291.05,614,296.33Zm-11.64,0c0,4.29,1.53,6.59,4.28,6.59s4.32-2.3,4.32-6.59-1.53-6.68-4.32-6.68S602.32,292,602.32,296.36Z"/><path d="M618.3,288.72c.32-3.43.9-5.35,2.27-6.82a6,6,0,0,1,4.51-1.95c1.51,0,2.76.48,3.07,1.73-.06.83-.76,1.44-1.95,1.44a3.54,3.54,0,0,1-2.3-1l-.8-.64A3.87,3.87,0,0,0,622,282.8c-.64,1.12-1.12,2.91-1.06,6h4.42v1.7H621v6.71c0,1.7,0,3.4.06,5.09l2.88.48v1.15h-8.25v-1.15l2.52-.45c0-1.69.07-3.42.07-5.12v-6.71h-2.66v-1.41Z"/><path d="M886.23,295.05c3.2,1.18,4.38,2.72,4.38,4.74,0,2.4-2.08,4.6-6.21,4.6a9.89,9.89,0,0,1-4.77-1.21l-.12-3.52h1.76l.6,2.75a6.1,6.1,0,0,0,2.6.51c2.43,0,3.61-1,3.61-2.46s-1-2.08-3-2.82l-1.47-.51c-2.33-.86-3.87-2.21-3.87-4.25,0-2.47,2.18-4.68,5.57-4.68a8.2,8.2,0,0,1,4.48,1.32l-.13,3.26H888l-.52-2.56a4.9,4.9,0,0,0-2.2-.54c-2,0-3,.89-3,2.33,0,1.28.77,1.89,2.94,2.69Z"/><path d="M908,290.09l-1.76.39-4.83,13.34c-2.05,5.69-3.91,8.06-6.56,8.06-1.57,0-2.92-.86-2.92-2.14a2,2,0,0,1,2.12-1.35,3.2,3.2,0,0,1,2.36,1.19l.16.16a10,10,0,0,0,2.92-4.55l.12-.38-5.76-14.43-1.82-.29v-1.31h7.68v1.34l-2.75.32,3.93,10.66,3.62-10.62-2.79-.39v-1.31H908Z"/><path d="M916.45,295.05c3.2,1.18,4.38,2.72,4.38,4.74,0,2.4-2.08,4.6-6.21,4.6a9.89,9.89,0,0,1-4.77-1.21l-.12-3.52h1.76l.6,2.75a6.1,6.1,0,0,0,2.6.51c2.43,0,3.61-1,3.61-2.46s-1-2.08-3-2.82l-1.47-.51c-2.33-.86-3.87-2.21-3.87-4.25,0-2.47,2.18-4.68,5.57-4.68a8.2,8.2,0,0,1,4.48,1.32l-.13,3.26h-1.66l-.52-2.56a4.86,4.86,0,0,0-2.2-.54c-2,0-3,.89-3,2.33,0,1.28.77,1.89,2.94,2.69Z"/><path d="M932.48,302.57a4.61,4.61,0,0,1-3.78,1.66c-2.24,0-3.65-1.15-3.65-3.64,0-.8,0-1.48,0-2.72v-7.39h-2.66v-1.41l2.85-.35.83-4.36H928l-.16,4.42h4.29v1.7h-4.35v9.75c0,1.64.67,2.34,1.76,2.34a3.67,3.67,0,0,0,2.14-.86Z"/><path d="M936.5,296.14c.06,3.93,2.07,6.17,5.18,6.17a5.51,5.51,0,0,0,4.45-2.24l.76.61a6.57,6.57,0,0,1-6.14,3.71c-4.32,0-7.14-3-7.14-7.93S937,288.2,941,288.2a5.78,5.78,0,0,1,6,6.18,6.31,6.31,0,0,1-.23,1.76Zm5.88-1.34c1.54,0,1.89-.74,1.89-1.67a3.48,3.48,0,0,0-3.49-3.45c-1.79,0-3.87,1.4-4.22,5.12Z"/><path d="M976.05,302.76v1.15h-7.42v-1.15l2.37-.45c0-1.56.06-3.64.06-5.12v-2.87c0-3-.83-3.81-2.69-3.81a6.32,6.32,0,0,0-4.29,2c0,.48.07,1,.07,1.6v3.07c0,1.48,0,3.52.06,5.12l2.24.45v1.15H959v-1.15l2.37-.45c0-1.56.06-3.64.06-5.12v-2.81c0-2.91-.74-3.87-2.62-3.87a6.26,6.26,0,0,0-4.26,1.92v4.76c0,1.41,0,3.52.06,5.12l2.21.45v1.15h-7.42v-1.15l2.37-.45c0-1.6.06-3.68.06-5.12v-1.63c0-1.76,0-2.72-.1-4l-2.52-.28v-1.12l4.48-2,.48.32.25,2.56a8.12,8.12,0,0,1,5.6-2.88,3.49,3.49,0,0,1,3.78,3,7.62,7.62,0,0,1,5.82-3c2.59,0,4.1,1.64,4.1,5.6v3.39c0,1.48,0,3.52.06,5.12Z"/><path d="M985.24,295.05c3.2,1.18,4.38,2.72,4.38,4.74,0,2.4-2.08,4.6-6.21,4.6a9.89,9.89,0,0,1-4.77-1.21l-.12-3.52h1.76l.6,2.75a6.1,6.1,0,0,0,2.6.51c2.43,0,3.61-1,3.61-2.46s-1-2.08-3-2.82l-1.47-.51c-2.33-.86-3.87-2.21-3.87-4.25,0-2.47,2.18-4.68,5.57-4.68a8.2,8.2,0,0,1,4.48,1.32l-.13,3.26H987l-.52-2.56a4.9,4.9,0,0,0-2.2-.54c-2,0-3,.89-3,2.33,0,1.28.77,1.89,2.94,2.69Z"/><path class="a" d="M441.08,256.65c3.19,1.18,4.38,2.72,4.38,4.74,0,2.4-2.08,4.6-6.21,4.6a9.89,9.89,0,0,1-4.77-1.21l-.12-3.52h1.76l.6,2.75a6.1,6.1,0,0,0,2.6.51c2.43,0,3.61-1,3.61-2.46s-1-2.08-3-2.82l-1.47-.51c-2.33-.86-3.87-2.21-3.87-4.25,0-2.47,2.18-4.68,5.57-4.68a8.2,8.2,0,0,1,4.48,1.32l-.13,3.26h-1.66l-.52-2.56a4.9,4.9,0,0,0-2.2-.54c-2,0-3,.89-3,2.33,0,1.28.77,1.89,2.94,2.69Z"/><path class="a" d="M457.11,264.17a4.64,4.64,0,0,1-3.78,1.66c-2.24,0-3.65-1.15-3.65-3.64,0-.8,0-1.48,0-2.72v-7.39h-2.66v-1.41l2.85-.35.83-4.36h1.92l-.16,4.42h4.29v1.7h-4.36v9.75c0,1.64.68,2.34,1.76,2.34a3.67,3.67,0,0,0,2.15-.86Z"/><path class="a" d="M464.11,253.93c1.09-2.59,2.89-4.13,4.61-4.13a2,2,0,0,1,2.18,1.57,1.76,1.76,0,0,1-1.92,1.76,2.47,2.47,0,0,1-1.82-.8l-.26-.25a7.69,7.69,0,0,0-2.75,4.22v2.49c0,1.41,0,3.49.06,5.09l2.63.48v1.15h-7.78v-1.15l2.3-.41c0-1.6.07-3.72.07-5.16v-1.63c0-1.76,0-2.72-.1-4l-2.53-.28v-1.12l4.48-2,.48.32Z"/><path class="a" d="M489.49,264.36v1.15l-4.44.32-.32-2.84a7.33,7.33,0,0,1-5.67,3c-2.59,0-4.19-1.53-4.16-5.76l.1-8-2.27-.48v-1.15l4.7-.45.32.32-.16,4.48v5c0,2.78.83,3.74,2.56,3.74a6.64,6.64,0,0,0,4.48-2.05l.1-9.44-2.28-.48v-1.15l4.64-.45.32.32-.09,4.48v9Z"/><path class="a" d="M504.42,261.87a5.83,5.83,0,0,1-6,4.12c-4.38,0-7.17-3.1-7.17-8s3.56-8.16,7.4-8.16c2.87,0,5.24,1.8,5.66,4.16a1.35,1.35,0,0,1-1.47,1.22,1.69,1.69,0,0,1-1.76-1.54l-.58-2.11a5.88,5.88,0,0,0-1.73-.25c-2.72,0-4.7,2.27-4.7,6.36s2.11,6.27,5.09,6.27a5.13,5.13,0,0,0,4.44-2.46Z"/><path class="a" d="M516,264.17a4.63,4.63,0,0,1-3.78,1.66c-2.24,0-3.65-1.15-3.65-3.64,0-.8,0-1.48,0-2.72v-7.39H506v-1.41l2.85-.35.83-4.36h1.92l-.16,4.42h4.29v1.7h-4.35v9.75c0,1.64.67,2.34,1.76,2.34a3.67,3.67,0,0,0,2.14-.86Z"/><path class="a" d="M534.31,264.36v1.15l-4.45.32-.32-2.84a7.31,7.31,0,0,1-5.66,3c-2.6,0-4.2-1.53-4.16-5.76l.09-8-2.27-.48v-1.15l4.71-.45.32.32-.16,4.48v5c0,2.78.83,3.74,2.56,3.74a6.62,6.62,0,0,0,4.47-2.05l.1-9.44-2.27-.48v-1.15l4.64-.45.32.32-.1,4.48v9Z"/><path class="a" d="M541.83,253.93c1.09-2.59,2.88-4.13,4.61-4.13a2,2,0,0,1,2.17,1.57,1.76,1.76,0,0,1-1.92,1.76,2.47,2.47,0,0,1-1.82-.8l-.26-.25a7.74,7.74,0,0,0-2.75,4.22v2.49c0,1.41,0,3.49.06,5.09l2.63.48v1.15h-7.78v-1.15l2.31-.41c0-1.6.06-3.72.06-5.16v-1.63c0-1.76,0-2.72-.09-4l-2.53-.28v-1.12l4.48-2,.48.32Z"/><path class="a" d="M552.75,257.74c.07,3.93,2.08,6.17,5.19,6.17a5.47,5.47,0,0,0,4.44-2.24l.77.61A6.57,6.57,0,0,1,557,266c-4.32,0-7.14-3-7.14-7.93s3.36-8.26,7.36-8.26a5.77,5.77,0,0,1,5.95,6.18,6.36,6.36,0,0,1-.22,1.76Zm5.89-1.34c1.54,0,1.89-.74,1.89-1.67a3.49,3.49,0,0,0-3.49-3.45c-1.79,0-3.87,1.4-4.22,5.12Z"/><path class="a" d="M447.36,302.76v1.15l-5,.32-.23-2.17a5.23,5.23,0,0,1-4.48,2.33c-3.9,0-6.52-3.26-6.52-7.93,0-4.9,2.91-8.26,6.81-8.26a5.2,5.2,0,0,1,4.19,2.08v-6.81l-2.72-.32V282l5-1.44.44.25-.12,4.55v17Zm-5.28-11a5.43,5.43,0,0,0-3.62-1.69c-2.37,0-4.41,2-4.41,6.37,0,4.19,1.88,6.17,4.45,6.17a4.49,4.49,0,0,0,3.58-1.86Z"/><path class="a" d="M463.52,290.09l-1.76.39-4.83,13.34c-2.05,5.69-3.9,8.06-6.56,8.06-1.57,0-2.91-.86-2.91-2.14a2,2,0,0,1,2.11-1.35,3.22,3.22,0,0,1,2.37,1.19l.16.16a10,10,0,0,0,2.91-4.55l.13-.38-5.76-14.43-1.82-.29v-1.31h7.68v1.34l-2.76.32,3.94,10.66L460,290.48l-2.79-.39v-1.31h6.27Z"/><path class="a" d="M482.84,302.76v1.15h-7.43v-1.15l2.37-.45c0-1.56.06-3.64.06-5.12v-2.81c0-2.94-.76-3.87-2.65-3.87a6.59,6.59,0,0,0-4.35,1.92v4.76c0,1.41,0,3.52.06,5.12l2.21.45v1.15h-7.43v-1.15l2.37-.45c0-1.6.07-3.68.07-5.12v-1.63c0-1.76,0-2.72-.1-4l-2.53-.28v-1.12l4.48-2,.48.32.26,2.6a8.27,8.27,0,0,1,5.73-2.92c2.75,0,4.09,1.73,4.09,5.92v3.07c0,1.48,0,3.52.07,5.12Z"/><path class="a" d="M499.72,302.57a2.66,2.66,0,0,1-2.59,1.66,2.8,2.8,0,0,1-3.07-2.46c-1.76,1.76-2.81,2.62-4.7,2.62-2.34,0-4.29-1.4-4.29-4.06,0-1.82,1-3.29,5.31-4.86a34,34,0,0,1,3.62-1.06v-.86c0-3.11-.9-3.87-3-3.87a6.52,6.52,0,0,0-1.63.19l-.64,2.21c-.29,1-.87,1.53-1.73,1.53a1.4,1.4,0,0,1-1.5-1.37c.6-2.44,3-4,6.24-4s4.95,1.54,4.95,5.57v6.91c0,1.31.36,1.89,1.06,1.89a1.73,1.73,0,0,0,1.18-.54l.17-.16Zm-5.72-7c-1.12.32-2.27.7-2.95,1-2.78,1.08-3.13,2.33-3.13,3.29a2.19,2.19,0,0,0,.64,1.7,2.53,2.53,0,0,0,1.92.73c1,0,1.66-.45,3.52-1.76Z"/><path class="a" d="M528.35,302.76v1.15h-7.43v-1.15l2.37-.45c0-1.56.07-3.64.07-5.12v-2.87c0-3-.84-3.81-2.69-3.81a6.29,6.29,0,0,0-4.29,2c0,.48.06,1,.06,1.6v3.07c0,1.48,0,3.52.07,5.12l2.24.45v1.15h-7.42v-1.15l2.36-.45c0-1.56.07-3.64.07-5.12v-2.81c0-2.91-.74-3.87-2.63-3.87a6.26,6.26,0,0,0-4.25,1.92v4.76c0,1.41,0,3.52.06,5.12l2.21.45v1.15h-7.42v-1.15l2.36-.45c0-1.6.07-3.68.07-5.12v-1.63c0-1.76,0-2.72-.1-4l-2.53-.28v-1.12l4.48-2,.48.32.26,2.56a8.12,8.12,0,0,1,5.6-2.88,3.48,3.48,0,0,1,3.77,3,7.66,7.66,0,0,1,5.83-3c2.59,0,4.09,1.64,4.09,5.6v3.39c0,1.48,0,3.52.07,5.12Z"/><path class="a" d="M538.1,302.76v1.15h-7.42v-1.15l2.36-.45c0-1.6.07-3.68.07-5.12V295.6c0-1.76,0-2.76-.1-4l-2.53-.28v-1.12l5-2,.48.32-.09,4.36v4.31c0,1.41,0,3.52.06,5.12Zm-5.79-20a2.14,2.14,0,0,1,4.28,0,2.14,2.14,0,0,1-4.28,0Z"/><path class="a" d="M553,300.27a5.84,5.84,0,0,1-6,4.12c-4.39,0-7.17-3.1-7.17-8s3.55-8.16,7.39-8.16c2.88,0,5.25,1.8,5.66,4.16a1.35,1.35,0,0,1-1.47,1.22c-1.09,0-1.53-.64-1.76-1.54l-.57-2.11a5.88,5.88,0,0,0-1.73-.25c-2.72,0-4.71,2.27-4.71,6.36s2.12,6.27,5.09,6.27a5.14,5.14,0,0,0,4.45-2.46Z"/><path class="a" d="M562.15,295.05c3.2,1.19,4.38,2.72,4.38,4.74,0,2.4-2.08,4.6-6.2,4.6a9.86,9.86,0,0,1-4.77-1.21l-.13-3.52h1.76l.61,2.75a6.08,6.08,0,0,0,2.59.51c2.43,0,3.62-1,3.62-2.46s-1-2.08-3-2.82l-1.47-.51c-2.34-.86-3.88-2.21-3.88-4.25,0-2.47,2.18-4.68,5.57-4.68a8.18,8.18,0,0,1,4.48,1.32l-.13,3.26h-1.66l-.51-2.56a4.94,4.94,0,0,0-2.21-.54c-2,0-3,.89-3,2.33,0,1.28.77,1.89,2.95,2.69Z"/><path class="a" d="M441.89,327.12c.32-3.43.9-5.35,2.28-6.82a5.94,5.94,0,0,1,4.51-1.95c1.5,0,2.75.48,3.07,1.73-.07.83-.77,1.44-1.95,1.44a3.56,3.56,0,0,1-2.31-1l-.8-.64a4,4,0,0,0-1.12,1.28c-.64,1.12-1.12,2.91-1.05,6h4.41v1.69h-4.35v6.72c0,1.7,0,3.4.06,5.09l2.88.48v1.15h-8.25v-1.15l2.53-.45c0-1.69.06-3.42.06-5.12v-6.72h-2.65v-1.4Z"/><path class="a" d="M467.6,341.16v1.15l-4.44.32-.32-2.84a7.33,7.33,0,0,1-5.67,3c-2.59,0-4.19-1.53-4.16-5.75l.1-8-2.27-.48v-1.15l4.7-.45.32.32-.16,4.48v5c0,2.78.83,3.74,2.56,3.74a6.64,6.64,0,0,0,4.48-2.05l.1-9.44-2.28-.48v-1.15l4.64-.45.32.32-.09,4.48v9Z"/><path class="a" d="M487.19,341.16v1.15h-7.43v-1.15l2.37-.45c0-1.56.07-3.64.07-5.12v-2.81c0-2.95-.77-3.87-2.66-3.87a6.59,6.59,0,0,0-4.35,1.92v4.76c0,1.41,0,3.52.06,5.12l2.21.45v1.15H470v-1.15l2.36-.45c0-1.6.07-3.67.07-5.12V334c0-1.76,0-2.72-.1-4l-2.53-.28v-1.12l4.48-2,.48.32.26,2.6a8.27,8.27,0,0,1,5.73-2.92c2.75,0,4.09,1.73,4.09,5.92v3.07c0,1.48,0,3.52.07,5.12Z"/><path class="a" d="M502,338.67a5.83,5.83,0,0,1-6,4.12c-4.38,0-7.17-3.1-7.17-8s3.56-8.16,7.4-8.16c2.87,0,5.24,1.8,5.66,4.16a1.35,1.35,0,0,1-1.47,1.22,1.69,1.69,0,0,1-1.76-1.54l-.58-2.11a5.88,5.88,0,0,0-1.73-.25c-2.72,0-4.7,2.27-4.7,6.36s2.11,6.27,5.09,6.27a5.13,5.13,0,0,0,4.44-2.46Z"/><path class="a" d="M513.57,341a4.63,4.63,0,0,1-3.78,1.66c-2.24,0-3.65-1.15-3.65-3.64,0-.8,0-1.48,0-2.72v-7.4h-2.66v-1.4l2.85-.35.83-4.36h1.92l-.16,4.42h4.29v1.69H508.9v9.76c0,1.64.67,2.34,1.76,2.34a3.67,3.67,0,0,0,2.14-.86Z"/><path class="a" d="M522.84,341.16v1.15h-7.43v-1.15l2.37-.45c0-1.6.06-3.67.06-5.12V334c0-1.76,0-2.76-.09-4l-2.53-.28v-1.12l5-2,.48.32-.1,4.36v4.31c0,1.41,0,3.52.07,5.12Zm-5.8-20a2.15,2.15,0,0,1,4.29,0,2.15,2.15,0,0,1-4.29,0Z"/><path class="a" d="M539.19,334.73c0,5.31-3.62,8.06-7.36,8.06s-7.33-2.75-7.33-8.06,3.65-8.13,7.33-8.13S539.19,329.45,539.19,334.73Zm-11.65,0c0,4.29,1.54,6.59,4.29,6.59s4.32-2.3,4.32-6.59-1.54-6.68-4.32-6.68S527.54,330.44,527.54,334.76Z"/><path class="a" d="M558.46,341.16v1.15H551v-1.15l2.37-.45c0-1.56.06-3.64.06-5.12v-2.81c0-2.95-.77-3.87-2.65-3.87a6.61,6.61,0,0,0-4.36,1.92v4.76c0,1.41,0,3.52.07,5.12l2.21.45v1.15h-7.43v-1.15l2.37-.45c0-1.6.06-3.67.06-5.12V334c0-1.76,0-2.72-.09-4l-2.53-.28v-1.12l4.48-2,.48.32.26,2.6a8.25,8.25,0,0,1,5.72-2.92c2.76,0,4.1,1.73,4.1,5.92v3.07c0,1.48,0,3.52.06,5.12Z"/><path class="a" d="M720,218.25c3.2,1.19,4.38,2.72,4.38,4.74,0,2.4-2.08,4.6-6.21,4.6a9.82,9.82,0,0,1-4.76-1.21l-.13-3.52H715l.61,2.75a6,6,0,0,0,2.59.51c2.43,0,3.61-1,3.61-2.46s-1-2.08-3-2.82l-1.48-.51c-2.33-.86-3.87-2.21-3.87-4.25,0-2.47,2.18-4.68,5.57-4.68a8.2,8.2,0,0,1,4.48,1.32l-.13,3.26h-1.66l-.51-2.56a4.94,4.94,0,0,0-2.21-.54c-2,0-3,.89-3,2.33,0,1.28.77,1.89,3,2.69Z"/><path class="a" d="M741.49,219.53c0,5.31-3.61,8.06-7.36,8.06s-7.32-2.75-7.32-8.06,3.64-8.13,7.32-8.13S741.49,214.25,741.49,219.53Zm-11.64,0c0,4.29,1.53,6.59,4.28,6.59s4.32-2.3,4.32-6.59-1.53-6.68-4.32-6.68S729.85,215.24,729.85,219.56Z"/><path class="a" d="M757.36,223.47a5.84,5.84,0,0,1-6,4.12c-4.38,0-7.16-3.1-7.16-8s3.55-8.16,7.39-8.16a5.51,5.51,0,0,1,5.66,4.16,1.35,1.35,0,0,1-1.47,1.22,1.69,1.69,0,0,1-1.76-1.54l-.58-2.11a5.83,5.83,0,0,0-1.73-.25c-2.71,0-4.7,2.27-4.7,6.36s2.11,6.27,5.09,6.27a5.15,5.15,0,0,0,4.45-2.46Z"/><path class="a" d="M767.06,226v1.15h-7.42V226l2.36-.45c0-1.59.07-3.68.07-5.11v-1.6c0-1.76,0-2.76-.1-4l-2.53-.28v-1.12l5-2,.48.32-.09,4.36v4.32c0,1.4,0,3.52.06,5.11Zm-5.79-20a2.14,2.14,0,0,1,4.28,0,2.14,2.14,0,0,1-4.28,0Z"/><path class="a" d="M783.91,225.77a2.67,2.67,0,0,1-2.59,1.66,2.8,2.8,0,0,1-3.07-2.46c-1.76,1.76-2.82,2.62-4.7,2.62-2.34,0-4.29-1.4-4.29-4.06,0-1.82,1-3.29,5.31-4.86a34.52,34.52,0,0,1,3.61-1.06v-.86c0-3.11-.89-3.87-3-3.87a6.52,6.52,0,0,0-1.63.19l-.64,2.21c-.29,1-.87,1.53-1.73,1.53a1.42,1.42,0,0,1-1.51-1.37c.61-2.44,3-4,6.24-4s5,1.54,5,5.57v6.91c0,1.31.35,1.89,1.06,1.89a1.73,1.73,0,0,0,1.18-.54l.16-.16Zm-5.73-7c-1.11.32-2.27.7-2.94,1-2.78,1.08-3.13,2.33-3.13,3.29a2.19,2.19,0,0,0,.64,1.7,2.53,2.53,0,0,0,1.92.73c1.05,0,1.66-.45,3.51-1.76Z"/><path class="a" d="M793.62,226v1.15h-7.94V226l2.56-.45c0-1.72.06-3.42.06-5.11V206.67l-2.62-.32v-1.12l5-1.44.45.25-.13,4.55V220.4c0,1.69,0,3.42.07,5.11Z"/><path class="a" d="M690.42,252.27a6.5,6.5,0,0,1,4.92-2.47c3.39,0,6.08,3,6.08,8s-2.85,8.22-6.59,8.22a5.38,5.38,0,0,1-4.41-2.27l-.26,2.11-4.8-.32v-1.15l2.4-.45c0-1.6.06-3.71.06-5.12V245.07l-2.62-.32v-1.12l4.9-1.44.44.25-.12,4.55Zm.09,10.11a5.6,5.6,0,0,0,3.81,1.79c2.27,0,4.22-2,4.22-6.14s-1.66-6.4-4.06-6.4c-1,0-2.24.41-4,1.85Z"/><path class="a" d="M711,264.36v1.15h-7.42v-1.15l2.37-.45c0-1.6.06-3.68.06-5.12V257.2c0-1.76,0-2.76-.1-4l-2.52-.28v-1.12l5-2,.48.32-.1,4.36v4.31c0,1.41,0,3.52.06,5.12Zm-5.79-20a2.15,2.15,0,0,1,4.29,0,2.15,2.15,0,0,1-4.29,0Z"/><path class="a" d="M727.4,257.93c0,5.31-3.62,8.06-7.36,8.06s-7.33-2.75-7.33-8.06,3.65-8.13,7.33-8.13S727.4,252.65,727.4,257.93Zm-11.65,0c0,4.29,1.54,6.59,4.29,6.59s4.32-2.3,4.32-6.59-1.54-6.68-4.32-6.68S715.75,253.64,715.75,258Z"/><path class="a" d="M736.74,264.36v1.15H728.8v-1.15l2.56-.45c0-1.72.07-3.42.07-5.12V245.07l-2.63-.32v-1.12l5-1.44.45.25-.13,4.55v11.8c0,1.7,0,3.43.07,5.12Z"/><path class="a" d="M752.8,257.93c0,5.31-3.62,8.06-7.36,8.06s-7.33-2.75-7.33-8.06,3.65-8.13,7.33-8.13S752.8,252.65,752.8,257.93Zm-11.65,0c0,4.29,1.53,6.59,4.29,6.59s4.32-2.3,4.32-6.59-1.54-6.68-4.32-6.68S741.15,253.64,741.15,258Z"/><path class="a" d="M769.59,252.24h-3.1a5.42,5.42,0,0,1,.7,2.81c0,3.36-2.46,5.25-5.79,5.25a7.86,7.86,0,0,1-2.33-.32,2.82,2.82,0,0,0-.61,1.82c0,1.19.61,1.7,2.56,1.7h3.26c3.52,0,5.15,1.53,5.15,4.13,0,2.78-2.65,5.53-7.9,5.53-4.64,0-6.72-1.6-6.72-3.87,0-1.41.8-2.5,3.2-3.68a3,3,0,0,1-2-2.78c0-1.19.57-2.21,2-3.3a4.75,4.75,0,0,1-2.44-4.48c0-3.36,2.47-5.25,5.79-5.25a6.3,6.3,0,0,1,4.16,1.32l3.52-1.22.48.32ZM760.41,266a6.47,6.47,0,0,1-1.69-.2,4.09,4.09,0,0,0-1.29,2.95c0,2.08,1.7,2.91,4.23,2.91,3.49,0,5.37-1.44,5.37-3.23,0-1.41-.89-2.43-3.2-2.43ZM764.6,255c0-2.28-1.15-3.84-3.13-3.84s-3.24,1.63-3.24,4,1.12,3.94,3.11,3.94S764.6,257.32,764.6,255Z"/><path class="a" d="M779.3,264.36v1.15h-7.42v-1.15l2.37-.45c0-1.6.06-3.68.06-5.12V257.2c0-1.76,0-2.76-.09-4l-2.53-.28v-1.12l5-2,.48.32-.1,4.36v4.31c0,1.41,0,3.52.07,5.12Zm-5.79-20a2.15,2.15,0,0,1,4.29,0,2.15,2.15,0,0,1-4.29,0Z"/><path class="a" d="M794.15,261.87a5.83,5.83,0,0,1-6,4.12c-4.38,0-7.17-3.1-7.17-8s3.55-8.16,7.39-8.16c2.88,0,5.25,1.8,5.67,4.16a1.35,1.35,0,0,1-1.47,1.22,1.69,1.69,0,0,1-1.76-1.54l-.58-2.11a5.88,5.88,0,0,0-1.73-.25c-2.72,0-4.7,2.27-4.7,6.36s2.11,6.27,5.09,6.27a5.13,5.13,0,0,0,4.44-2.46Z"/><path class="a" d="M811.26,264.17a2.68,2.68,0,0,1-2.59,1.66,2.81,2.81,0,0,1-3.08-2.46c-1.76,1.76-2.81,2.62-4.7,2.62-2.34,0-4.29-1.4-4.29-4.06,0-1.82,1-3.29,5.31-4.86a34.74,34.74,0,0,1,3.62-1.06v-.86c0-3.11-.9-3.87-3-3.87a6.52,6.52,0,0,0-1.63.19l-.64,2.21c-.29,1-.86,1.53-1.73,1.53a1.41,1.41,0,0,1-1.5-1.37c.61-2.44,3-4,6.24-4s5,1.54,5,5.57v6.91c0,1.31.35,1.89,1,1.89a1.75,1.75,0,0,0,1.19-.54l.16-.16Zm-5.73-7c-1.12.32-2.27.7-2.94,1-2.79,1.08-3.14,2.33-3.14,3.29a2.22,2.22,0,0,0,.64,1.7,2.53,2.53,0,0,0,1.92.73c1.06,0,1.66-.45,3.52-1.76Z"/><path class="a" d="M821,264.36v1.15H813v-1.15l2.56-.45c0-1.72.07-3.42.07-5.12V245.07l-2.63-.32v-1.12l5-1.44.44.25-.12,4.55v11.8c0,1.7,0,3.43.06,5.12Z"/><path class="a" d="M668.51,302.57a4.61,4.61,0,0,1-3.77,1.66c-2.24,0-3.65-1.15-3.65-3.64,0-.8,0-1.48,0-2.72v-7.39h-2.65v-1.41l2.84-.35.84-4.36h1.92l-.16,4.42h4.28v1.7h-4.35v9.75c0,1.64.67,2.34,1.76,2.34a3.69,3.69,0,0,0,2.15-.86Z"/><path class="a" d="M672.53,296.14c.06,3.93,2.08,6.17,5.18,6.17a5.48,5.48,0,0,0,4.45-2.24l.77.61a6.59,6.59,0,0,1-6.15,3.71c-4.31,0-7.13-3-7.13-7.93S673,288.2,677,288.2a5.77,5.77,0,0,1,6,6.18,6.76,6.76,0,0,1-.22,1.76Zm5.89-1.34c1.53,0,1.88-.74,1.88-1.67a3.48,3.48,0,0,0-3.48-3.45c-1.8,0-3.87,1.4-4.23,5.12Z"/><path class="a" d="M698.84,300.27a5.84,5.84,0,0,1-6,4.12c-4.39,0-7.17-3.1-7.17-8s3.55-8.16,7.39-8.16c2.88,0,5.25,1.8,5.66,4.16a1.35,1.35,0,0,1-1.47,1.22c-1.09,0-1.53-.64-1.76-1.54l-.58-2.11a5.77,5.77,0,0,0-1.72-.25c-2.72,0-4.71,2.27-4.71,6.36s2.12,6.27,5.09,6.27a5.14,5.14,0,0,0,4.45-2.46Z"/><path class="a" d="M717.79,302.76v1.15h-7.42v-1.15l2.33-.41c0-1.6.06-3.68.06-5.16v-2.81c0-2.94-.73-3.87-2.62-3.87-1.53,0-2.81.57-4.51,2.08v4.6c0,1.41,0,3.52.06,5.12l2.21.45v1.15h-7.42v-1.15l2.4-.45c0-1.6.06-3.71.06-5.12V283.47l-2.62-.32V282l4.89-1.44.45.25-.13,4.55v5.79a8.44,8.44,0,0,1,5.86-3c2.75,0,4.09,1.73,4.09,5.92v3.07c0,1.48,0,3.52.07,5.12Z"/><path class="a" d="M737.33,302.76v1.15H729.9v-1.15l2.37-.45c0-1.56.07-3.64.07-5.12v-2.81c0-2.94-.77-3.87-2.66-3.87a6.59,6.59,0,0,0-4.35,1.92v4.76c0,1.41,0,3.52.06,5.12l2.21.45v1.15h-7.42v-1.15l2.37-.45c0-1.6.06-3.67.06-5.12v-1.63c0-1.76,0-2.72-.1-4l-2.53-.28v-1.12l4.48-2,.48.32.26,2.6a8.27,8.27,0,0,1,5.73-2.92c2.75,0,4.09,1.73,4.09,5.92v3.07c0,1.48,0,3.52.07,5.12Z"/><path class="a" d="M753.62,296.33c0,5.31-3.62,8.06-7.36,8.06s-7.33-2.75-7.33-8.06,3.65-8.13,7.33-8.13S753.62,291.05,753.62,296.33Zm-11.65,0c0,4.29,1.54,6.59,4.29,6.59s4.32-2.3,4.32-6.59-1.54-6.68-4.32-6.68S742,292,742,296.36Z"/><path class="a" d="M763,302.76v1.15H755v-1.15l2.56-.45c0-1.72.07-3.42.07-5.12V283.47l-2.63-.32V282l5-1.44.44.25-.12,4.55v11.8c0,1.7,0,3.43.06,5.12Z"/><path class="a" d="M779,296.33c0,5.31-3.62,8.06-7.36,8.06s-7.33-2.75-7.33-8.06,3.65-8.13,7.33-8.13S779,291.05,779,296.33Zm-11.65,0c0,4.29,1.54,6.59,4.29,6.59s4.32-2.3,4.32-6.59-1.54-6.68-4.32-6.68S767.37,292,767.37,296.36Z"/><path class="a" d="M795.82,290.64h-3.11a5.42,5.42,0,0,1,.71,2.81c0,3.36-2.47,5.25-5.79,5.25a7.88,7.88,0,0,1-2.34-.32,2.82,2.82,0,0,0-.61,1.82c0,1.19.61,1.7,2.56,1.7h3.27c3.51,0,5.15,1.54,5.15,4.13,0,2.78-2.66,5.53-7.91,5.53-4.64,0-6.72-1.6-6.72-3.87,0-1.41.8-2.5,3.2-3.68a3,3,0,0,1-2-2.78c0-1.19.58-2.21,2-3.3a4.75,4.75,0,0,1-2.43-4.48c0-3.36,2.46-5.25,5.79-5.25a6.34,6.34,0,0,1,4.16,1.32l3.52-1.22.48.32Zm-9.19,13.79a6.53,6.53,0,0,1-1.69-.2,4.08,4.08,0,0,0-1.28,2.95c0,2.08,1.69,2.91,4.22,2.91,3.49,0,5.38-1.44,5.38-3.23,0-1.41-.9-2.43-3.2-2.43Zm4.19-11.08c0-2.27-1.15-3.83-3.13-3.83s-3.23,1.63-3.23,4,1.12,3.94,3.1,3.94S790.82,295.72,790.82,293.35Z"/><path class="a" d="M805.53,302.76v1.15H798.1v-1.15l2.37-.45c0-1.6.06-3.67.06-5.12V295.6c0-1.76,0-2.76-.09-4l-2.53-.28v-1.12l5-2,.48.32-.1,4.36v4.31c0,1.41,0,3.52.07,5.12Zm-5.8-20a2.15,2.15,0,0,1,4.29,0,2.15,2.15,0,0,1-4.29,0Z"/><path class="a" d="M820.38,300.27a5.84,5.84,0,0,1-6,4.12c-4.38,0-7.17-3.1-7.17-8s3.56-8.16,7.4-8.16a5.51,5.51,0,0,1,5.66,4.16,1.35,1.35,0,0,1-1.47,1.22,1.69,1.69,0,0,1-1.76-1.54l-.58-2.11a5.83,5.83,0,0,0-1.73-.25c-2.72,0-4.7,2.27-4.7,6.36s2.11,6.27,5.09,6.27a5.16,5.16,0,0,0,4.45-2.46Z"/><path class="a" d="M837.48,302.57a2.68,2.68,0,0,1-2.59,1.66,2.79,2.79,0,0,1-3.07-2.46c-1.76,1.76-2.82,2.62-4.71,2.62-2.33,0-4.29-1.4-4.29-4.06,0-1.82,1-3.3,5.32-4.86a31.64,31.64,0,0,1,3.61-1.06v-.86c0-3.11-.89-3.87-3-3.87a6.57,6.57,0,0,0-1.63.19l-.64,2.21c-.29,1-.86,1.53-1.73,1.53a1.42,1.42,0,0,1-1.5-1.37c.61-2.44,3-4,6.24-4s5,1.54,5,5.57v6.91c0,1.31.35,1.89,1.06,1.89a1.75,1.75,0,0,0,1.18-.54l.16-.16Zm-5.73-7c-1.12.32-2.27.7-2.94,1-2.79,1.08-3.14,2.33-3.14,3.29a2.22,2.22,0,0,0,.64,1.7,2.53,2.53,0,0,0,1.92.73c1.06,0,1.67-.45,3.52-1.76Z"/><path class="a" d="M847.18,302.76v1.15h-7.93v-1.15l2.56-.45c0-1.72.06-3.42.06-5.12V283.47l-2.62-.32V282l5-1.44.45.25-.13,4.55v11.8c0,1.7,0,3.43.06,5.12Z"/><path class="a" d="M686.52,334.54c.07,3.94,2.08,6.18,5.19,6.18a5.53,5.53,0,0,0,4.45-2.24l.76.6a6.57,6.57,0,0,1-6.14,3.71c-4.32,0-7.14-3-7.14-7.93S687,326.6,691,326.6a5.78,5.78,0,0,1,6,6.18,6.31,6.31,0,0,1-.23,1.76Zm5.89-1.34c1.54,0,1.89-.74,1.89-1.67a3.48,3.48,0,0,0-3.49-3.45c-1.79,0-3.87,1.4-4.22,5.12Z"/><path class="a" d="M712.83,338.67a5.83,5.83,0,0,1-6,4.12c-4.38,0-7.17-3.1-7.17-8s3.55-8.16,7.39-8.16c2.88,0,5.25,1.8,5.67,4.16a1.35,1.35,0,0,1-1.47,1.22,1.69,1.69,0,0,1-1.76-1.54l-.58-2.11a5.88,5.88,0,0,0-1.73-.25c-2.72,0-4.7,2.27-4.7,6.36s2.11,6.28,5.09,6.28a5.14,5.14,0,0,0,4.44-2.47Z"/><path class="a" d="M729.66,334.73c0,5.31-3.62,8.06-7.36,8.06S715,340,715,334.73s3.65-8.13,7.33-8.13S729.66,329.45,729.66,334.73Zm-11.65,0c0,4.29,1.53,6.59,4.29,6.59s4.32-2.3,4.32-6.59-1.54-6.68-4.32-6.68S718,330.44,718,334.76Z"/><path class="a" d="M739,341.16v1.15h-7.94v-1.15l2.56-.44c0-1.73.07-3.43.07-5.12V321.87l-2.63-.32v-1.12l5-1.44.45.25-.13,4.55V335.6c0,1.69,0,3.42.07,5.12Z"/><path class="a" d="M755.05,334.73c0,5.31-3.61,8.06-7.36,8.06s-7.32-2.75-7.32-8.06,3.64-8.13,7.32-8.13S755.05,329.45,755.05,334.73Zm-11.64,0c0,4.29,1.53,6.59,4.28,6.59s4.32-2.3,4.32-6.59-1.53-6.68-4.32-6.68S743.41,330.44,743.41,334.76Z"/><path class="a" d="M771.85,329h-3.1a5.42,5.42,0,0,1,.7,2.81c0,3.36-2.46,5.25-5.79,5.25a7.86,7.86,0,0,1-2.33-.32,2.82,2.82,0,0,0-.61,1.82c0,1.19.61,1.7,2.56,1.7h3.26c3.52,0,5.15,1.54,5.15,4.13,0,2.78-2.65,5.53-7.9,5.53-4.64,0-6.72-1.6-6.72-3.87,0-1.41.8-2.49,3.2-3.68a2.94,2.94,0,0,1-1.95-2.78c0-1.19.57-2.21,2-3.3a4.76,4.76,0,0,1-2.43-4.48c0-3.36,2.47-5.25,5.79-5.25a6.3,6.3,0,0,1,4.16,1.32l3.52-1.22.48.32Zm-9.18,13.79a7.11,7.11,0,0,1-1.7-.19,4.08,4.08,0,0,0-1.28,2.94c0,2.08,1.7,2.91,4.23,2.91,3.49,0,5.37-1.44,5.37-3.23,0-1.41-.89-2.43-3.2-2.43Zm4.19-11.07c0-2.28-1.15-3.84-3.13-3.84s-3.24,1.63-3.24,4,1.12,3.94,3.11,3.94S766.86,334.12,766.86,331.76Z"/><path class="a" d="M781.56,341.16v1.15h-7.42v-1.15l2.37-.44c0-1.61.06-3.68.06-5.12V334c0-1.76,0-2.76-.1-4l-2.52-.28v-1.12l5-2,.48.32-.1,4.36v4.32c0,1.4,0,3.51.06,5.12Zm-5.79-20a2.15,2.15,0,0,1,4.29,0,2.15,2.15,0,0,1-4.29,0Z"/><path class="a" d="M796.41,338.67a5.83,5.83,0,0,1-6,4.12c-4.38,0-7.17-3.1-7.17-8s3.55-8.16,7.39-8.16c2.88,0,5.25,1.8,5.67,4.16a1.35,1.35,0,0,1-1.48,1.22,1.69,1.69,0,0,1-1.75-1.54l-.58-2.11a5.88,5.88,0,0,0-1.73-.25c-2.72,0-4.7,2.27-4.7,6.36s2.11,6.28,5.09,6.28a5.14,5.14,0,0,0,4.44-2.47Z"/><path class="a" d="M813.52,341a2.69,2.69,0,0,1-2.6,1.67,2.8,2.8,0,0,1-3.07-2.47c-1.76,1.76-2.81,2.62-4.7,2.62-2.34,0-4.29-1.4-4.29-4.06,0-1.82,1-3.29,5.31-4.86a34.74,34.74,0,0,1,3.62-1.06V332c0-3.11-.9-3.87-3-3.87a6.52,6.52,0,0,0-1.63.19l-.64,2.21c-.29,1-.86,1.53-1.73,1.53a1.41,1.41,0,0,1-1.5-1.37c.61-2.44,3-4,6.24-4s5,1.54,5,5.57v6.91c0,1.32.35,1.89,1,1.89a1.75,1.75,0,0,0,1.19-.54l.16-.16Zm-5.73-7c-1.12.32-2.27.7-2.95,1-2.78,1.08-3.13,2.33-3.13,3.29a2.22,2.22,0,0,0,.64,1.7,2.53,2.53,0,0,0,1.92.73c1.06,0,1.66-.45,3.52-1.76Z"/><path class="a" d="M823.22,341.16v1.15h-7.94v-1.15l2.56-.44c0-1.73.07-3.43.07-5.12V321.87l-2.63-.32v-1.12l5-1.44.44.25-.13,4.55V335.6c0,1.69,0,3.42.07,5.12Z"/><path class="a" d="M708.7,379.56v1.15h-7.42v-1.15l2.4-.45c0-1.6.06-3.71.06-5.12v-1.63c0-2.24,0-3.45-.1-5.09h-7.2V374c0,1.7,0,3.4.07,5.09l2.85.48v1.15h-8.23v-1.15l2.53-.45c0-1.69.06-3.42.06-5.12v-6.72h-2.65v-1.4l2.69-.35c.32-3.46.92-5.41,2.59-6.95a7.49,7.49,0,0,1,5.18-1.82c2.79,0,5,1.25,5,3.2a1.57,1.57,0,0,1-1.6,1.25,2.58,2.58,0,0,1-2-1.32L701.5,358a5.28,5.28,0,0,0-3.55,1.53c-1.12,1.16-1.63,2.92-1.57,6h6.37L706,365l.52.32-.1,4.36V374c0,1.41,0,3.52.06,5.12Z"/><path class="a" d="M728.29,379.56v1.15h-7.42v-1.15l2.37-.45c0-1.56.06-3.64.06-5.12v-2.81c0-2.95-.77-3.87-2.65-3.87a6.61,6.61,0,0,0-4.36,1.92V374c0,1.41,0,3.52.07,5.12l2.21.45v1.15h-7.43v-1.15l2.37-.45c0-1.6.06-3.67.06-5.12v-1.63c0-1.76,0-2.72-.09-4l-2.53-.28V367l4.48-2,.48.32.26,2.6a8.25,8.25,0,0,1,5.72-2.92c2.75,0,4.1,1.73,4.1,5.92V374c0,1.48,0,3.52.06,5.12Z"/><path class="a" d="M745.18,379.37a2.67,2.67,0,0,1-2.59,1.66,2.8,2.8,0,0,1-3.07-2.46c-1.76,1.76-2.82,2.62-4.71,2.62-2.33,0-4.28-1.4-4.28-4.06,0-1.82,1-3.3,5.31-4.86a31.64,31.64,0,0,1,3.61-1.06v-.86c0-3.11-.89-3.87-3-3.87a6.65,6.65,0,0,0-1.64.19l-.64,2.21c-.28,1-.86,1.53-1.72,1.53a1.42,1.42,0,0,1-1.51-1.37c.61-2.44,3-4,6.24-4s5,1.54,5,5.57v6.91c0,1.31.35,1.89,1.06,1.89a1.73,1.73,0,0,0,1.18-.54l.16-.16Zm-5.73-7c-1.11.32-2.27.7-2.94,1-2.78,1.09-3.13,2.34-3.13,3.3a2.22,2.22,0,0,0,.63,1.7,2.56,2.56,0,0,0,1.92.73c1.06,0,1.67-.45,3.52-1.76Z"/><path class="a" d="M764.33,379.56v1.15h-7.42v-1.15l2.37-.45c0-1.56.06-3.64.06-5.12v-2.81c0-2.95-.77-3.87-2.65-3.87a6.61,6.61,0,0,0-4.36,1.92V374c0,1.41,0,3.52.07,5.12l2.21.45v1.15h-7.43v-1.15l2.37-.45c0-1.6.06-3.67.06-5.12v-1.63c0-1.76,0-2.72-.09-4l-2.53-.28V367l4.48-2,.48.32.26,2.6a8.25,8.25,0,0,1,5.72-2.92c2.76,0,4.1,1.73,4.1,5.92V374c0,1.48,0,3.52.06,5.12Z"/><path class="a" d="M779.12,377.07a5.84,5.84,0,0,1-6,4.12c-4.39,0-7.17-3.1-7.17-8s3.55-8.16,7.39-8.16c2.88,0,5.25,1.8,5.66,4.16a1.35,1.35,0,0,1-1.47,1.22c-1.08,0-1.53-.64-1.76-1.54l-.57-2.11a5.88,5.88,0,0,0-1.73-.25c-2.72,0-4.7,2.27-4.7,6.36s2.11,6.27,5.08,6.27a5.14,5.14,0,0,0,4.45-2.46Z"/><path class="a" d="M788.82,379.56v1.15H781.4v-1.15l2.37-.45c0-1.6.06-3.67.06-5.12V372.4c0-1.76,0-2.76-.09-4l-2.53-.28V367l5-2,.48.32-.1,4.36V374c0,1.41,0,3.52.07,5.12Zm-5.79-20a2.15,2.15,0,0,1,4.29,0,2.15,2.15,0,0,1-4.29,0Z"/><path class="a" d="M805.68,379.37a2.68,2.68,0,0,1-2.59,1.66,2.81,2.81,0,0,1-3.08-2.46c-1.76,1.76-2.81,2.62-4.7,2.62-2.34,0-4.29-1.4-4.29-4.06,0-1.82,1-3.3,5.31-4.86a32.46,32.46,0,0,1,3.62-1.06v-.86c0-3.11-.9-3.87-3-3.87a6.52,6.52,0,0,0-1.63.19l-.64,2.21c-.29,1-.86,1.53-1.73,1.53a1.41,1.41,0,0,1-1.5-1.37c.61-2.44,3-4,6.24-4s5,1.54,5,5.57v6.91c0,1.31.35,1.89,1.05,1.89a1.75,1.75,0,0,0,1.19-.54l.16-.16Zm-5.73-7c-1.12.32-2.27.7-2.94,1-2.79,1.09-3.14,2.34-3.14,3.3a2.22,2.22,0,0,0,.64,1.7,2.53,2.53,0,0,0,1.92.73c1.06,0,1.66-.45,3.52-1.76Z"/><path class="a" d="M815.38,379.56v1.15h-7.94v-1.15l2.56-.45c0-1.72.07-3.42.07-5.12V360.27l-2.63-.32v-1.12l5-1.44.44.25-.12,4.55V374c0,1.7,0,3.43.06,5.12Z"/><path d="M616,747c0,5.31-3.62,8.06-7.36,8.06s-7.33-2.75-7.33-8.06,3.65-8.13,7.33-8.13S616,741.7,616,747Zm-11.65,0c0,4.29,1.53,6.59,4.29,6.59s4.32-2.3,4.32-6.59-1.54-6.69-4.32-6.69S604.31,742.69,604.31,747Z"/><path d="M620.29,739.36c.32-3.42.9-5.34,2.27-6.81a6,6,0,0,1,4.52-2c1.5,0,2.75.48,3.07,1.73-.07.83-.77,1.44-1.95,1.44a3.56,3.56,0,0,1-2.31-1l-.8-.64a4,4,0,0,0-1.12,1.28c-.64,1.12-1.12,2.91-1.05,6h4.41v1.69H623v6.72c0,1.7,0,3.39.06,5.09l2.88.48v1.15h-8.25v-1.15l2.53-.45c0-1.7.06-3.42.06-5.12v-6.72H617.6v-1.41Z"/><path d="M172.79,741.31a6.55,6.55,0,0,1,4.93-2.46c3.39,0,6.08,3,6.08,8S181,755,177.21,755a5.4,5.4,0,0,1-4.42-2.27l-.26,2.11-4.8-.32v-1.15l2.4-.45c0-1.6.07-3.71.07-5.12V734.11l-2.63-.32v-1.12l4.9-1.44.45.26-.13,4.54Zm.1,10.11a5.62,5.62,0,0,0,3.8,1.8c2.28,0,4.23-2,4.23-6.15s-1.67-6.4-4.07-6.4c-1,0-2.24.42-4,1.86Z"/><path d="M200.92,740.74l-1.76.38-4.83,13.34c-2.05,5.7-3.9,8.07-6.56,8.07-1.56,0-2.91-.87-2.91-2.15A2,2,0,0,1,187,759a3.26,3.26,0,0,1,2.37,1.18l.16.16a9.94,9.94,0,0,0,2.91-4.54l.13-.38L186.78,741l-1.82-.29v-1.31h7.68v1.34l-2.76.32,3.94,10.66,3.62-10.63-2.79-.38v-1.31h6.27Z"/><path d="M226.33,753.41v1.15l-5,.32-.22-2.17a5.24,5.24,0,0,1-4.48,2.33c-3.91,0-6.53-3.26-6.53-7.93,0-4.9,2.91-8.26,6.82-8.26a5.19,5.19,0,0,1,4.19,2.08v-6.82l-2.72-.32v-1.12l5-1.44.45.26-.13,4.54v17Zm-5.28-11a5.45,5.45,0,0,0-3.61-1.7c-2.37,0-4.42,2-4.42,6.37,0,4.19,1.89,6.18,4.45,6.18a4.49,4.49,0,0,0,3.58-1.86Z"/><path d="M230.51,746.79c.06,3.93,2.08,6.17,5.18,6.17a5.48,5.48,0,0,0,4.45-2.24l.77.61a6.6,6.6,0,0,1-6.15,3.71c-4.32,0-7.13-3-7.13-7.93s3.36-8.26,7.36-8.26a5.77,5.77,0,0,1,5.95,6.18,6.76,6.76,0,0,1-.22,1.76Zm5.89-1.35c1.53,0,1.88-.73,1.88-1.66a3.48,3.48,0,0,0-3.48-3.46c-1.8,0-3.88,1.41-4.23,5.12Z"/><path d="M258.25,740.74l-1.76.38-5.19,13.76h-1.37L244.14,741l-1.76-.25v-1.31h7.74v1.31l-2.82.35,3.91,10.33,3.58-10.3-2.62-.38v-1.31h6.08Z"/><path d="M262.19,746.79c.06,3.93,2.08,6.17,5.18,6.17a5.48,5.48,0,0,0,4.45-2.24l.77.61a6.57,6.57,0,0,1-6.14,3.71c-4.32,0-7.14-3-7.14-7.93s3.36-8.26,7.36-8.26c3.33,0,5.95,2.3,5.95,6.18a6.36,6.36,0,0,1-.22,1.76Zm5.89-1.35c1.53,0,1.89-.73,1.89-1.66a3.49,3.49,0,0,0-3.49-3.46c-1.79,0-3.87,1.41-4.23,5.12Z"/><path d="M282.35,753.41v1.15h-7.94v-1.15L277,753c0-1.73.07-3.42.07-5.12V734.11l-2.63-.32v-1.12l5-1.44.45.26-.13,4.54v11.81c0,1.7,0,3.42.07,5.12Z"/><path d="M298.4,747c0,5.31-3.61,8.06-7.36,8.06s-7.32-2.75-7.32-8.06,3.64-8.13,7.32-8.13S298.4,741.7,298.4,747Zm-11.64,0c0,4.29,1.53,6.59,4.28,6.59s4.32-2.3,4.32-6.59-1.53-6.69-4.32-6.69S286.76,742.69,286.76,747Z"/><path d="M305.5,741.22a6.51,6.51,0,0,1,4.83-2.37c3.43,0,6.11,3,6.11,8S313.6,755,309.85,755a5.27,5.27,0,0,1-4.25-2.11v2.53c0,1.69,0,3.42.06,5.15l2.91.48v1.12h-8.22v-1.12l2.56-.45c0-1.76.06-3.46.06-5.18v-9.25c0-1.76,0-2.72-.09-4l-2.53-.29V740.8l4.48-1.95.48.32Zm.19,10.36a5,5,0,0,0,3.52,1.64c2.4,0,4.35-2,4.35-6.15s-1.66-6.4-4-6.4a6.27,6.27,0,0,0-3.88,1.76Z"/><path d="M326.06,753.41v1.15h-7.42v-1.15L321,753c0-1.6.06-3.68.06-5.12v-1.6c0-1.76,0-2.75-.09-4l-2.53-.29V740.8l5-1.95.48.32-.1,4.35v4.32c0,1.41,0,3.52.07,5.12Zm-5.79-20a2.15,2.15,0,0,1,4.29,0,2.15,2.15,0,0,1-4.29,0Z"/><path d="M345.57,753.41v1.15h-7.43v-1.15l2.37-.45c0-1.57.07-3.65.07-5.12V745c0-2.95-.77-3.88-2.66-3.88a6.64,6.64,0,0,0-4.35,1.92v4.77c0,1.41,0,3.52.06,5.12l2.21.45v1.15h-7.42v-1.15l2.36-.45c0-1.6.07-3.68.07-5.12v-1.63c0-1.76,0-2.72-.1-4l-2.53-.29V740.8l4.48-1.95.48.32.26,2.59a8.25,8.25,0,0,1,5.73-2.91c2.75,0,4.09,1.73,4.09,5.92v3.07c0,1.47,0,3.52.07,5.12Z"/><path d="M361.87,741.28h-3.11a5.48,5.48,0,0,1,.71,2.82c0,3.36-2.47,5.24-5.79,5.24a7.93,7.93,0,0,1-2.34-.31,2.82,2.82,0,0,0-.61,1.82c0,1.18.61,1.69,2.56,1.69h3.27c3.52,0,5.15,1.54,5.15,4.13,0,2.79-2.66,5.54-7.91,5.54-4.63,0-6.71-1.6-6.71-3.87,0-1.41.79-2.5,3.2-3.68a3,3,0,0,1-2-2.79c0-1.18.58-2.2,2-3.29a4.76,4.76,0,0,1-2.43-4.48c0-3.36,2.46-5.25,5.79-5.25a6.39,6.39,0,0,1,4.16,1.31l3.52-1.21.48.32Zm-9.19,13.79a6.61,6.61,0,0,1-1.69-.19,4.05,4.05,0,0,0-1.28,2.94c0,2.08,1.69,2.92,4.22,2.92,3.49,0,5.38-1.44,5.38-3.24,0-1.4-.9-2.43-3.2-2.43Zm4.2-11.07c0-2.27-1.16-3.84-3.14-3.84s-3.23,1.63-3.23,4,1.12,3.94,3.1,3.94S356.88,746.37,356.88,744Z"/><path d="M868.42,753.41v1.15H861v-1.15l2.36-.45c0-1.57.07-3.65.07-5.12V745c0-2.95-.77-3.88-2.66-3.88a6.64,6.64,0,0,0-4.35,1.92v4.77c0,1.41,0,3.52.06,5.12l2.21.45v1.15h-7.42v-1.15l2.37-.45c0-1.6.06-3.68.06-5.12v-1.63c0-1.76,0-2.72-.1-4l-2.52-.29V740.8l4.48-1.95.48.32.25,2.59a8.27,8.27,0,0,1,5.73-2.91c2.75,0,4.1,1.73,4.1,5.92v3.07c0,1.47,0,3.52.06,5.12Z"/><path d="M872.93,746.79c.07,3.93,2.08,6.17,5.19,6.17a5.51,5.51,0,0,0,4.45-2.24l.76.61a6.57,6.57,0,0,1-6.14,3.71c-4.32,0-7.14-3-7.14-7.93s3.37-8.26,7.36-8.26a5.78,5.78,0,0,1,6,6.18,6.31,6.31,0,0,1-.23,1.76Zm5.89-1.35c1.54,0,1.89-.73,1.89-1.66a3.49,3.49,0,0,0-3.49-3.46c-1.79,0-3.87,1.41-4.22,5.12Z"/><path d="M895.09,753.22a4.66,4.66,0,0,1-3.78,1.66c-2.24,0-3.65-1.15-3.65-3.65,0-.8,0-1.47,0-2.72v-7.39H885v-1.41l2.85-.35.83-4.35h1.92l-.16,4.42h4.29v1.69h-4.35v9.76c0,1.63.67,2.34,1.76,2.34a3.62,3.62,0,0,0,2.14-.87Z"/><path d="M920.35,740.74l-1.73.35L914,754.88h-1.18l-4.29-11.1-4.1,11.1H903.2L898.05,741l-1.83-.29v-1.31h7.3v1.31l-2.5.35,3.3,9.82,3.58-9.82-2.36-.35v-1.31h7.07v1.31l-2.37.38,3.62,9.73,3-9.73-2.36-.38v-1.31h5.85Z"/><path d="M936.17,747c0,5.31-3.61,8.06-7.36,8.06s-7.33-2.75-7.33-8.06,3.65-8.13,7.33-8.13S936.17,741.7,936.17,747Zm-11.65,0c0,4.29,1.54,6.59,4.29,6.59s4.32-2.3,4.32-6.59-1.53-6.69-4.32-6.69S924.52,742.69,924.52,747Z"/><path d="M943.41,743c1.09-2.59,2.88-4.13,4.61-4.13a2,2,0,0,1,2.18,1.57,1.76,1.76,0,0,1-1.92,1.76,2.55,2.55,0,0,1-1.83-.8l-.25-.26a7.72,7.72,0,0,0-2.75,4.23v2.49c0,1.41,0,3.49.06,5.09l2.62.48v1.15h-7.77v-1.15l2.3-.42c0-1.6.07-3.71.07-5.15v-1.63c0-1.76,0-2.72-.1-4l-2.53-.29V740.8l4.48-1.95.48.32Z"/><path d="M967.37,753.41v1.15H963l-4.93-7.9L956,748.8c0,1.38,0,2.79.06,4.16l2.56.45v1.15h-7.93v-1.15l2.56-.45c0-1.69.06-3.45.06-5.12V734.12l-2.62-.33v-1.12l5-1.43.45.25L956,736v10.88l5.6-5.82-2.3-.35v-1.31h7.26v1.31l-3,.41L960,744.71l5.25,8.32Z"/><path d="M976.06,745.7c3.2,1.18,4.38,2.72,4.38,4.73,0,2.4-2.08,4.61-6.2,4.61a10,10,0,0,1-4.77-1.21l-.13-3.52h1.76l.61,2.75a6.08,6.08,0,0,0,2.59.51c2.43,0,3.62-1,3.62-2.46s-1-2.08-3-2.82l-1.47-.51c-2.34-.87-3.88-2.21-3.88-4.26,0-2.46,2.18-4.67,5.57-4.67a8.26,8.26,0,0,1,4.48,1.31l-.13,3.27h-1.66l-.51-2.56a4.82,4.82,0,0,0-2.21-.55c-2,0-3,.9-3,2.34,0,1.28.77,1.89,3,2.69Z"/><path d="M983.83,752.77A2.27,2.27,0,1,1,986.1,755,2.26,2.26,0,0,1,983.83,752.77Z"/><path class="a" d="M470.84,715v1.15h-7.43V715l2.37-.45c0-1.57.06-3.65.06-5.12v-2.88c0-3-.83-3.81-2.68-3.81a6.31,6.31,0,0,0-4.29,2c0,.48.06,1,.06,1.6v3.07c0,1.47,0,3.52.07,5.12l2.24.45v1.15h-7.43V715l2.37-.45c0-1.57.06-3.65.06-5.12v-2.81c0-2.92-.73-3.88-2.62-3.88a6.33,6.33,0,0,0-4.26,1.92v4.77c0,1.41,0,3.52.07,5.12l2.21.45v1.15h-7.43V715l2.37-.45c0-1.6.06-3.68.06-5.12v-1.63c0-1.76,0-2.72-.09-4l-2.53-.29V702.4l4.48-1.95.48.32.26,2.56a8,8,0,0,1,5.6-2.88,3.48,3.48,0,0,1,3.77,3,7.63,7.63,0,0,1,5.83-3c2.59,0,4.09,1.63,4.09,5.6v3.39c0,1.47,0,3.52.06,5.12Z"/><path class="a" d="M487.74,714.82a2.66,2.66,0,0,1-2.59,1.66,2.8,2.8,0,0,1-3.07-2.46c-1.76,1.76-2.82,2.62-4.7,2.62-2.34,0-4.29-1.41-4.29-4.06,0-1.83,1-3.3,5.31-4.87a34.15,34.15,0,0,1,3.62-1.05v-.87c0-3.1-.9-3.87-3-3.87a6.52,6.52,0,0,0-1.63.19l-.64,2.21c-.29,1-.87,1.54-1.73,1.54a1.41,1.41,0,0,1-1.5-1.38c.6-2.43,3-4,6.23-4s5,1.54,5,5.57v6.91c0,1.31.36,1.89,1.06,1.89a1.69,1.69,0,0,0,1.18-.55l.16-.16Zm-5.72-7c-1.12.32-2.28.71-2.95,1-2.78,1.09-3.13,2.34-3.13,3.3a2.15,2.15,0,0,0,.64,1.69,2.5,2.5,0,0,0,1.92.74c1.05,0,1.66-.45,3.52-1.76Z"/><path class="a" d="M493.46,702.82a6.51,6.51,0,0,1,4.83-2.37c3.43,0,6.12,3,6.12,8s-2.85,8.22-6.6,8.22a5.27,5.27,0,0,1-4.25-2.11v2.53c0,1.69,0,3.42.06,5.15l2.91.48v1.12h-8.22v-1.12l2.56-.45c0-1.76.06-3.45.06-5.18v-9.25c0-1.76,0-2.72-.09-4l-2.53-.29V702.4l4.48-1.95.48.32Zm.19,10.37a5,5,0,0,0,3.52,1.63c2.4,0,4.36-2,4.36-6.15s-1.67-6.4-4-6.4a6.27,6.27,0,0,0-3.88,1.76Z"/><path class="a" d="M513.84,707.3c3.2,1.18,4.38,2.72,4.38,4.73,0,2.4-2.08,4.61-6.21,4.61a9.82,9.82,0,0,1-4.76-1.21l-.13-3.52h1.76l.61,2.75a6,6,0,0,0,2.59.51c2.43,0,3.61-1,3.61-2.46s-1-2.08-3-2.82l-1.47-.51c-2.33-.87-3.87-2.21-3.87-4.26,0-2.46,2.18-4.67,5.57-4.67a8.28,8.28,0,0,1,4.48,1.31l-.13,3.27H515.6l-.51-2.56a4.85,4.85,0,0,0-2.21-.55c-2,0-3,.9-3,2.34,0,1.28.77,1.89,2.94,2.69Z"/><path class="a" d="M399.28,740.74l-1.76.38-5.18,13.76H391L385.17,741l-1.76-.25v-1.31h7.74v1.31l-2.81.35,3.9,10.34,3.58-10.31-2.62-.38v-1.31h6.08Z"/><path class="a" d="M408.77,753.41v1.15h-7.42v-1.15l2.37-.45c0-1.6.06-3.68.06-5.12v-1.6c0-1.76,0-2.75-.1-4l-2.52-.29V740.8l5-1.95.48.32-.1,4.35v4.32c0,1.41,0,3.52.06,5.12Zm-5.79-20a2.15,2.15,0,0,1,4.29,0,2.15,2.15,0,0,1-4.29,0Z"/><path class="a" d="M417.9,745.7c3.2,1.18,4.39,2.72,4.39,4.73,0,2.4-2.08,4.61-6.21,4.61a10,10,0,0,1-4.77-1.21l-.13-3.52h1.76l.61,2.75a6.08,6.08,0,0,0,2.59.51c2.44,0,3.62-1,3.62-2.46s-1-2.08-3-2.82l-1.47-.51c-2.34-.87-3.87-2.21-3.87-4.26,0-2.46,2.18-4.67,5.57-4.67a8.31,8.31,0,0,1,4.48,1.31l-.13,3.27h-1.67l-.51-2.56a4.79,4.79,0,0,0-2.21-.55c-1.95,0-3,.9-3,2.34,0,1.28.77,1.89,2.94,2.69Z"/><path class="a" d="M440.9,753.41v1.15l-4.45.32-.32-2.85a7.28,7.28,0,0,1-5.66,3c-2.59,0-4.19-1.54-4.16-5.76l.1-8-2.28-.48v-1.15l4.71-.45.32.32L429,744v5c0,2.79.83,3.75,2.56,3.75a6.64,6.64,0,0,0,4.48-2l.09-9.44-2.27-.48v-1.15l4.64-.45.32.32-.09,4.48v9Z"/><path class="a" d="M457.84,753.22a2.68,2.68,0,0,1-2.6,1.66,2.8,2.8,0,0,1-3.07-2.46c-1.76,1.76-2.81,2.62-4.7,2.62-2.34,0-4.29-1.41-4.29-4.06,0-1.83,1-3.3,5.31-4.87a34.15,34.15,0,0,1,3.62-1.05v-.87c0-3.1-.9-3.87-3-3.87a6.52,6.52,0,0,0-1.63.19l-.64,2.21c-.29,1-.86,1.54-1.73,1.54a1.42,1.42,0,0,1-1.5-1.38c.61-2.43,3-4,6.24-4s5,1.54,5,5.57v6.91c0,1.31.35,1.89,1.05,1.89a1.74,1.74,0,0,0,1.19-.55l.16-.16Zm-5.73-7c-1.12.32-2.27.71-2.95,1-2.78,1.09-3.13,2.34-3.13,3.3a2.15,2.15,0,0,0,.64,1.69,2.5,2.5,0,0,0,1.92.74c1.05,0,1.66-.45,3.52-1.76Z"/><path class="a" d="M467.54,753.41v1.15H459.6v-1.15l2.56-.45c0-1.73.07-3.42.07-5.12V734.12l-2.63-.33v-1.12l5-1.43.45.25-.13,4.54v11.81c0,1.7,0,3.43.07,5.12Z"/><path class="a" d="M477.14,753.41v1.15h-7.42v-1.15l2.37-.45c0-1.6.06-3.68.06-5.12v-1.6c0-1.76,0-2.75-.09-4l-2.53-.29V740.8l5-1.95.48.32-.1,4.35v4.32c0,1.41,0,3.52.07,5.12Zm-5.79-20a2.15,2.15,0,0,1,4.29,0,2.15,2.15,0,0,1-4.29,0Z"/><path class="a" d="M492.19,749.35l-.32,5.21H479.33v-1.12l9.15-12.64h-6.43l-.87,3.55-1.66-.12.26-4.8h11.93v1.15l-9.12,12.64h7l1-3.87Z"/><path class="a" d="M509.18,753.22a2.66,2.66,0,0,1-2.59,1.66,2.8,2.8,0,0,1-3.07-2.46c-1.76,1.76-2.81,2.62-4.7,2.62-2.34,0-4.29-1.41-4.29-4.06,0-1.83,1-3.3,5.31-4.87a34.15,34.15,0,0,1,3.62-1.05v-.87c0-3.1-.9-3.87-3-3.87a6.52,6.52,0,0,0-1.63.19l-.64,2.21c-.29,1-.87,1.54-1.73,1.54a1.41,1.41,0,0,1-1.5-1.38c.6-2.43,3-4,6.24-4s5,1.54,5,5.57v6.91c0,1.31.35,1.89,1.05,1.89a1.69,1.69,0,0,0,1.18-.55l.17-.16Zm-5.72-7c-1.12.32-2.27.71-2.95,1-2.78,1.09-3.13,2.34-3.13,3.3a2.15,2.15,0,0,0,.64,1.69,2.5,2.5,0,0,0,1.92.74c1.05,0,1.66-.45,3.52-1.76Z"/><path class="a" d="M519.3,753.22a4.66,4.66,0,0,1-3.78,1.66c-2.24,0-3.65-1.15-3.65-3.65,0-.8,0-1.47,0-2.72v-7.39h-2.66v-1.41l2.85-.35.83-4.35h1.92l-.16,4.42H519v1.69h-4.35v9.76c0,1.63.67,2.34,1.75,2.34a3.62,3.62,0,0,0,2.15-.87Z"/><path class="a" d="M528.56,753.41v1.15h-7.42v-1.15l2.37-.45c0-1.6.06-3.68.06-5.12v-1.6c0-1.76,0-2.75-.09-4l-2.53-.29V740.8l5-1.95.48.32-.1,4.35v4.32c0,1.41,0,3.52.07,5.12Zm-5.79-20a2.15,2.15,0,0,1,4.29,0,2.15,2.15,0,0,1-4.29,0Z"/><path class="a" d="M544.92,747c0,5.31-3.62,8.06-7.36,8.06s-7.33-2.75-7.33-8.06,3.65-8.13,7.33-8.13S544.92,741.7,544.92,747Zm-11.65,0c0,4.29,1.54,6.59,4.29,6.59s4.32-2.3,4.32-6.59-1.54-6.69-4.32-6.69S533.27,742.69,533.27,747Z"/><path class="a" d="M564.19,753.41v1.15h-7.42v-1.15l2.37-.45c0-1.57.06-3.65.06-5.12V745c0-2.95-.77-3.88-2.66-3.88a6.64,6.64,0,0,0-4.35,1.92v4.77c0,1.41,0,3.52.07,5.12l2.21.45v1.15H547v-1.15l2.37-.45c0-1.6.06-3.68.06-5.12v-1.63c0-1.76,0-2.72-.09-4l-2.53-.29V740.8l4.48-1.95.48.32.25,2.59a8.27,8.27,0,0,1,5.73-2.91c2.75,0,4.1,1.73,4.1,5.92v3.07c0,1.47,0,3.52.06,5.12Z"/><path class="a" d="M573.36,745.7c3.2,1.18,4.38,2.72,4.38,4.73,0,2.4-2.08,4.61-6.2,4.61a10,10,0,0,1-4.77-1.21l-.13-3.52h1.76l.61,2.75a6.08,6.08,0,0,0,2.59.51c2.43,0,3.62-1,3.62-2.46s-1-2.08-3-2.82l-1.47-.51c-2.34-.87-3.88-2.21-3.88-4.26,0-2.46,2.18-4.67,5.57-4.67a8.26,8.26,0,0,1,4.48,1.31l-.13,3.27h-1.66l-.51-2.56a4.82,4.82,0,0,0-2.21-.55c-1.95,0-3,.9-3,2.34,0,1.28.77,1.89,3,2.69Z"/><path class="a" d="M458.06,791.81V793h-7.42v-1.15l2.36-.45c0-1.57.07-3.65.07-5.12v-2.88c0-3-.83-3.81-2.69-3.81a6.32,6.32,0,0,0-4.29,2c0,.48.07,1,.07,1.6v3.07c0,1.47,0,3.52.06,5.12l2.24.45V793H441v-1.15l2.36-.45c0-1.57.07-3.65.07-5.12v-2.81c0-2.92-.74-3.88-2.63-3.88a6.3,6.3,0,0,0-4.25,1.92v4.77c0,1.41,0,3.52.06,5.12l2.21.45V793h-7.42v-1.15l2.36-.45c0-1.6.07-3.68.07-5.12v-1.63c0-1.76,0-2.72-.1-4l-2.52-.29V779.2l4.47-2,.48.32.26,2.56a8.08,8.08,0,0,1,5.6-2.88,3.49,3.49,0,0,1,3.78,3,7.59,7.59,0,0,1,5.82-3c2.59,0,4.1,1.63,4.1,5.6v3.39c0,1.47,0,3.52.06,5.12Z"/><path class="a" d="M474.37,785.38c0,5.31-3.62,8.06-7.36,8.06s-7.33-2.75-7.33-8.06,3.65-8.13,7.33-8.13S474.37,780.1,474.37,785.38Zm-11.65,0c0,4.29,1.54,6.59,4.29,6.59s4.32-2.3,4.32-6.59-1.54-6.69-4.32-6.69S462.72,781.09,462.72,785.41Z"/><path class="a" d="M493.24,791.81V793l-5,.32-.22-2.17a5.24,5.24,0,0,1-4.48,2.33c-3.91,0-6.53-3.26-6.53-7.93,0-4.9,2.91-8.26,6.81-8.26a5.21,5.21,0,0,1,4.2,2.08v-6.82l-2.72-.32v-1.12l5-1.44.45.26-.13,4.54v17Zm-5.28-11a5.45,5.45,0,0,0-3.62-1.7c-2.36,0-4.41,2-4.41,6.37,0,4.19,1.89,6.18,4.45,6.18a4.51,4.51,0,0,0,3.58-1.86Z"/><path class="a" d="M497.42,785.19c.06,3.93,2.08,6.17,5.18,6.17a5.5,5.5,0,0,0,4.45-2.24l.77.61a6.6,6.6,0,0,1-6.15,3.71c-4.32,0-7.13-3-7.13-7.93s3.36-8.26,7.36-8.26a5.77,5.77,0,0,1,6,6.18,6.31,6.31,0,0,1-.23,1.76Zm5.88-1.35c1.54,0,1.89-.73,1.89-1.66a3.49,3.49,0,0,0-3.49-3.46c-1.79,0-3.87,1.41-4.22,5.12Z"/><path class="a" d="M517.57,791.81V793h-7.93v-1.15l2.56-.45c0-1.73.06-3.42.06-5.12V772.51l-2.62-.32v-1.12l5-1.44.45.26-.13,4.54v11.81c0,1.7,0,3.43.06,5.12Z"/><path class="a" d="M526.61,784.1c3.2,1.18,4.39,2.72,4.39,4.73,0,2.4-2.08,4.61-6.21,4.61a9.79,9.79,0,0,1-4.77-1.22l-.13-3.51h1.76l.61,2.75a6.08,6.08,0,0,0,2.59.51c2.43,0,3.62-1,3.62-2.47s-1-2.07-3-2.81l-1.47-.51c-2.34-.87-3.87-2.21-3.87-4.26,0-2.46,2.17-4.67,5.56-4.67a8.26,8.26,0,0,1,4.48,1.31l-.12,3.27h-1.67l-.51-2.56a4.79,4.79,0,0,0-2.21-.55c-1.95,0-3,.9-3,2.34,0,1.28.76,1.89,2.94,2.69Z"/><path class="a" d="M699.07,561.41v1.15l-5,.32-.23-2.17A5.23,5.23,0,0,1,689.4,563c-3.9,0-6.52-3.26-6.52-7.93,0-4.9,2.91-8.26,6.81-8.26a5.17,5.17,0,0,1,4.19,2.08v-6.81l-2.72-.33v-1.11l5-1.44.44.25-.12,4.54v17Zm-5.28-11a5.45,5.45,0,0,0-3.62-1.7c-2.37,0-4.41,2-4.41,6.37,0,4.19,1.88,6.18,4.44,6.18a4.52,4.52,0,0,0,3.59-1.86Z"/><path class="a" d="M708.57,561.41v1.15h-7.42v-1.15l2.36-.45c0-1.6.07-3.68.07-5.12v-1.6c0-1.76,0-2.75-.1-4l-2.53-.29V548.8l5-1.95.48.32-.09,4.35v4.32c0,1.41,0,3.52.06,5.12Zm-5.79-20a2,2,0,0,1,2.14-2,2,2,0,0,1,2.15,2,2.08,2.08,0,0,1-2.15,2A2,2,0,0,1,702.78,541.38Z"/><path class="a" d="M716,551c1.09-2.59,2.88-4.13,4.61-4.13a2,2,0,0,1,2.17,1.57,1.76,1.76,0,0,1-1.92,1.76,2.51,2.51,0,0,1-1.82-.8l-.26-.26a7.77,7.77,0,0,0-2.75,4.23v2.49c0,1.41,0,3.49.06,5.09l2.63.48v1.15H711v-1.15l2.31-.42c0-1.6.06-3.71.06-5.15v-1.63c0-1.76,0-2.72-.1-4l-2.52-.29V548.8l4.48-1.95.48.32Z"/><path class="a" d="M726.93,554.79c.07,3.93,2.08,6.17,5.19,6.17a5.47,5.47,0,0,0,4.44-2.24l.77.61a6.57,6.57,0,0,1-6.14,3.71c-4.32,0-7.14-3-7.14-7.93s3.36-8.26,7.36-8.26c3.33,0,6,2.3,6,6.18a6.36,6.36,0,0,1-.22,1.76Zm5.89-1.35c1.54,0,1.89-.73,1.89-1.66a3.49,3.49,0,0,0-3.49-3.46c-1.79,0-3.87,1.41-4.22,5.12Z"/><path class="a" d="M753.24,558.91a5.82,5.82,0,0,1-6,4.13c-4.38,0-7.17-3.1-7.17-8s3.55-8.16,7.39-8.16c2.88,0,5.25,1.79,5.67,4.16a1.36,1.36,0,0,1-1.48,1.22,1.69,1.69,0,0,1-1.75-1.54l-.58-2.11a5.91,5.91,0,0,0-1.73-.26c-2.72,0-4.7,2.27-4.7,6.37S745,561,748,561a5.13,5.13,0,0,0,4.44-2.46Z"/><path class="a" d="M764.84,561.22a4.66,4.66,0,0,1-3.78,1.66c-2.24,0-3.65-1.15-3.65-3.65,0-.8,0-1.47,0-2.72v-7.39h-2.65v-1.41l2.85-.35.83-4.35h1.92l-.16,4.42h4.29v1.69h-4.35v9.76c0,1.63.67,2.34,1.75,2.34a3.62,3.62,0,0,0,2.15-.87Z"/><path class="a" d="M768.85,554.79c.07,3.93,2.08,6.17,5.19,6.17a5.47,5.47,0,0,0,4.44-2.24l.77.61a6.57,6.57,0,0,1-6.14,3.71c-4.32,0-7.14-3-7.14-7.93s3.36-8.26,7.36-8.26c3.33,0,5.95,2.3,5.95,6.18a6.36,6.36,0,0,1-.22,1.76Zm5.89-1.35c1.54,0,1.89-.73,1.89-1.66a3.49,3.49,0,0,0-3.49-3.46c-1.79,0-3.87,1.41-4.22,5.12Z"/><path class="a" d="M798.19,561.41v1.15l-5,.32-.23-2.17a5.23,5.23,0,0,1-4.48,2.33c-3.9,0-6.52-3.26-6.52-7.93,0-4.9,2.91-8.26,6.81-8.26a5.17,5.17,0,0,1,4.19,2.08v-6.81l-2.72-.33v-1.11l5-1.44.45.25-.13,4.54v17Zm-5.28-11a5.47,5.47,0,0,0-3.62-1.7c-2.37,0-4.41,2-4.41,6.37,0,4.19,1.88,6.18,4.44,6.18a4.52,4.52,0,0,0,3.59-1.86Z"/><path class="a" d="M684.8,587.71a6.52,6.52,0,0,1,4.92-2.46c3.39,0,6.08,3,6.08,8s-2.85,8.22-6.59,8.22a5.38,5.38,0,0,1-4.41-2.27l-.26,2.11-4.8-.32v-1.15l2.4-.45c0-1.6.06-3.71.06-5.12V580.52l-2.62-.33v-1.11l4.9-1.44.44.25-.12,4.54Zm.09,10.12a5.65,5.65,0,0,0,3.81,1.79c2.27,0,4.22-2,4.22-6.15s-1.66-6.4-4.06-6.4c-1,0-2.24.42-4,1.86Z"/><path class="a" d="M705.42,599.81V601H698v-1.15l2.37-.45c0-1.6.06-3.68.06-5.12v-1.6c0-1.76,0-2.75-.1-4l-2.52-.29V587.2l5-2,.48.32-.1,4.35v4.32c0,1.41,0,3.52.06,5.12Zm-5.79-20a2.15,2.15,0,0,1,4.29,0,2.15,2.15,0,0,1-4.29,0Z"/><path class="a" d="M711.71,587.62a6.48,6.48,0,0,1,4.83-2.37c3.43,0,6.11,3,6.11,8s-2.84,8.22-6.59,8.22a5.27,5.27,0,0,1-4.25-2.11v2.53c0,1.69,0,3.42.06,5.15l2.91.48v1.12h-8.22v-1.12l2.56-.45c0-1.76.06-3.46.06-5.18v-9.25c0-1.76,0-2.72-.09-4l-2.53-.29V587.2l4.48-2,.48.32ZM711.9,598a5,5,0,0,0,3.52,1.63c2.4,0,4.35-2,4.35-6.15s-1.66-6.4-4-6.4a6.25,6.25,0,0,0-3.87,1.76Z"/><path class="a" d="M739.84,599.62a2.68,2.68,0,0,1-2.59,1.66,2.79,2.79,0,0,1-3.07-2.46c-1.76,1.76-2.82,2.62-4.71,2.62a4,4,0,0,1-4.29-4.06c0-1.83,1-3.3,5.32-4.87a33.93,33.93,0,0,1,3.61-1v-.87c0-3.1-.89-3.87-3-3.87a6.57,6.57,0,0,0-1.63.19l-.64,2.21c-.28,1-.86,1.54-1.73,1.54a1.42,1.42,0,0,1-1.5-1.38c.61-2.43,3-4,6.24-4s5,1.54,5,5.57v6.91c0,1.31.35,1.89,1.06,1.89a1.71,1.71,0,0,0,1.18-.55l.16-.16Zm-5.73-7c-1.12.32-2.27.71-2.94,1-2.79,1.09-3.14,2.34-3.14,3.3a2.18,2.18,0,0,0,.64,1.69,2.52,2.52,0,0,0,1.92.74c1.06,0,1.67-.45,3.52-1.76Z"/><path class="a" d="M746.93,589.38c1.09-2.59,2.88-4.13,4.61-4.13a2,2,0,0,1,2.17,1.57,1.76,1.76,0,0,1-1.92,1.76,2.51,2.51,0,0,1-1.82-.8l-.26-.26a7.77,7.77,0,0,0-2.75,4.23v2.49c0,1.41,0,3.49.06,5.09l2.63.48V601h-7.78v-1.15l2.31-.42c0-1.6.06-3.71.06-5.15v-1.63c0-1.76,0-2.72-.1-4l-2.52-.29V587.2l4.48-2,.48.32Z"/><path class="a" d="M765.34,599.62a4.64,4.64,0,0,1-3.78,1.66c-2.23,0-3.64-1.15-3.64-3.65,0-.8,0-1.47,0-2.72v-7.39h-2.66v-1.41l2.85-.35.83-4.35h1.92l-.16,4.42H765v1.69h-4.35v9.76c0,1.63.67,2.34,1.76,2.34a3.62,3.62,0,0,0,2.14-.87Z"/><path class="a" d="M774.61,599.81V601h-7.43v-1.15l2.37-.45c0-1.6.07-3.68.07-5.12v-1.6c0-1.76,0-2.75-.1-4l-2.53-.29V587.2l5-2,.48.32-.09,4.35v4.32c0,1.41,0,3.52.06,5.12Zm-5.79-20a2,2,0,0,1,2.14-2,2,2,0,0,1,2.14,2,2.07,2.07,0,0,1-2.14,2.05A2,2,0,0,1,768.82,579.78Z"/><path class="a" d="M785.4,599.62a4.64,4.64,0,0,1-3.77,1.66c-2.24,0-3.65-1.15-3.65-3.65,0-.8,0-1.47,0-2.72v-7.39h-2.65v-1.41l2.84-.35.84-4.35H781l-.16,4.42h4.28v1.69h-4.35v9.76c0,1.63.67,2.34,1.76,2.34a3.62,3.62,0,0,0,2.15-.87Z"/><path class="a" d="M789.42,593.19c.06,3.93,2.08,6.17,5.18,6.17a5.48,5.48,0,0,0,4.45-2.24l.77.61a6.57,6.57,0,0,1-6.14,3.71c-4.32,0-7.14-3-7.14-7.93s3.36-8.26,7.36-8.26c3.33,0,6,2.3,6,6.18a6.36,6.36,0,0,1-.22,1.76Zm5.89-1.35c1.53,0,1.89-.73,1.89-1.66a3.49,3.49,0,0,0-3.49-3.46c-1.79,0-3.87,1.41-4.23,5.12Z"/><path class="a" d="M700.08,625.54l-1.73.35-4.67,13.79H692.5l-4.29-11.1-4.1,11.1h-1.18l-5.15-13.85-1.83-.29v-1.31h7.3v1.31l-2.5.35,3.3,9.82,3.58-9.82-2.37-.35v-1.31h7.08v1.31l-2.37.38,3.61,9.73,3-9.73-2.37-.38v-1.31h5.86Z"/><path class="a" d="M704.07,631.59c.06,3.93,2.08,6.17,5.18,6.17a5.48,5.48,0,0,0,4.45-2.24l.77.61a6.57,6.57,0,0,1-6.14,3.71c-4.32,0-7.14-3-7.14-7.93s3.36-8.26,7.36-8.26c3.33,0,6,2.3,6,6.18a6.36,6.36,0,0,1-.22,1.76Zm5.89-1.35c1.53,0,1.89-.73,1.89-1.66a3.49,3.49,0,0,0-3.49-3.46c-1.79,0-3.87,1.41-4.23,5.12Z"/><path class="a" d="M724.35,638.21v1.15h-7.42v-1.15l2.37-.45c0-1.6.06-3.68.06-5.12V631c0-1.76,0-2.75-.1-4l-2.52-.29V625.6l5-2,.47.32-.09,4.35v4.32c0,1.41,0,3.52.06,5.12Zm-5.79-20a2.15,2.15,0,0,1,4.29,0,2.15,2.15,0,0,1-4.29,0Z"/><path class="a" d="M740.62,626.08h-3.11a5.48,5.48,0,0,1,.71,2.82c0,3.36-2.47,5.25-5.8,5.25a7.86,7.86,0,0,1-2.33-.32,2.82,2.82,0,0,0-.61,1.82c0,1.18.61,1.7,2.56,1.7h3.26c3.52,0,5.16,1.53,5.16,4.12,0,2.79-2.66,5.54-7.91,5.54-4.64,0-6.72-1.6-6.72-3.87,0-1.41.8-2.5,3.2-3.68a3,3,0,0,1-1.95-2.79c0-1.18.58-2.2,2-3.29a4.76,4.76,0,0,1-2.43-4.48c0-3.36,2.46-5.25,5.79-5.25a6.39,6.39,0,0,1,4.16,1.31l3.52-1.21.48.32Zm-9.19,13.79a6.56,6.56,0,0,1-1.69-.19,4.07,4.07,0,0,0-1.28,2.94c0,2.09,1.69,2.92,4.22,2.92,3.49,0,5.38-1.44,5.38-3.24,0-1.4-.9-2.43-3.2-2.43Zm4.19-11.07c0-2.27-1.15-3.84-3.13-3.84s-3.23,1.63-3.23,4,1.12,3.94,3.1,3.94S735.62,631.17,735.62,628.8Z"/><path class="a" d="M759.77,638.21v1.15h-7.42v-1.15l2.33-.42c0-1.6.07-3.68.07-5.15v-2.81c0-3-.74-3.88-2.63-3.88-1.53,0-2.81.58-4.51,2.08v4.61c0,1.41,0,3.52.07,5.12l2.2.45v1.15h-7.42v-1.15l2.4-.45c0-1.6.06-3.71.06-5.12V618.92l-2.62-.33v-1.12l4.9-1.43.44.25-.12,4.54v5.8a8.42,8.42,0,0,1,5.85-3c2.75,0,4.1,1.73,4.1,5.92v3.07c0,1.47,0,3.52.06,5.12Z"/><path class="a" d="M770.32,638a4.64,4.64,0,0,1-3.77,1.66c-2.24,0-3.65-1.15-3.65-3.65,0-.8,0-1.47,0-2.72v-7.39h-2.66v-1.41l2.85-.35.83-4.35h1.92l-.16,4.42H770v1.69h-4.35v9.76c0,1.63.67,2.34,1.76,2.34a3.62,3.62,0,0,0,2.14-.87Z"/><path class="a" d="M774.34,631.59c.06,3.93,2.08,6.17,5.18,6.17a5.48,5.48,0,0,0,4.45-2.24l.77.61a6.59,6.59,0,0,1-6.15,3.71c-4.32,0-7.13-3-7.13-7.93s3.36-8.26,7.36-8.26c3.33,0,5.95,2.3,5.95,6.18a6.76,6.76,0,0,1-.22,1.76Zm5.89-1.35c1.53,0,1.88-.73,1.88-1.66a3.48,3.48,0,0,0-3.48-3.46c-1.8,0-3.88,1.41-4.23,5.12Z"/><path class="a" d="M803.67,638.21v1.15l-5,.32-.22-2.17a5.24,5.24,0,0,1-4.48,2.33c-3.91,0-6.53-3.26-6.53-7.93,0-4.9,2.91-8.26,6.82-8.26a5.19,5.19,0,0,1,4.19,2.08v-6.81l-2.72-.33v-1.12l5-1.43.45.25-.13,4.54v17Zm-5.28-11a5.45,5.45,0,0,0-3.61-1.7c-2.37,0-4.42,2-4.42,6.37,0,4.19,1.89,6.18,4.45,6.18a4.49,4.49,0,0,0,3.58-1.86Z"/><path class="a" d="M694.59,676.61v1.15h-7.43v-1.15l2.37-.45c0-1.57.06-3.65.06-5.12v-2.88c0-3-.83-3.81-2.68-3.81a6.31,6.31,0,0,0-4.29,2c0,.48.06,1,.06,1.6V671c0,1.47,0,3.52.07,5.12l2.24.45v1.15h-7.43v-1.15l2.37-.45c0-1.57.07-3.65.07-5.12v-2.81c0-2.92-.74-3.88-2.63-3.88a6.29,6.29,0,0,0-4.25,1.92V671c0,1.41,0,3.52.06,5.12l2.21.45v1.15H668v-1.15l2.37-.45c0-1.6.07-3.68.07-5.12v-1.63c0-1.76,0-2.72-.1-4l-2.53-.29V664l4.48-2,.48.32.26,2.56a8,8,0,0,1,5.6-2.88,3.48,3.48,0,0,1,3.77,3,7.63,7.63,0,0,1,5.83-3c2.59,0,4.09,1.63,4.09,5.6V671c0,1.47,0,3.52.07,5.12Z"/><path class="a" d="M712.11,676.61v1.15l-4.44.32-.33-2.85a7.28,7.28,0,0,1-5.66,3c-2.59,0-4.19-1.53-4.16-5.76l.1-8-2.28-.48v-1.15l4.71-.45.32.32-.16,4.48v5c0,2.79.83,3.75,2.56,3.75a6.64,6.64,0,0,0,4.48-2.05l.09-9.44-2.27-.48v-1.15l4.64-.45.32.32-.09,4.48v9Z"/><path class="a" d="M722.25,676.61v1.15h-7.93v-1.15l2.56-.45c0-1.73.06-3.42.06-5.12V657.32l-2.62-.32v-1.13l5-1.43.45.25-.13,4.55V671c0,1.7,0,3.43.06,5.12Z"/><path class="a" d="M732.72,676.42a4.64,4.64,0,0,1-3.78,1.66c-2.24,0-3.64-1.15-3.64-3.65,0-.8,0-1.47,0-2.72v-7.39h-2.66v-1.4l2.85-.36.83-4.35h1.92l-.16,4.42h4.29v1.69h-4.35v9.76c0,1.63.67,2.34,1.76,2.34a3.62,3.62,0,0,0,2.14-.87Z"/><path class="a" d="M742,676.61v1.15h-7.43v-1.15l2.37-.45c0-1.6.07-3.68.07-5.12v-1.6c0-1.76,0-2.75-.1-4l-2.53-.29V664l5-2,.48.32-.09,4.35V671c0,1.41,0,3.52.06,5.12Zm-5.79-20a2,2,0,0,1,2.14-2.05,2,2,0,0,1,2.14,2.05,2.07,2.07,0,0,1-2.14,2A2,2,0,0,1,736.2,656.58Z"/><path class="a" d="M752,676.61v1.15h-7.93v-1.15l2.56-.45c0-1.73.06-3.42.06-5.12V657.32l-2.62-.32v-1.13l5-1.43.45.25-.13,4.55V671c0,1.7,0,3.43.07,5.12Z"/><path class="a" d="M768.81,676.42a2.68,2.68,0,0,1-2.6,1.66,2.8,2.8,0,0,1-3.07-2.46c-1.76,1.76-2.81,2.62-4.7,2.62-2.34,0-4.29-1.41-4.29-4.06,0-1.83,1-3.3,5.31-4.87a34.15,34.15,0,0,1,3.62-1v-.87c0-3.1-.9-3.87-3-3.87a6.52,6.52,0,0,0-1.63.19l-.64,2.21c-.29,1-.87,1.54-1.73,1.54a1.41,1.41,0,0,1-1.5-1.38c.6-2.43,3-4,6.24-4s5,1.54,5,5.57v6.91c0,1.31.35,1.89,1.05,1.89a1.74,1.74,0,0,0,1.19-.55l.16-.16Zm-5.73-7c-1.12.32-2.27.71-3,1-2.78,1.09-3.13,2.34-3.13,3.3a2.15,2.15,0,0,0,.64,1.69,2.5,2.5,0,0,0,1.92.74c1.05,0,1.66-.45,3.52-1.76Z"/><path class="a" d="M784.3,663.94l-1.76.38-4.83,13.35c-2.05,5.69-3.9,8.06-6.56,8.06-1.57,0-2.91-.86-2.91-2.15a2,2,0,0,1,2.11-1.34,3.23,3.23,0,0,1,2.37,1.19l.16.15a9.89,9.89,0,0,0,2.91-4.54l.13-.38-5.76-14.43-1.82-.29v-1.31H776V664l-2.75.32L777.2,675l3.62-10.63-2.79-.38v-1.31h6.27Z"/><path class="a" d="M788.26,670c.07,3.93,2.08,6.17,5.19,6.17a5.47,5.47,0,0,0,4.44-2.24l.77.61a6.57,6.57,0,0,1-6.14,3.71c-4.32,0-7.14-3-7.14-7.93s3.36-8.26,7.36-8.26c3.33,0,6,2.3,6,6.18a6.36,6.36,0,0,1-.22,1.76Zm5.89-1.35c1.53,0,1.89-.73,1.89-1.66a3.49,3.49,0,0,0-3.49-3.46c-1.79,0-3.87,1.41-4.22,5.12Z"/><path class="a" d="M806.32,666.18c1.08-2.59,2.88-4.13,4.6-4.13a2,2,0,0,1,2.18,1.57,1.76,1.76,0,0,1-1.92,1.76,2.51,2.51,0,0,1-1.82-.8l-.26-.26a7.72,7.72,0,0,0-2.75,4.23V671c0,1.41,0,3.49.06,5.09l2.63.48v1.15h-7.78v-1.15l2.3-.42c0-1.6.07-3.71.07-5.15v-1.63c0-1.76,0-2.72-.1-4l-2.53-.29V664l4.48-2,.48.32Z"/><path class="a" d="M680.35,715v1.15l-4.45.32-.32-2.85a7.29,7.29,0,0,1-5.66,3c-2.6,0-4.2-1.53-4.16-5.76l.09-8-2.27-.48v-1.15l4.7-.45.32.32-.16,4.48v5c0,2.79.84,3.75,2.56,3.75a6.62,6.62,0,0,0,4.48-2.05l.1-9.44-2.27-.48v-1.15l4.64-.45.32.32-.1,4.48v9Z"/><path class="a" d="M699.93,715v1.15h-7.42V715l2.36-.45c0-1.57.07-3.65.07-5.12v-2.81c0-3-.77-3.88-2.66-3.88a6.64,6.64,0,0,0-4.35,1.92v4.77c0,1.41,0,3.52.07,5.12l2.2.45v1.15h-7.42V715l2.37-.45c0-1.6.06-3.68.06-5.12v-1.63c0-1.76,0-2.72-.09-4l-2.53-.29V702.4l4.48-1.95.48.32.25,2.59a8.27,8.27,0,0,1,5.73-2.91c2.75,0,4.1,1.73,4.1,5.92v3.07c0,1.47,0,3.52.06,5.12Z"/><path class="a" d="M717.73,715v1.15l-5,.32-.22-2.17a5.23,5.23,0,0,1-4.48,2.33c-3.9,0-6.53-3.26-6.53-7.93,0-4.9,2.92-8.26,6.82-8.26a5.17,5.17,0,0,1,4.19,2.08v-6.82l-2.72-.32v-1.12l5-1.44.45.26-.13,4.54v17Zm-5.28-11a5.47,5.47,0,0,0-3.62-1.7c-2.37,0-4.42,2-4.42,6.37,0,4.19,1.89,6.18,4.45,6.18a4.52,4.52,0,0,0,3.59-1.86Z"/><path class="a" d="M727.23,715v1.15H719.8V715l2.37-.45c0-1.6.06-3.68.06-5.12v-1.6c0-1.76,0-2.75-.09-4l-2.53-.29V702.4l5-1.95.48.32-.1,4.35v4.32c0,1.41,0,3.52.07,5.12Zm-5.8-20a2.15,2.15,0,0,1,4.29,0,2.15,2.15,0,0,1-4.29,0Z"/><path class="a" d="M734.67,704.58c1.08-2.59,2.88-4.13,4.6-4.13a2,2,0,0,1,2.18,1.57,1.76,1.76,0,0,1-1.92,1.76,2.51,2.51,0,0,1-1.82-.8l-.26-.26A7.72,7.72,0,0,0,734.7,707v2.49c0,1.41,0,3.49.06,5.09l2.63.48v1.15h-7.78V715l2.3-.42c0-1.6.07-3.71.07-5.15v-1.63c0-1.76,0-2.72-.1-4l-2.53-.29V702.4l4.48-1.95.48.32Z"/><path class="a" d="M745.59,708.39c.07,3.93,2.08,6.17,5.18,6.17a5.48,5.48,0,0,0,4.45-2.24l.77.61a6.57,6.57,0,0,1-6.14,3.71c-4.32,0-7.14-3-7.14-7.93s3.36-8.26,7.36-8.26c3.33,0,5.95,2.3,5.95,6.18a6.36,6.36,0,0,1-.22,1.76Zm5.89-1.35c1.53,0,1.89-.73,1.89-1.66a3.49,3.49,0,0,0-3.49-3.46c-1.79,0-3.87,1.41-4.22,5.12Z"/><path class="a" d="M771.9,712.51a5.84,5.84,0,0,1-6,4.13c-4.39,0-7.17-3.1-7.17-8s3.55-8.16,7.39-8.16c2.88,0,5.25,1.79,5.66,4.16a1.36,1.36,0,0,1-1.47,1.22c-1.09,0-1.53-.64-1.76-1.54l-.57-2.11a5.91,5.91,0,0,0-1.73-.26c-2.72,0-4.7,2.27-4.7,6.37s2.11,6.27,5.08,6.27a5.14,5.14,0,0,0,4.45-2.46Z"/><path class="a" d="M783.49,714.82a4.64,4.64,0,0,1-3.77,1.66c-2.24,0-3.65-1.15-3.65-3.65,0-.8,0-1.47,0-2.72v-7.39h-2.65v-1.41l2.84-.35.84-4.35h1.92l-.16,4.42h4.28v1.69h-4.35v9.76c0,1.63.67,2.34,1.76,2.34a3.62,3.62,0,0,0,2.15-.87Z"/><path class="a" d="M787.51,708.39c.06,3.93,2.08,6.17,5.18,6.17a5.48,5.48,0,0,0,4.45-2.24l.77.61a6.57,6.57,0,0,1-6.14,3.71c-4.32,0-7.14-3-7.14-7.93s3.36-8.26,7.36-8.26c3.33,0,6,2.3,6,6.18a6.76,6.76,0,0,1-.22,1.76ZM793.4,707c1.53,0,1.89-.73,1.89-1.66a3.49,3.49,0,0,0-3.49-3.46c-1.79,0-3.87,1.41-4.23,5.12Z"/><path class="a" d="M816.84,715v1.15l-5,.32-.22-2.17a5.24,5.24,0,0,1-4.48,2.33c-3.9,0-6.53-3.26-6.53-7.93,0-4.9,2.91-8.26,6.82-8.26a5.19,5.19,0,0,1,4.19,2.08v-6.82l-2.72-.32v-1.12l5-1.44.45.26-.13,4.54v17Zm-5.28-11a5.45,5.45,0,0,0-3.61-1.7c-2.37,0-4.42,2-4.42,6.37,0,4.19,1.89,6.18,4.45,6.18a4.49,4.49,0,0,0,3.58-1.86Z"/><path class="a" d="M669.22,753.41v1.15H661.8v-1.15l2.34-.42c0-1.6.06-3.68.06-5.15V745c0-2.95-.74-3.88-2.62-3.88-1.54,0-2.82.58-4.52,2.08v4.61c0,1.41,0,3.52.07,5.12l2.21.45v1.15h-7.43v-1.15l2.4-.45c0-1.6.07-3.71.07-5.12V734.12l-2.63-.33v-1.12l4.9-1.43.45.25L657,736v5.79a8.44,8.44,0,0,1,5.85-3c2.76,0,4.1,1.73,4.1,5.92v3.07c0,1.47,0,3.52.06,5.12Z"/><path class="a" d="M679,753.41v1.15h-7.42v-1.15l2.36-.45c0-1.6.07-3.68.07-5.12v-1.6c0-1.76,0-2.75-.1-4l-2.53-.29V740.8l5-1.95.48.32-.09,4.35v4.32c0,1.41,0,3.52.06,5.12Zm-5.79-20a2.14,2.14,0,0,1,4.28,0,2.14,2.14,0,0,1-4.28,0Z"/><path class="a" d="M695.22,741.28h-3.1a5.48,5.48,0,0,1,.7,2.82c0,3.36-2.46,5.25-5.79,5.25a7.86,7.86,0,0,1-2.33-.32,2.82,2.82,0,0,0-.61,1.82c0,1.18.61,1.7,2.56,1.7h3.26c3.52,0,5.15,1.53,5.15,4.12,0,2.79-2.65,5.54-7.9,5.54-4.64,0-6.72-1.6-6.72-3.87,0-1.41.8-2.5,3.2-3.68a3,3,0,0,1-1.95-2.79c0-1.18.57-2.2,2-3.29a4.77,4.77,0,0,1-2.43-4.48c0-3.36,2.47-5.25,5.79-5.25a6.35,6.35,0,0,1,4.16,1.31l3.52-1.21.48.32ZM686,755.07a6.64,6.64,0,0,1-1.7-.19,4.12,4.12,0,0,0-1.28,3c0,2.08,1.7,2.91,4.23,2.91,3.49,0,5.37-1.44,5.37-3.24,0-1.4-.89-2.43-3.2-2.43ZM690.23,744c0-2.27-1.15-3.84-3.13-3.84s-3.24,1.63-3.24,4,1.12,3.94,3.11,3.94S690.23,746.37,690.23,744Z"/><path class="a" d="M714.38,753.41v1.15H707v-1.15l2.34-.42c0-1.6.06-3.68.06-5.15V745c0-2.95-.73-3.88-2.62-3.88-1.54,0-2.81.58-4.51,2.08v4.61c0,1.41,0,3.52.06,5.12l2.21.45v1.15h-7.42v-1.15l2.4-.45c0-1.6.06-3.71.06-5.12V734.12l-2.62-.33v-1.12l4.89-1.43.45.25-.13,4.55v5.79a8.44,8.44,0,0,1,5.86-3c2.75,0,4.09,1.73,4.09,5.92v3.07c0,1.47,0,3.52.07,5.12Z"/><path class="a" d="M718.89,746.79c.07,3.93,2.08,6.17,5.19,6.17a5.51,5.51,0,0,0,4.45-2.24l.76.61a6.57,6.57,0,0,1-6.14,3.71c-4.32,0-7.14-3-7.14-7.93s3.36-8.26,7.36-8.26a5.78,5.78,0,0,1,6,6.18,6.31,6.31,0,0,1-.23,1.76Zm5.89-1.35c1.54,0,1.89-.73,1.89-1.66a3.49,3.49,0,0,0-3.49-3.46c-1.79,0-3.87,1.41-4.22,5.12Z"/><path class="a" d="M737,743c1.09-2.59,2.88-4.13,4.61-4.13a2,2,0,0,1,2.17,1.57,1.76,1.76,0,0,1-1.92,1.76,2.51,2.51,0,0,1-1.82-.8l-.26-.26a7.77,7.77,0,0,0-2.75,4.23v2.49c0,1.41,0,3.49.06,5.09l2.63.48v1.15h-7.78v-1.15l2.31-.42c0-1.6.06-3.71.06-5.15v-1.63c0-1.76,0-2.72-.1-4l-2.52-.29V740.8l4.48-1.95.48.32Z"/><path class="a" d="M743,745.47h7.42v2.12H743Z"/><path class="a" d="M768.29,747c0,5.31-3.62,8.06-7.36,8.06s-7.33-2.75-7.33-8.06,3.65-8.13,7.33-8.13S768.29,741.7,768.29,747Zm-11.65,0c0,4.29,1.54,6.59,4.29,6.59s4.32-2.3,4.32-6.59-1.54-6.69-4.32-6.69S756.64,742.69,756.64,747Z"/><path class="a" d="M775.53,743c1.09-2.59,2.88-4.13,4.61-4.13a2,2,0,0,1,2.17,1.57,1.76,1.76,0,0,1-1.92,1.76,2.51,2.51,0,0,1-1.82-.8l-.26-.26a7.77,7.77,0,0,0-2.75,4.23v2.49c0,1.41,0,3.49.07,5.09l2.62.48v1.15h-7.78v-1.15l2.31-.42c0-1.6.06-3.71.06-5.15v-1.63c0-1.76,0-2.72-.09-4l-2.53-.29V740.8l4.48-1.95.48.32Z"/><path class="a" d="M799.82,753.41v1.15l-5,.32-.23-2.17a5.23,5.23,0,0,1-4.48,2.33c-3.9,0-6.52-3.26-6.52-7.93,0-4.9,2.91-8.26,6.81-8.26a5.17,5.17,0,0,1,4.19,2.08v-6.81l-2.72-.33v-1.12l5-1.43.44.25-.12,4.55v17Zm-5.28-11a5.45,5.45,0,0,0-3.62-1.7c-2.37,0-4.41,2-4.41,6.37,0,4.19,1.88,6.18,4.44,6.18a4.52,4.52,0,0,0,3.59-1.86Z"/><path class="a" d="M804,746.79c.07,3.93,2.08,6.17,5.19,6.17a5.47,5.47,0,0,0,4.44-2.24l.77.61a6.57,6.57,0,0,1-6.14,3.71c-4.32,0-7.14-3-7.14-7.93s3.36-8.26,7.36-8.26c3.33,0,5.95,2.3,5.95,6.18a6.36,6.36,0,0,1-.22,1.76Zm5.89-1.35c1.54,0,1.89-.73,1.89-1.66a3.49,3.49,0,0,0-3.49-3.46c-1.79,0-3.87,1.41-4.22,5.12Z"/><path class="a" d="M822.05,743c1.08-2.59,2.88-4.13,4.61-4.13a2,2,0,0,1,2.17,1.57,1.76,1.76,0,0,1-1.92,1.76,2.51,2.51,0,0,1-1.82-.8l-.26-.26a7.77,7.77,0,0,0-2.75,4.23v2.49c0,1.41,0,3.49.06,5.09l2.63.48v1.15H817v-1.15l2.31-.42c0-1.6.06-3.71.06-5.15v-1.63c0-1.76,0-2.72-.1-4l-2.52-.29V740.8l4.48-1.95.47.32Z"/><path class="a" d="M674.79,791.81V793l-4.44.32-.32-2.85a7.31,7.31,0,0,1-5.67,3c-2.59,0-4.19-1.53-4.16-5.76l.1-8-2.27-.48V778l4.7-.45.32.32-.16,4.48v5c0,2.79.83,3.75,2.56,3.75a6.64,6.64,0,0,0,4.48-2l.1-9.44-2.27-.48V778l4.63-.45.32.32-.09,4.48v9Z"/><path class="a" d="M694.38,791.81V793H687v-1.15l2.37-.45c0-1.57.07-3.65.07-5.12v-2.81c0-2.95-.77-3.88-2.66-3.88a6.64,6.64,0,0,0-4.35,1.92v4.77c0,1.41,0,3.52.06,5.12l2.21.45V793h-7.42v-1.15l2.36-.45c0-1.6.07-3.68.07-5.12v-1.63c0-1.76,0-2.72-.1-4l-2.52-.29V779.2l4.47-2,.49.32.25,2.59a8.27,8.27,0,0,1,5.73-2.91c2.75,0,4.09,1.73,4.09,5.92v3.07c0,1.47,0,3.52.07,5.12Z"/><path class="a" d="M718.8,779.14l-1.72.35-4.68,13.79h-1.18l-4.29-11.1-4.09,11.1h-1.19l-5.15-13.85-1.82-.29v-1.31H702v1.31l-2.49.35,3.29,9.82,3.59-9.82-2.37-.35v-1.31h7.07v1.31l-2.37.38,3.62,9.73,3-9.73-2.37-.38v-1.31h5.85Z"/><path class="a" d="M722.79,785.19c.07,3.93,2.08,6.17,5.19,6.17a5.51,5.51,0,0,0,4.45-2.24l.76.61a6.57,6.57,0,0,1-6.14,3.71c-4.32,0-7.13-3-7.13-7.93s3.35-8.26,7.35-8.26a5.78,5.78,0,0,1,6,6.18,6.31,6.31,0,0,1-.23,1.76Zm5.89-1.35c1.54,0,1.89-.73,1.89-1.66a3.49,3.49,0,0,0-3.49-3.46c-1.79,0-3.87,1.41-4.22,5.12Z"/><path class="a" d="M743.08,791.81V793h-7.43v-1.15l2.37-.45c0-1.6.06-3.68.06-5.12v-1.6c0-1.76,0-2.75-.09-4l-2.53-.29V779.2l5-2,.48.32-.1,4.35v4.32c0,1.41,0,3.52.07,5.12Zm-5.8-20a2.15,2.15,0,0,1,4.29,0,2.15,2.15,0,0,1-4.29,0Z"/><path class="a" d="M759.34,779.68h-3.1a5.58,5.58,0,0,1,.7,2.82c0,3.36-2.46,5.25-5.79,5.25a8,8,0,0,1-2.34-.32,2.87,2.87,0,0,0-.6,1.82c0,1.18.6,1.7,2.55,1.7H754c3.52,0,5.15,1.53,5.15,4.12,0,2.79-2.66,5.54-7.9,5.54-4.64,0-6.72-1.6-6.72-3.87,0-1.41.8-2.5,3.2-3.68a3,3,0,0,1-2-2.79c0-1.18.57-2.2,2-3.29a4.77,4.77,0,0,1-2.43-4.48c0-3.36,2.46-5.25,5.79-5.25a6.35,6.35,0,0,1,4.16,1.31l3.52-1.21.48.32Zm-9.18,13.79a6.64,6.64,0,0,1-1.7-.19,4.08,4.08,0,0,0-1.28,3c0,2.08,1.7,2.91,4.23,2.91,3.48,0,5.37-1.44,5.37-3.23,0-1.41-.9-2.44-3.2-2.44Zm4.19-11.07c0-2.27-1.15-3.84-3.14-3.84s-3.23,1.64-3.23,4,1.12,3.94,3.11,3.94S754.35,784.77,754.35,782.4Z"/><path class="a" d="M778.5,791.81V793h-7.43v-1.15l2.34-.42c0-1.6.06-3.68.06-5.15v-2.81c0-2.95-.73-3.88-2.62-3.88-1.54,0-2.82.58-4.51,2.08v4.61c0,1.41,0,3.52.06,5.12l2.21.45V793h-7.43v-1.15l2.4-.45c0-1.6.07-3.71.07-5.12V772.52L761,772.2v-1.12l4.9-1.44.45.25-.13,4.55v5.79a8.44,8.44,0,0,1,5.85-3c2.76,0,4.1,1.73,4.1,5.92v3.07c0,1.47,0,3.52.07,5.12Z"/><path class="a" d="M789.05,791.62a4.67,4.67,0,0,1-3.78,1.66c-2.24,0-3.65-1.15-3.65-3.65,0-.8,0-1.47,0-2.72v-7.39H779v-1.4l2.85-.36.83-4.35h1.92l-.16,4.42h4.29v1.69h-4.36v9.76c0,1.63.68,2.34,1.76,2.34a3.62,3.62,0,0,0,2.15-.87Z"/><path class="a" d="M793.06,785.19c.07,3.93,2.08,6.17,5.19,6.17a5.47,5.47,0,0,0,4.44-2.24l.77.61a6.57,6.57,0,0,1-6.14,3.71c-4.32,0-7.14-3-7.14-7.93s3.36-8.26,7.36-8.26c3.33,0,6,2.3,6,6.18a6.36,6.36,0,0,1-.22,1.76Zm5.89-1.35c1.54,0,1.89-.73,1.89-1.66a3.49,3.49,0,0,0-3.49-3.46c-1.79,0-3.87,1.41-4.22,5.12Z"/><path class="a" d="M822.4,791.81V793l-5,.32-.23-2.17a5.23,5.23,0,0,1-4.48,2.33c-3.9,0-6.53-3.26-6.53-7.93,0-4.9,2.92-8.26,6.82-8.26a5.17,5.17,0,0,1,4.19,2.08v-6.81l-2.72-.32v-1.12l5-1.44.45.25-.13,4.55v16.95Zm-5.28-11a5.45,5.45,0,0,0-3.62-1.69c-2.37,0-4.41,2-4.41,6.36,0,4.19,1.88,6.18,4.44,6.18a4.52,4.52,0,0,0,3.59-1.86Z"/><path class="a" d="M683.09,830.21v1.15h-7.9v-1.15l2.53-.45c0-1.73.06-3.42.06-5.12v-14a6.39,6.39,0,0,1-3.39-1.56l-.19-.16a5.11,5.11,0,0,0-1.89,1.28c-1.28,1.37-1.7,3.16-1.6,6.08h4.41v1.69h-4.35v6.72c0,1.7,0,3.39.07,5.09l2.84.48v1.15h-8.22v-1.15l2.53-.45c0-1.69.06-3.42.06-5.12v-6.72H665.4v-1.41l2.69-.35c.32-3.49.89-5.47,2.68-7a7.48,7.48,0,0,1,4.87-1.72,5.37,5.37,0,0,1,3.61,1.08l.9-.44.45.25-.13,4.54v11.81c0,1.7,0,3.39.06,5.12Z"/><path class="a" d="M699.22,823.78c0,5.31-3.61,8.06-7.36,8.06s-7.32-2.75-7.32-8.06,3.64-8.13,7.32-8.13S699.22,818.5,699.22,823.78Zm-11.64,0c0,4.29,1.53,6.59,4.28,6.59s4.32-2.3,4.32-6.59-1.53-6.69-4.32-6.69S687.58,819.49,687.58,823.81Z"/><path class="a" d="M724.29,817.54l-1.72.35-4.68,13.79h-1.18l-4.29-11.1-4.09,11.1h-1.19L702,817.83l-1.82-.29v-1.31h7.29v1.31l-2.49.35,3.29,9.82,3.59-9.82-2.37-.35v-1.31h7.07v1.31l-2.37.38,3.62,9.73,3-9.73-2.37-.38v-1.31h5.85Z"/><path class="a" d="M725.1,822.27h7.42v2.12H725.1Z"/><path class="a" d="M739.24,818.11a6.54,6.54,0,0,1,4.93-2.46c3.39,0,6.08,3,6.08,8s-2.85,8.22-6.59,8.22a5.4,5.4,0,0,1-4.42-2.27l-.26,2.11-4.8-.32v-1.15l2.4-.45c0-1.6.07-3.71.07-5.12V810.92l-2.63-.33v-1.12l4.9-1.43.45.25-.13,4.54Zm.1,10.12a5.65,5.65,0,0,0,3.8,1.79c2.28,0,4.23-2,4.23-6.15s-1.67-6.4-4.07-6.4c-1,0-2.24.42-4,1.86Z"/><path class="a" d="M767.43,830a2.66,2.66,0,0,1-2.59,1.66,2.8,2.8,0,0,1-3.07-2.46c-1.76,1.76-2.82,2.62-4.7,2.62-2.34,0-4.29-1.41-4.29-4.06,0-1.83,1-3.3,5.31-4.87a34.15,34.15,0,0,1,3.62-1V821c0-3.1-.9-3.87-3-3.87a6.52,6.52,0,0,0-1.63.19l-.64,2.21c-.29,1-.87,1.54-1.73,1.54a1.43,1.43,0,0,1-1.51-1.38c.61-2.43,3-4,6.24-4s5,1.54,5,5.57v6.91c0,1.31.36,1.89,1.06,1.89a1.69,1.69,0,0,0,1.18-.55l.16-.16Zm-5.72-7c-1.12.32-2.28.71-3,1-2.78,1.09-3.13,2.34-3.13,3.3a2.15,2.15,0,0,0,.64,1.69,2.5,2.5,0,0,0,1.92.74c1,0,1.66-.45,3.52-1.76Z"/><path class="a" d="M776.22,822.5c3.2,1.18,4.38,2.72,4.38,4.73,0,2.4-2.08,4.61-6.21,4.61a9.79,9.79,0,0,1-4.77-1.22l-.12-3.51h1.76l.6,2.75a6.08,6.08,0,0,0,2.59.51c2.44,0,3.62-1,3.62-2.46s-1-2.08-3-2.82l-1.47-.51c-2.33-.87-3.87-2.21-3.87-4.26,0-2.46,2.18-4.67,5.57-4.67a8.31,8.31,0,0,1,4.48,1.31l-.13,3.27H778l-.51-2.56a4.78,4.78,0,0,0-2.2-.55c-2,0-3,.9-3,2.34,0,1.28.77,1.89,2.94,2.69Z"/><path class="a" d="M786,823.59c.07,3.93,2.08,6.17,5.19,6.17a5.47,5.47,0,0,0,4.44-2.24l.77.61a6.57,6.57,0,0,1-6.14,3.71c-4.32,0-7.14-3-7.14-7.93s3.36-8.26,7.36-8.26c3.33,0,5.95,2.3,5.95,6.18a6.36,6.36,0,0,1-.22,1.76Zm5.89-1.35c1.53,0,1.89-.73,1.89-1.66a3.49,3.49,0,0,0-3.49-3.46c-1.79,0-3.87,1.41-4.22,5.12Z"/><path class="a" d="M815.31,830.21v1.15l-5,.32-.22-2.17a5.24,5.24,0,0,1-4.48,2.33c-3.9,0-6.53-3.26-6.53-7.93,0-4.9,2.92-8.26,6.82-8.26a5.17,5.17,0,0,1,4.19,2.08v-6.81l-2.72-.33v-1.12l5-1.43.45.25-.13,4.54v17Zm-5.28-11a5.43,5.43,0,0,0-3.61-1.7c-2.37,0-4.42,2-4.42,6.37,0,4.19,1.89,6.18,4.45,6.18a4.49,4.49,0,0,0,3.58-1.86Z"/><path class="a" d="M700.91,868.61v1.15h-7.43v-1.15l2.37-.45c0-1.57.07-3.65.07-5.12v-2.88c0-3-.84-3.81-2.69-3.81a6.31,6.31,0,0,0-4.29,2c0,.48.06,1,.06,1.6V863c0,1.47,0,3.52.07,5.12l2.24.45v1.15h-7.43v-1.15l2.37-.45c0-1.57.07-3.65.07-5.12v-2.81c0-2.92-.74-3.88-2.63-3.88a6.3,6.3,0,0,0-4.25,1.92V863c0,1.41,0,3.52.06,5.12l2.21.45v1.15h-7.43v-1.15l2.37-.45c0-1.6.07-3.68.07-5.12v-1.63c0-1.76,0-2.72-.1-4l-2.53-.29V856l4.48-2,.48.32.26,2.56a8.06,8.06,0,0,1,5.6-2.88,3.48,3.48,0,0,1,3.77,3,7.63,7.63,0,0,1,5.83-3c2.59,0,4.09,1.63,4.09,5.6V863c0,1.47,0,3.52.07,5.12Z"/><path class="a" d="M718.43,868.61v1.15l-4.44.32-.32-2.85a7.31,7.31,0,0,1-5.67,3c-2.59,0-4.19-1.53-4.16-5.76l.1-8-2.27-.48v-1.15l4.7-.45.32.32-.16,4.48v5c0,2.79.83,3.75,2.56,3.75a6.64,6.64,0,0,0,4.48-2.05l.1-9.44-2.28-.48v-1.15l4.64-.45.32.32-.09,4.48v9Z"/><path class="a" d="M728.57,868.61v1.15h-7.93v-1.15l2.56-.45c0-1.73.06-3.42.06-5.12V849.32l-2.62-.32v-1.13l5-1.43.45.25-.13,4.55V863c0,1.7,0,3.43.06,5.12Z"/><path class="a" d="M739,868.42a4.64,4.64,0,0,1-3.77,1.66c-2.24,0-3.65-1.15-3.65-3.65,0-.8,0-1.47,0-2.72v-7.39H729v-1.4l2.85-.36.83-4.35h1.92l-.16,4.42h4.29v1.69h-4.35v9.76c0,1.63.67,2.34,1.76,2.34a3.62,3.62,0,0,0,2.14-.87Z"/><path class="a" d="M748.31,868.61v1.15h-7.42v-1.15l2.36-.45c0-1.6.07-3.68.07-5.12v-1.6c0-1.76,0-2.75-.1-4l-2.53-.29V856l5-2,.48.32-.09,4.35V863c0,1.41,0,3.52.06,5.12Zm-5.79-20a2,2,0,0,1,2.14-2.05,2,2,0,0,1,2.14,2.05,2.07,2.07,0,0,1-2.14,2A2,2,0,0,1,742.52,848.58Z"/><path class="a" d="M754.6,856.42a6.48,6.48,0,0,1,4.83-2.37c3.42,0,6.11,3,6.11,8s-2.85,8.22-6.59,8.22a5.3,5.3,0,0,1-4.26-2.11v2.53c0,1.69,0,3.42.07,5.15l2.91.48v1.12h-8.22v-1.12l2.56-.45c0-1.76.06-3.45.06-5.18v-9.25c0-1.76,0-2.72-.1-4l-2.52-.29V856l4.47-2,.49.32Zm.19,10.37a5,5,0,0,0,3.52,1.63c2.4,0,4.35-2,4.35-6.15s-1.66-6.4-4-6.4a6.25,6.25,0,0,0-3.87,1.76Z"/><path class="a" d="M775,868.61v1.15h-7.94v-1.15l2.56-.45c0-1.73.06-3.42.06-5.12V849.32l-2.62-.32v-1.13l5-1.43.45.25-.13,4.55V863c0,1.7,0,3.43.07,5.12Z"/><path class="a" d="M779.27,862c.06,3.93,2.08,6.17,5.18,6.17a5.48,5.48,0,0,0,4.45-2.24l.77.61a6.59,6.59,0,0,1-6.15,3.71c-4.32,0-7.13-3-7.13-7.93s3.36-8.26,7.36-8.26c3.33,0,6,2.3,6,6.18a6.76,6.76,0,0,1-.22,1.76Zm5.89-1.35c1.53,0,1.88-.73,1.88-1.66a3.48,3.48,0,0,0-3.48-3.46c-1.8,0-3.88,1.41-4.23,5.12Z"/><path class="a" d="M806.81,868.61v1.15h-7.52v-1.15l2.21-.42-3-4.6-3.33,4.6,2.3.42v1.15h-6.17v-1.15l2-.38,4.45-5.8-4.32-6.2-2-.29v-1.31h6.88v1.31l-1.79.29,2.94,4.41,3.2-4.35-2-.35v-1.31h5.7v1.31l-1.76.32-4.29,5.53,4.45,6.44Z"/><path class="a" d="M685.75,906.82a4.64,4.64,0,0,1-3.77,1.66c-2.24,0-3.65-1.15-3.65-3.65,0-.8,0-1.47,0-2.72v-7.39h-2.65v-1.41l2.84-.35.84-4.35h1.92l-.16,4.42h4.28v1.69h-4.35v9.76c0,1.63.67,2.34,1.76,2.34A3.62,3.62,0,0,0,685,906Z"/><path class="a" d="M689.77,900.39c.06,3.93,2.08,6.17,5.18,6.17a5.48,5.48,0,0,0,4.45-2.24l.77.61a6.58,6.58,0,0,1-6.15,3.71c-4.31,0-7.13-3-7.13-7.93s3.36-8.26,7.36-8.26c3.33,0,6,2.3,6,6.18a6.76,6.76,0,0,1-.22,1.76Zm5.89-1.35c1.53,0,1.89-.73,1.89-1.66a3.49,3.49,0,0,0-3.49-3.46c-1.8,0-3.87,1.41-4.23,5.12Z"/><path class="a" d="M729.33,907v1.15H721.9V907l2.37-.45c0-1.57.07-3.65.07-5.12v-2.88c0-3-.84-3.81-2.69-3.81a6.31,6.31,0,0,0-4.29,2c0,.48.06,1,.06,1.6v3.07c0,1.47,0,3.52.07,5.12l2.24.45v1.15H712.3V907l2.37-.45c0-1.57.07-3.65.07-5.12v-2.81c0-2.92-.74-3.88-2.63-3.88a6.29,6.29,0,0,0-4.25,1.92v4.77c0,1.41,0,3.52.06,5.12l2.21.45v1.15H702.7V907l2.37-.45c0-1.6.07-3.68.07-5.12v-1.63c0-1.76,0-2.72-.1-4l-2.53-.29V894.4l4.48-1.95.48.32.26,2.56a8.06,8.06,0,0,1,5.6-2.88,3.48,3.48,0,0,1,3.77,3,7.63,7.63,0,0,1,5.83-3c2.59,0,4.09,1.63,4.09,5.6v3.39c0,1.47,0,3.52.07,5.12Z"/><path class="a" d="M735.52,894.82a6.48,6.48,0,0,1,4.83-2.37c3.42,0,6.11,3,6.11,8s-2.85,8.22-6.59,8.22a5.3,5.3,0,0,1-4.26-2.11v2.53c0,1.69,0,3.42.07,5.15l2.91.48v1.12h-8.23v-1.12l2.56-.45c0-1.76.07-3.45.07-5.18v-9.25c0-1.76,0-2.72-.1-4l-2.53-.29V894.4l4.48-1.95.48.32Zm.19,10.37a5,5,0,0,0,3.52,1.63c2.4,0,4.35-2,4.35-6.15s-1.66-6.4-4-6.4a6.25,6.25,0,0,0-3.87,1.76Z"/><path class="a" d="M763.89,900.58c0,5.31-3.61,8.06-7.36,8.06s-7.32-2.75-7.32-8.06,3.64-8.13,7.32-8.13S763.89,895.3,763.89,900.58Zm-11.64,0c0,4.29,1.53,6.59,4.28,6.59s4.32-2.3,4.32-6.59-1.53-6.69-4.32-6.69S752.25,896.29,752.25,900.61Z"/><path class="a" d="M771.13,896.58c1.09-2.59,2.88-4.13,4.61-4.13a2,2,0,0,1,2.18,1.57,1.76,1.76,0,0,1-1.92,1.76,2.55,2.55,0,0,1-1.83-.8l-.25-.26a7.72,7.72,0,0,0-2.75,4.23v2.49c0,1.41,0,3.49.06,5.09l2.62.48v1.15h-7.77V907l2.3-.42c0-1.6.07-3.71.07-5.15v-1.63c0-1.76,0-2.72-.1-4l-2.53-.29V894.4l4.48-1.95.48.32Z"/><path class="a" d="M794.22,906.82a2.68,2.68,0,0,1-2.6,1.66,2.8,2.8,0,0,1-3.07-2.46c-1.76,1.76-2.81,2.62-4.7,2.62-2.34,0-4.29-1.41-4.29-4.06,0-1.83,1-3.3,5.31-4.87a34.15,34.15,0,0,1,3.62-1.05v-.87c0-3.1-.9-3.87-3-3.87a6.52,6.52,0,0,0-1.63.19l-.64,2.21c-.29,1-.87,1.54-1.73,1.54a1.42,1.42,0,0,1-1.5-1.38c.61-2.43,3-4,6.24-4s5,1.54,5,5.57v6.91c0,1.31.35,1.89,1.05,1.89a1.74,1.74,0,0,0,1.19-.55l.16-.16Zm-5.73-7c-1.12.32-2.27.71-3,1-2.78,1.09-3.13,2.34-3.13,3.3a2.15,2.15,0,0,0,.64,1.69,2.5,2.5,0,0,0,1.92.74c1,0,1.66-.45,3.52-1.76Z"/><path class="a" d="M803.92,907v1.15H796V907l2.56-.45c0-1.73.07-3.42.07-5.12V887.71l-2.63-.32v-1.12l5-1.44.45.26-.13,4.54v11.81c0,1.7,0,3.43.07,5.12Z"/><path class="a" d="M707.94,945.41v1.15h-7.42v-1.15l2.36-.45c0-1.57.07-3.65.07-5.12V937c0-3-.83-3.81-2.69-3.81a6.32,6.32,0,0,0-4.29,2c0,.48.07,1,.07,1.6v3.07c0,1.47,0,3.52.06,5.12l2.24.45v1.15h-7.42v-1.15l2.37-.45c0-1.57.06-3.65.06-5.12V937c0-2.92-.74-3.88-2.62-3.88a6.31,6.31,0,0,0-4.26,1.92v4.77c0,1.41,0,3.52.06,5.12l2.21.45v1.15h-7.42v-1.15l2.37-.45c0-1.6.06-3.68.06-5.12v-1.63c0-1.76,0-2.72-.1-4l-2.52-.29V932.8l4.48-1.95.48.32.25,2.56a8.08,8.08,0,0,1,5.6-2.88,3.49,3.49,0,0,1,3.78,3,7.59,7.59,0,0,1,5.82-3c2.59,0,4.1,1.63,4.1,5.6v3.39c0,1.47,0,3.52.06,5.12Z"/><path class="a" d="M712.47,938.79c.07,3.93,2.08,6.17,5.19,6.17a5.47,5.47,0,0,0,4.44-2.24l.77.61a6.57,6.57,0,0,1-6.14,3.71c-4.32,0-7.14-3-7.14-7.93s3.36-8.26,7.36-8.26c3.33,0,5.95,2.3,5.95,6.18a6.36,6.36,0,0,1-.22,1.76Zm5.89-1.35c1.54,0,1.89-.73,1.89-1.66a3.49,3.49,0,0,0-3.49-3.46c-1.79,0-3.87,1.41-4.22,5.12Z"/><path class="a" d="M752,945.41v1.15h-7.42v-1.15L747,945c0-1.57.07-3.65.07-5.12V937c0-3-.83-3.81-2.69-3.81a6.32,6.32,0,0,0-4.29,2c0,.48.07,1,.07,1.6v3.07c0,1.47,0,3.52.06,5.12l2.24.45v1.15H735v-1.15l2.36-.45c0-1.57.07-3.65.07-5.12V937c0-2.92-.74-3.88-2.63-3.88a6.3,6.3,0,0,0-4.25,1.92v4.77c0,1.41,0,3.52.06,5.12l2.21.45v1.15h-7.42v-1.15l2.36-.45c0-1.6.07-3.68.07-5.12v-1.63c0-1.76,0-2.72-.1-4l-2.52-.29V932.8l4.47-1.95.48.32.26,2.56a8.08,8.08,0,0,1,5.6-2.88,3.49,3.49,0,0,1,3.78,3,7.59,7.59,0,0,1,5.82-3c2.59,0,4.1,1.63,4.1,5.6v3.39c0,1.47,0,3.52.06,5.12Z"/><path class="a" d="M768.34,939c0,5.31-3.62,8.06-7.36,8.06s-7.33-2.75-7.33-8.06,3.65-8.13,7.33-8.13S768.34,933.7,768.34,939Zm-11.65,0c0,4.29,1.54,6.59,4.29,6.59s4.32-2.3,4.32-6.59-1.54-6.69-4.32-6.69S756.69,934.69,756.69,939Z"/><path class="a" d="M775.58,935c1.09-2.59,2.88-4.13,4.61-4.13a2,2,0,0,1,2.18,1.57,1.76,1.76,0,0,1-1.92,1.76,2.53,2.53,0,0,1-1.83-.8l-.25-.26a7.73,7.73,0,0,0-2.76,4.23v2.49c0,1.41,0,3.49.07,5.09l2.62.48v1.15h-7.77v-1.15l2.3-.42c0-1.6.06-3.71.06-5.15v-1.63c0-1.76,0-2.72-.09-4l-2.53-.29V932.8l4.48-1.95.48.32Z"/><path class="a" d="M799.78,932.74l-1.76.38-4.84,13.35c-2,5.69-3.9,8.06-6.55,8.06-1.57,0-2.92-.86-2.92-2.15a2,2,0,0,1,2.12-1.34,3.2,3.2,0,0,1,2.36,1.19l.16.15a9.81,9.81,0,0,0,2.91-4.54l.13-.38L785.63,933l-1.82-.29v-1.31h7.68v1.34l-2.75.32,3.93,10.66,3.62-10.63-2.78-.38v-1.31h6.27Z"/></svg>