<svg xmlns="http://www.w3.org/2000/svg" width="373.94mm" height="344.77mm" viewBox="0 0 1060 977.3"><defs><style>.a{fill:#daecff;}.b{fill:#d9ecff;}.c{fill:#d8ebff;}.d{fill:#d7ebff;}.e{fill:#d6eaff;}.f{fill:#d5eaff;}.g{fill:#d4e9ff;}.h{fill:#d3e9ff;}.i{fill:#d2e8ff;}.j{fill:#d1e8ff;}.k{fill:#d0e7ff;}.l{fill:#cfe7ff;}.m{fill:#cee6ff;}.n{fill:#cde6ff;}.o{fill:#cce5ff;}.p{fill:#cbe5ff;}.q{fill:#cae4ff;}.r{fill:#c9e4ff;}.s{fill:#c8e3ff;}.t{fill:#c7e3ff;}.u{fill:#c6e2ff;}.v{fill:#c5e2ff;}.w{fill:#c4e1ff;}.x{fill:#c3e1ff;}.y{fill:#c2e0ff;}.z{fill:#c1e0ff;}.aa{fill:#c0dfff;}.ab{fill:#bfdfff;}.ac{fill:#bedeff;}.ad{fill:#bddeff;}.ae{fill:#bcddff;}.af{fill:#bdf;}.ag{fill:#badcff;}.ah{fill:#b9dcff;}.ai{fill:#b8dbff;}.aj{fill:#b7dbff;}.ak{fill:#b6daff;}.al{fill:#b5daff;}.am{fill:#b4d9ff;}.an{fill:#b3d9ff;}.ao{fill:#b2d8ff;}.ap{fill:#b1d8ff;}.aq{fill:#b0d7ff;}.ar{fill:#afd7ff;}.as{fill:#add6ff;}.at{fill:#acd5ff;}.au{fill:#a8d3ff;}.av{fill:#a7d3ff;}.aw{fill:#a6d2ff;}.ax{fill:#a3d1ff;}.ay{fill:#a2d0ff;}.az{fill:#a1d0ff;}.ba{fill:#a0cfff;}.bb{fill:#9fcfff;}.bc{fill:#9dceff;}.bd{fill:#9bcdff;}.be{fill:#9cf;}.bf{fill:#98cbfe;}.bg{fill:#97cafd;}.bh{fill:#95c9fc;}.bi{fill:#95c8fb;}.bj{fill:#94c8fb;}.bk{fill:#93c7fa;}.bl{fill:#92c6f9;}.bm{fill:#91c5f8;}.bn{fill:#90c4f7;}.bo{fill:#8cc0f3;}.bp{fill:#8abef1;}.bq{fill:#89bef1;}.br{fill:#87bcef;}.bs{fill:#83b8eb;}.bt{fill:#81b7ea;}.bu{fill:#7db3e6;}.bv{fill:#75acdf;}.bw{fill:#1f6093;}.bx{fill:#024679;}.by{fill:#aed6ff;}.bz{fill:#6ea6d9;}.ca{fill:#6da4d7;}.cb{fill:#85baed;}.cc{fill:#8bbff2;}.cd{fill:#4682b5;}.ce{fill:#3e7bae;}.cf{fill:#a9d4ff;}.cg{fill:#dc7600;}.ch{fill:#811b00;}.ci{fill:#e07a00;}.cj{fill:#450000;}.ck{fill:#fd9700;}.cl{fill:#cb6500;}.cm{fill:#ffa723;}.cn{fill:#9e3800;}.co{fill:#ffbb56;}.cp{fill:#f69000;}.cq{fill:#ffb547;}.cr{fill:#de7800;}.cs{fill:#ffba53;}.ct{fill:#fc9600;}.cu{fill:#ffb84e;}.cv{fill:#f58f00;}.cw{fill:#ffb950;}.cx{fill:#fe9800;}.cy{fill:#ffcb7e;}.cz{fill:#ffb74b;}.da{fill:#ffd08a;}.db{fill:#ffc267;}.dc{fill:#ffd494;}.dd{fill:#ffd392;}.de{fill:#ffc369;}.df{fill:#ffc774;}.dg{fill:#eb8500;}.dh{fill:#ffc56f;}.di{fill:#ffad33;}.dj{fill:#ffcf87;}.dk{fill:#ffd18d;}.dl{fill:#ffc978;}.dm{fill:#ffd9a0;}.dn{fill:#ffc773;}.do{fill:#ffdba6;}.dp{fill:#ffd79c;}.dq{fill:#ff9e0d;}.dr{fill:#ffb341;}.ds{fill:#ffd89e;}.dt{fill:#ffb546;}.du{fill:#ffd28f;}.dv{fill:#ea8400;}.dw{fill:#ffdfaf;}.dx{fill:#ffc36a;}.dy{fill:#ffebcd;}.dz{fill:#ffbf60;}.ea{fill:#ffe2b7;}.eb{fill:#ffe1b5;}.ec{fill:#ffd18c;}.ed{fill:#ffd597;}.ee{fill:#ffe1b4;}.ef{fill:#ffce85;}.eg{fill:#ffddab;}.eh{fill:#fda;}.ei{fill:#ffd79b;}.ej{fill:#ffe4bc;}.ek{fill:#ffcf88;}.el{fill:#ffbf5f;}.em{fill:#ffe0b2;}.en{fill:#ffd9a1;}.eo{fill:#ffeacb;}.ep{fill:#ffe3b9;}.eq{fill:#ffe5be;}.er{fill:#ffca7b;}.es{fill:#ffdba5;}.et{fill:#ffe9c8;}.eu{fill:#ffe6c1;}.ev{fill:#ffe9c9;}.ew{fill:#ffdfb0;}.ex{fill:#ffeed5;}.ey{fill:#ffe3ba;}.ez,.fa,.fb,.fc,.fd,.fe,.ff,.fg,.fh,.fi,.fj,.fk{isolation:isolate;}.ez{font-size:16.25px;}.ez,.fa,.fb,.fc,.fd,.fe,.fg,.fh,.fi,.fj,.fk{fill:#3c3c3c;font-family:ArialMT, Arial;}.fa{font-size:17.5px;}.fb{font-size:13.75px;}.fc{font-size:15px;}.fd{font-size:12.5px;}.fe,.fg,.fh,.fi,.fj,.fk{font-size:11.25px;}.fg{letter-spacing:-0.06em;}.fh{letter-spacing:-0.13em;}.fi{letter-spacing:-0.06em;}.fj{letter-spacing:-0.06em;}.fk{letter-spacing:-0.02em;}</style></defs><title>science2004transparentbkg</title><path class="a" d="M287.76,259.09q25.61-31.15,44.13-51.91l1.78,1.73,6.51-11.11-11,6.75L331,206.3q-19.06,20.4-44.24,52"/><path class="a" d="M109.14,555.59q62,128.68,113.46,248.5l-2.31,1L228,815.38l-1.91-12.73-2.31,1Q173.13,683.25,110.25,555"/><path class="a" d="M133.89,466.21q-9.31,42.27-18.49,71.68l-2.35-.85-1.31,12.81,7.19-10.69-2.35-.85q9.93-29.28,18.53-71.87"/><path class="a" d="M648.39,730.84l35.7-11.24-.38-1.19L648,729.64a328,328,0,0,1-94.36,12.72l.09-2.5-12.63,3.3,12.5.45a280.54,280.54,0,0,0,94.78-12.77"/><path class="a" d="M358.14,508.46Q640.52,539.31,912,541.71v2.5l12.55-2.92L912.07,538v2.5q-271.32-3.56-553.75-33.25"/><path class="b" d="M286.64,259q68,155.91,105.05,309l-2.44.56,5.84,11.5.26-12.88-2.44.55Q357.15,414,287.79,258.44"/><path class="b" d="M648.51,443.34l-9.45-16.4-1.08.62,9.45,16.4a1002.89,1002.89,0,0,1,60.21,128.5l-2.35.87,7.86,10.43L708.81,572a836.38,836.38,0,0,0-60.25-128.6"/><path class="b" d="M638.64,426.46q-109.14,87.95-218.88,153l-1.24-2.17-9.3,8.93,12.42-3.51-1.25-2.16q110.55-64.12,219.12-153.13"/><path class="b" d="M567.39,895.84l9.55,14.47,1-.68-9.55-14.48A2671.57,2671.57,0,0,1,410.06,615l2.27-1.08-8.79-9.66,5.4,11.28a2337.52,2337.52,0,0,0,158.5,280.25"/><path class="b" d="M329,185l14.13,9.64.71-1L329.7,184q-12.94-9.63-25.2-20.18l1.7-1.83-11.71-5.8,9.15,8.54A213.14,213.14,0,0,0,329,185"/><path class="b" d="M801.51,725.71q-46.83-.33-81.1-2.74l.28-2.48-12.79,1.74,12.1,4.49.27-2.5q34.28,3.18,81.27,2.74"/><path class="b" d="M603.39,323.71Q617.63,373.14,632,409.3l-2.36.85,7.22,10.7L635.49,408l-2.36.85q-13.85-36.3-28.54-85.52"/><path class="c" d="M33.23,464.09,10,464.65v1.26l23.22-.62q42.5-.37,85,1.35l-.13,2.5,12.72-3.05-12.51-.72Q75.64,462.94,33.13,464"/><path class="c" d="M8.93,487.71,10,464.61l-1.26-.06-1.09,23.1A504.51,504.51,0,0,0,8.88,569l-2.52.18,4.73,12.21-1-12.5a654.17,654.17,0,0,1-1.2-81.16"/><path class="c" d="M218,805.84l17.57,28,1.06-.67-17.55-28Q119.72,645,22.71,483.3l2.17-1.3-9.65-8.85,6.4,10.78Q118,646,218.13,805.69"/><path class="c" d="M693.51,683.34l-9.46,36.24,1.22.32,9.45-36.24a778.13,778.13,0,0,0,17.92-81l2.46.45-1.46-13-2.25,12.34q-7.42,40.77-17.88,80.86"/><path class="d" d="M795.76,394l5.8-19.94-1.21-.35-5.8,19.94a1010,1010,0,0,1-73.72,178.63l-2.2-1.2-2.7,12.82,6-11A892.53,892.53,0,0,0,795.76,394"/><path class="d" d="M414.14,612.34l-16.21-19.72-1,.8,16.2,19.72A2409,2409,0,0,0,649.4,865.26l-1.72,1.84,11.73,5.84-9.15-8.59a2665.78,2665.78,0,0,1-236.12-252"/><path class="d" d="M174.51,511.34l12.41,12.83.92-.87-12.42-12.84q-14.92-16.14-29.53-32.56l1.92-1.64-11-7.11,8.12,9.56q14.28,16.8,29.59,32.63"/><path class="d" d="M388.26,709.09l-12.5-13.38-.92.86L387.29,710a124.75,124.75,0,0,0,37.17,29.45l-1.25,2.19L436,744.53l-10.91-6.22a154.68,154.68,0,0,1-36.88-29.21"/><path class="d" d="M595.64,308.21l8.41,15.36,1.11-.61-8.4-15.36A2460.77,2460.77,0,0,1,466,22.22l2.37-.88L460.43,10.9l4.4,11.76a2189.54,2189.54,0,0,0,130.75,285.5"/><path class="d" d="M708.76,572l5.5,14.9,1.19-.44-5.5-14.9a721.1,721.1,0,0,0-60.39-128.87l2.19-1.25-9.56-9,6.27,10.89A839.16,839.16,0,0,1,708.76,572"/><path class="d" d="M282.14,75q57.21-8.37,101.95-15l.31,2.5,12.08-4.66-12.85-1.6.31,2.5q-44.85,6.13-102,15"/><path class="d" d="M935.89,541Q786.82,494.7,656.39,434.5l1.08-2.27-12.68-2.57,10,8.25,1.09-2.26q130,61.39,279.75,106.5"/><path class="e" d="M682.89,168.21q-26.52.58-40.51.73l.2-2.5-12.78,2.12,12.28,4.17.2-2.52q14.06.51,40.71-.72"/><path class="e" d="M408.89,615.59l-11-23-1.15.55,11,23a2113.94,2113.94,0,0,0,158.5,280.37l-2.1,1.39,10.09,8.4-6.93-10.49A2336.65,2336.65,0,0,1,408.8,615.69"/><path class="e" d="M287.26,259.34q158.26-29.61,297.25-81.5l.85,2.37L596.14,173l-12.9,1.27.85,2.38Q444.82,227.3,287,258.09"/><path class="e" d="M145,478.71l-10.5-12.35-1,.83L144,479.54a402.34,402.34,0,0,0,29.64,32.69L171.88,514l11.47,6.41-8.75-9q-15.32-15.84-29.6-32.65"/><path class="e" d="M650.26,864.46l11.85,11.12.88-.93-11.85-11.13a3036.54,3036.54,0,0,1-236-252l1.95-1.6-10.93-7.31,8,9.73a2669.63,2669.63,0,0,0,236.13,252"/><path class="f" d="M702.14,597.21l12.17-10.31-.82-1-12.18,10.31q-78.22,65.35-152.75,135l-1.71-1.85-6.69,11.32,9.26-8.54q74.91-69,152.63-134.87"/><path class="f" d="M231.26,800.71l4.44,33.09,1.26-.18-4.42-33.08q-16.66-130.15-41-259.13L194,541l-6-11.7,2.27,12.39q23.63,129,41,259"/><path class="f" d="M549.39,732.09l-11.9,11,.86.94,11.9-11q75.32-68.55,152.63-134.88l1.63,1.92,7.15-11-9.61,8.13Q624.28,663,549.42,732.05"/><path class="f" d="M458.26,5.08Q374.64,42.55,299.89,67.92l-.76-2.41-11.05,6.83,13-.79-.76-2.41Q375.46,44.63,458.65,6.22"/><path class="f" d="M11,586.59Q117.28,702.27,213.61,809.84l-1.9,1.67,10.7,7.37-5.94-11.57-1.9,1.68q-96-107.82-202.75-223.13"/><path class="f" d="M278.51,546.71q1.39,33.43,2.7,54.28h-2.53l3.32,12.6L285,601h-2.54q-.81-20.91-2.7-54.37"/><path class="g" d="M207.89,851.59l27.71-17.74-.69-1.07L207.2,850.51Q186.31,863.29,166.71,878l-1.47-2.07-8,10.47,10.22-7.4q19.85-14.26,40.43-27.43"/><path class="g" d="M459.14,418.84q64.3-123.19,136.5-227l2.06,1.47,4.75-12.1-9.91,8.4,2.05,1.48Q521.42,294.37,458,418.34"/><path class="g" d="M457.89,418.46q-18.13,84.33-49.15,151l-2.26-1.12-2.78,12.71,8.46-9.89L409.89,570q32.26-66.43,49.25-151.38"/><path class="g" d="M552.51,363.71Q484.43,476.56,413.14,572l-2-1.55L406,582.35l10.22-8.05-2-1.55q72.28-94.87,139.5-208.37"/><path class="g" d="M237.39,800.84l-1.74,33,1.29.06,1.74-33a3927.88,3927.88,0,0,0,.81-442.5l2.53-.12-4.43-12.42.61,12.6a4365.7,4365.7,0,0,1-.81,442.5"/><path class="g" d="M439.76,747.34q111.89,2.05,208.5-19.77l.51,2.48,11.73-5.66-13-.57.51,2.49Q551.3,746.86,439.75,746"/><path class="g" d="M721.89,572.84l-7.63,14,1.14.61,7.63-14a801.35,801.35,0,0,0,74-179.12l2.44.69-.15-13.18L795.71,394a890.92,890.92,0,0,1-73.82,178.88"/><path class="h" d="M275.76,246.21l11.42,12.51.95-.87-11.42-12.51Q213.34,175,146.09,108.46l1.78-1.79-11.62-6.23,8.91,8.93q66.83,67,130.63,136.88"/><path class="h" d="M653.76,741.21l30.32-21.66-.75-1L653,740.16Q490.64,854.54,317.76,952.66l-1.23-2.22L307.36,960l11-6.16A3560,3560,0,0,0,653.78,741.16"/><path class="h" d="M132.76,97.34Q64,273.22,15.79,442.71L13.35,442l-.51,13,6.62-11.22L17,443.09Q66.19,274.15,134,97.84"/><path class="h" d="M236.89,341.21q210,186.65,418.5,355.63l-1.62,2,11.8,5.55-7.75-10.47-1.61,2q-207.75-169.5-418.37-355.5"/><path class="h" d="M441.39,163.46l14.16-14.79-.94-.9-14.16,14.79A1657.63,1657.63,0,0,1,250.83,329.19l-1.52-2-7.9,10.59,10.18-7.5A1477,1477,0,0,0,441.46,163.49"/><path class="h" d="M276,92.34l6-18.11-1.23-.4-6,18.11a3015.14,3015.14,0,0,0-87.6,316.5l-2.49-.55,1,13.17,2.79-12.34Q224.67,248.45,276,92.35"/><path class="h" d="M648.64,708.59l35.42,11,.39-1.24-35.43-11a2415.15,2415.15,0,0,0-346.25-83.21l.44-2.5-13.11,1.65,12.46,2.12a2676.73,2676.73,0,0,1,346,83.18"/><path class="h" d="M263.14,78.21,282,74.3l-.24-1.3-18.89,4Q206.73,87.79,149.94,94.51L149.66,92l-12.17,5.14,12.57-1.33q57-6,113.08-17.59"/><path class="h" d="M425.14,738.34l14.74,8.4.63-1.13-14.72-8.4a210.13,210.13,0,0,1-36.63-29l1.87-1.74-11.43-6.63,8.61,9.26a154.68,154.68,0,0,0,36.88,29.21"/><path class="h" d="M188.51,408.71l-4.1,18.14,1.26.29,4.1-18.14Q227,249.07,277.31,92.75l2.43.79.3-13.23-4,12Q224.7,248.4,188.47,408.68"/><path class="h" d="M785.76,72.46l22.53,2.89.16-1.29-22.52-2.89a2548.63,2548.63,0,0,1-309.38-62l.68-2.46L464,7.11l12.21,3.35a2253.53,2253.53,0,0,0,309.63,62"/><path class="h" d="M651.39,737l32.69-17.31-.62-1.15-32.68,17.31q-200.25,104.25-409,191l-1-2.36-10.27,8.35L242.26,928q209.25-85.5,409.13-191.25"/><path class="h" d="M145.26,109.34,133.44,97.49l-.93.92,11.84,11.85Q210.67,177.63,274.85,247L273,248.74l11.39,6.76-8.54-9.36Q212.1,176.26,145.23,109.26"/><path class="i" d="M262.26,813.71,235.7,833.85l.79,1,26.56-20.14q270-203.06,523.62-426l1.68,1.93,7-11.24-9.57,8.34q-254.43,222-523.5,426"/><path class="i" d="M699.26,98.21l-17.66,2.44.18,1.3,17.66-2.44a590.52,590.52,0,0,0,87.29-17.25l.63,2.48,11.32-6.91L786.4,81a763.86,763.86,0,0,1-87.14,17.21"/><path class="i" d="M32,472.34l-22-7.73-.43,1.24,22,7.71q68.47,24.56,137.87,46.3l-.77,2.44,13.25.2-12.08-3.87Q100.68,496.51,32,472.38"/><path class="i" d="M183.76,506.34,187,524.2l1.29-.24L185,506.11a250.6,250.6,0,0,1-1.64-60.51l2.53.33-2.24-13.08-1.59,12.59a198.42,198.42,0,0,0,1.65,60.9"/><path class="i" d="M303.76,164.71l-11.7-10.92-.88,1,11.7,10.93a140.2,140.2,0,0,0,25.51,20.42l-1.45,2.11,12.66,4L329.13,185a212.57,212.57,0,0,1-25.37-20.31"/><path class="j" d="M180.14,408.34l4.3,18.52,1.27-.3L181.41,408A2242.62,2242.62,0,0,1,136,114.16l2.55-.2L133.7,101.6l1,12.66a1987.71,1987.71,0,0,0,45.39,294.13"/><path class="j" d="M657.89,693.09l26.22,26.5.94-.93-26.22-26.5A1761.19,1761.19,0,0,0,523.58,566.54l1.65-1.95-12.18-5.3,9.66,8.25Q593,627.45,658,693"/><path class="j" d="M510.26,557Q389,697.21,259.89,812l-1.68-2-7.48,10.77,11.71-5.9L260.75,813Q390.88,699.2,511.25,557.88"/><path class="j" d="M221,349.21l16.33-8.49-.62-1.16L220.41,348Q123.29,397.73,29,452.16l-1.27-2.23-9.12,9.66,11-6.29q94.62-53.93,191.25-104.14"/><path class="k" d="M401,618.46l-3-25.77-1.31.15,3.06,25.79a332.1,332.1,0,0,0,31.79,113.09l-2.34,1.07,8.84,10-5.3-11.58A373,373,0,0,1,401,618.59"/><path class="k" d="M802,726.84q75.53-79.5,122.33-164.25l2.22,1.29,3.58-12.64-9.18,9.4,2.23,1.29q-47.73,83.93-122.15,164"/><path class="k" d="M261.51,812.34,235.63,833.8l.85,1,25.87-21.46A2436,2436,0,0,0,628,442.61l2,1.61,5-12.36-8,9.91A2593.52,2593.52,0,0,1,261.45,812.4"/><path class="l" d="M186.51,524.59q46.28,44.25,81.15,81.83l-1.93,1.7,10.84,7.46-6-11.73-1.94,1.7q-34.37-38.19-81.25-81.94"/><path class="l" d="M713.89,586.21Q488.32,714.66,265.14,819.59l-1.08-2.34-10.23,8.28,12.95-2.39-1.08-2.34q223.88-103.87,449-233.25"/><path class="l" d="M607,137.21l5.5,30,1.32-.24-5.51-30q-2.25-15.85-3.65-31.8l2.58-.11-4.51-12.57.6,12.75a242.08,242.08,0,0,0,3.67,32"/><path class="m" d="M497.51,658,484.2,669l.85,1,13.31-11a3099.58,3099.58,0,0,0,289.5-268.88l1.86,1.79,6-11.93-8.85,9.22A3403.8,3403.8,0,0,1,497.4,657.94"/><path class="m" d="M476.14,10.49,458.47,5.65l-.35,1.29,17.67,4.83a2027.54,2027.54,0,0,0,309.75,62l-.34,2.57,13.17-2.26L785.7,72.45A2239.13,2239.13,0,0,1,476.2,10.6"/><path class="n" d="M281.51,74.71Q504.83,369.28,667,687.09l-2.32,1.16,8.65,10-2.83-12.9-2.31,1.17Q507.71,367.55,282.7,73.86"/><path class="n" d="M484.51,668.46q-45.18-25.87-70.44-55.75l2.07-1.57L405.75,603,411,615.1l2.06-1.58q24.58,31,70.88,56.14"/><path class="n" d="M464.89,22.7l-6.38-17-1.26.48,6.39,17A1988.94,1988.94,0,0,0,594.39,308.92l-2.28,1.24,9.6,9.35-6.15-11.23A2205,2205,0,0,1,464.81,22.65"/><path class="n" d="M280,93.59l2-19.26-1.34-.14-2,19.26A491.5,491.5,0,0,0,283.1,242.2l-2.56.43,6,12L284.42,242A550.58,550.58,0,0,1,280,93.6"/><path class="n" d="M281.89,75q158.46,38.49,301.75,83.51l-.8,2.47,13.2.87-11.18-7.09-.8,2.47Q440.63,111.07,281.94,73.56"/><path class="o" d="M636.39,185.84l-23.9-18.69-.84,1.06,23.9,18.69,36.73,28.71-1.61,2,12.54,4.79-10.11-7.9-36.71-28.71"/><path class="o" d="M398.39,58.14q100.28,48.8,187.37,95.08l-1.25,2.28,12.84,3.31-9.67-9.06L586.41,152q-86.83-47-187.5-95.13"/><path class="o" d="M729.51,839.59q-237,7.49-461-4.42l.17-2.6-13,2.48,12.63,4.07.16-2.6q224.05,13.15,461.12,4.42"/><path class="o" d="M811.64,775.71l-9,13.56,1.13.75,9-13.56A1216.53,1216.53,0,0,0,927.44,564.09l2.4,1,1.43-13.36-5.08,11.8A1354.62,1354.62,0,0,1,811.64,775.67"/><path class="o" d="M786.39,81l21.89-5.66L807.94,74,786,79.65Q742.85,90,699,96.84l-.36-2.59-12.19,5.69,12.74-1.77A765.17,765.17,0,0,0,786.39,81"/><path class="o" d="M645.51,875l16.61.62v-1.37l-16.61-.61a3654,3654,0,0,1-377.25-36l.4-2.57-13.32,2,12.71,2A3247.46,3247.46,0,0,0,645.6,875"/><path class="o" d="M582.26,173l30.3-5.81-.26-1.34L582,171.62A1366.94,1366.94,0,0,1,360.5,193.2v-2.6l-12.84,4,12.87-.06A1206.27,1206.27,0,0,0,582.27,173"/><path class="o" d="M646.64,719.59h37.49v-1.37H646.64a1776.1,1776.1,0,0,1-252.38-20.8l.43-2.57-13.35,1.83,12.7,2.08a1562.82,1562.82,0,0,0,252.62,20.83"/><path class="p" d="M182,445.34l2.34-18.49-1.35-.18-2.35,18.49a165.81,165.81,0,0,0,1.66,61.33l-2.56.46L186,519l-2.3-12.67a198.11,198.11,0,0,1-1.65-60.9"/><path class="p" d="M730,839.84c-18.75-30.13-31.5-58.25-38-84.25l2.56-.52-5.76-12-.7,13.27,2.56-.51q8.67,39.7,38.31,84.82"/><path class="p" d="M251.51,330.34l-14.2,10.46.82,1.1,14.2-10.46a1321.58,1321.58,0,0,0,190-167l1.88,1.8,6-12.06-8.91,9.31A1464.23,1464.23,0,0,1,251.46,330.24"/><path class="p" d="M150,95.71l-16.66,1.75.14,1.37,16.67-1.76a903.23,903.23,0,0,0,113.2-17.61l.53,2.57,11.81-6.52-12.61,2.62Q207,89.73,150,95.71"/><path class="p" d="M820.76,501.71l1.82,16.48,1.36-.15-1.81-16.48q-5.29-53.88-15.54-107l2.59-.46-6.23-12,2.29,12.69q9.6,53.22,15.52,107"/><path class="q" d="M581.14,162.46l31.35,4.63.2-1.37-31.35-4.62Q528.94,152.71,476,149l.23-2.62L463,149.3l12.85,1.07q52.82,4.4,105.24,12.11"/><path class="q" d="M684,757V719.6h-1.37V757A378.42,378.42,0,0,1,666,859.33l-2.48-.83-.27,13.5,4.06-12.24A324.23,324.23,0,0,0,684,757"/><path class="q" d="M805.26,394.71,801.54,374l-1.35.25L803.91,395q8.94,53.25,15.51,106.87l-2.61.28,5.39,12.38-1.38-12.75q-6-53.82-15.5-107"/><path class="q" d="M631,191.21,612.53,167.1l-1.09.84,18.49,24.11A1144.79,1144.79,0,0,0,785.05,360.8l-1.76,1.94,12.22,5.72L786,359.77a1268,1268,0,0,1-155-168.5"/><path class="q" d="M289.89,137.21,292,153.73l1.36-.18L291.25,137q-2.76-21.93-5.51-43.83l2.6-.32-5.58-12.31,1.61,12.81,5.52,43.82"/><path class="q" d="M713.26,743.46l-29.12-23.9-.88,1.06,29.14,23.9a200.1,200.1,0,0,0,74.56,41l-.82,2.48,13.52.25-12.26-4a229.51,229.51,0,0,1-74.14-40.72"/><path class="r" d="M167.51,879l-12.11,8.7.81,1.13,12.1-8.7q20.1-13.82,40.38-27.4l1.41,2.21,8.72-10.34-10.88,7q-20.58,13.1-40.43,27.4"/><path class="r" d="M268.14,838.84l-32.45-5-.21,1.36,32.45,5a2921.75,2921.75,0,0,0,377.62,36.07l-.1,2.63,13.08-3.54-12.93-.47a3260.08,3260.08,0,0,1-377.5-36.13"/><path class="r" d="M337.14,517.59,358.2,508l-.57-1.26-21.07,9.63q-21.78,9.42-42.53,20.94L292.8,535l-9.56,9.6,11.44-6q20.94-11.07,42.46-20.9"/><path class="r" d="M570.51,350.21,553,364.11l.86,1.09,17.5-13.9L591,335.67l1.64,2.07,7.63-11.2-10.13,8q-9.82,7.81-19.68,15.62"/><path class="s" d="M284.39,241.84l2.8,16.85,1.37-.23-2.8-16.85a626,626,0,0,1-4.4-148l2.63.28-2.67-13.31L280,93.46a550.43,550.43,0,0,0,4.42,148.38"/><path class="t" d="M926.26,563.59l9.49-22-1.29-.55L925,563A1538,1538,0,0,1,810.54,775l-2.22-1.46-3.77,13.08,7.16-10.84a1355.5,1355.5,0,0,0,114.55-212.1"/><path class="t" d="M437,139.59l18.5,9.12.63-1.26-18.52-9.11A1155,1155,0,0,0,300.75,79.65l.92-2.49-13.6-.67L300.27,81A1404.62,1404.62,0,0,1,437,139.59"/><path class="u" d="M780.39,371.21,801.54,374l.19-1.4-21.15-2.77A764.58,764.58,0,0,1,621,328.69l1-2.46-13.6-1,12,4.77a675.16,675.16,0,0,0,159.87,41.2"/><path class="u" d="M787,389.09,801.49,374l-1-1L786,388.11A3821.07,3821.07,0,0,1,496.63,657l-1.7-2-7.43,11.42,10-8.28a3404.2,3404.2,0,0,0,289.5-269"/><path class="u" d="M432.64,731.09l7.13,15.57,1.29-.58-7.13-15.58a431.27,431.27,0,0,1-31.57-112.29l2.64-.31-5.58-12.45L401,618.37a374.8,374.8,0,0,0,31.68,112.72"/><path class="u" d="M661.89,750.09l22.21-30.5-1.14-.84-22.22,30.51A1511.72,1511.72,0,0,1,507.49,925l-1.84-1.91-6.56,12,9.37-9A1333.37,1333.37,0,0,0,662,750"/><path class="v" d="M242.26,928.21l-14.54,5.94.54,1.31,14.54-5.94A4090.21,4090.21,0,0,0,652.05,738.15l1.24,2.35,9.61-9.7-11.51,6.1Q451.52,842.83,242.26,928.27"/><path class="v" d="M673.14,214.59,685,223.87l.87-1.11L674,213.46c-12.25-9.62-24.5-19.12-36.75-28.75l1.64-2.1L626.1,177.8l10.28,8,36.71,28.71"/><path class="v" d="M300.26,81l-18.21-6.68-.49,1.33,18.21,6.69Q369.3,108.8,436.4,140.9l-1.17,2.4,13.49,2.1L437,139.74A1391.38,1391.38,0,0,0,300.23,81.11"/><path class="v" d="M708.76,690.09l-24.63,29.49,1.08.91L709.85,691A818.63,818.63,0,0,0,816,533.5l2.35,1.26,2.54-13.44-6.15,11.52a926,926,0,0,1-106,157.25"/><path class="w" d="M666.76,112.59l14.87-12-.9-1.12-14.87,12a210.44,210.44,0,0,0-34.06,32.17l-2-1.8-5.7,12.46,8.75-9.7a295.69,295.69,0,0,1,33.91-32"/><path class="w" d="M134.76,114.34l-1.31-16.77-1.43.12,1.32,16.76A1787,1787,0,0,0,178.76,408.7l-2.6.6,6.94,11.8-2.95-12.72a1963.51,1963.51,0,0,1-45.5-294"/><path class="w" d="M169.76,531.09l17.14-6.93-.54-1.32-17.13,6.91L126.64,547l-1-2.49-10.59,8.72,12.13-4.9,42.58-17.19"/><path class="w" d="M21.54,484,10,464.59l-1.24.73L20.31,484.7q95.85,162.39,196.5,321.75l-2.27,1.43L225,816.79l-7-11.1Q117.91,646.32,21.53,484.06"/><path class="w" d="M786,359.84,801.56,374l1-1.06L787,358.77a1441.79,1441.79,0,0,1-154.9-168.5l2.14-1.62L623,180.76l8,10.39A1283.38,1283.38,0,0,0,786,359.77"/><path class="w" d="M238.14,358.34l-.87-17.6-1.43.07.86,17.6q9.57,221.25-.81,442.25l-2.68-.13,3.43,13.28.69-13.07a4365.7,4365.7,0,0,0,.81-442.5"/><path class="w" d="M10.13,569l1.32,17.24,1.44-.11-1.33-17.24q-2.33-40.5-1.2-81l2.69.13L9.54,474.69l-.61,13.1A655,655,0,0,0,10.13,569"/><path class="x" d="M268.89,832.71l-33.23,1.19.05,1.45,33.23-1.19q259.88-8,517.75-41.36l.34,2.67,12.52-5.73-13,1.62q-258,32.07-517.62,41.38"/><path class="y" d="M284.39,93.46,282,74.3l-1.44.19L283,93.64q2.76,21.92,5.51,43.83l-2.68.34,5.77,12.53-1.64-13.05q-2.76-21.93-5.51-43.83"/><path class="y" d="M302.64,625.34,282,621.84l-.25,1.44,20.62,3.52a3003,3003,0,0,1,345.87,83.13l-.8,2.57h13.79l-12.55-3.91a2680.92,2680.92,0,0,0-346.13-83.25"/><path class="y" d="M657.26,746l26.85-26.37-1-1L656.26,745a2656.16,2656.16,0,0,1-240,205.76l-1.62-2.17-8.06,11.19,10.54-7.86A2341.46,2341.46,0,0,0,657.35,746"/><path class="y" d="M33.18,458.59,10,464.6l.37,1.41,23.17-6q65.69-16.27,132.25-28.47l.46,2.66,12.26-6.33-13,2.23Q98.72,441.56,33.13,458.6"/><path class="z" d="M603.39,105.21l-.7-14.86-1.47.07.7,14.87a152,152,0,0,0,3.69,32.16l-2.66.49,6.49,12.21-2.38-13a242.08,242.08,0,0,1-3.67-32"/><path class="z" d="M620.51,330.09,604,323.61l-.53,1.38L620,331.46a603.83,603.83,0,0,0,160.26,41.28l-.36,2.68L793.5,373l-13.09-1.71a676.25,676.25,0,0,1-159.87-41.2"/><path class="z" d="M461.39,24.45l-2.93-18.8L457,5.87l2.91,18.81A343.83,343.83,0,0,1,458,128l-2.68-.51,1.6,13.75,2.51-13a299.67,299.67,0,0,0,2-103.85"/><path class="aa" d="M127.26,548.21l-17.52,7.08.55,1.37,17.52-7.09,42.59-17.18,1,2.52,10.69-8.84L169.85,531l-42.59,17.19"/><path class="aa" d="M118.26,465.46l16.16.92.09-1.48-16.17-.9a765.69,765.69,0,0,0-85.16-1.35l-.08-2.71L20,464.44l13.2-.32q42.57-1,85.06,1.34"/><path class="ab" d="M335.51,509.46l22.68-1.5-.1-1.49L335.41,508Q270,511.67,205.16,520.44l-.33-2.7-12.62,5.82,13.14-1.65q64.92-8.11,130.25-12.45"/><path class="ab" d="M246.89,865.46l-11.26-31.57-1.4.5L245.49,866a243.38,243.38,0,0,0,47.56,83.84l-2.1,1.74,11.67,7.55-8.42-10.24a276.33,276.33,0,0,1-47.31-83.39"/><path class="ac" d="M337.76,496.46l20.38,11.47.73-1.31L338.5,495.16a817.31,817.31,0,0,0-135.62-62.94l1-2.56L190,429l12.42,4.63a959.92,959.92,0,0,1,135.5,62.83"/><path class="ac" d="M786.39,791.34l16.27-2-.19-1.49-16.27,2q-258,30.81-517.38,41.34l-.1-2.73-13.11,4.7,13.26-.47q259.7-9.37,517.5-41.38"/><path class="ac" d="M265.51,848.59l-29.85-14.77-.66,1.35,29.85,14.75a1163.29,1163.29,0,0,0,216.5,84l-.76,2.63,13.94-.38-12.77-3.69a1296.69,1296.69,0,0,1-216.25-83.87"/><path class="ad" d="M318.39,953.71l-13.78,7.69.74,1.31L319.11,955a3190.67,3190.67,0,0,0,335.5-212.5l1.6,2.23,8.35-11.19-10.82,7.74A3533.37,3533.37,0,0,1,318.36,953.8"/><path class="ad" d="M335.89,178.09l7.27,16.55,1.39-.62-7.28-16.53a681.9,681.9,0,0,0-44.11-86.93l2.39-1.37L285.19,79.8l6.67,11.53a876.87,876.87,0,0,1,44,86.76"/><path class="ad" d="M169.89,518.71,187,524.2l.46-1.44-17.1-5.48Q101.17,494.59,32.48,471l.91-2.6-14-.39L32,472.45q68.6,24.06,137.87,46.29"/><path class="ad" d="M522.64,567.59l-11.89-10.14-1,1.15,11.9,10.14q69.66,60.48,135.13,125.5l-1.95,1.93,12.4,6.48-9.38-9.48Q593,627.37,522.74,567.55"/><path class="ad" d="M481.76,932.46l15.41,4.45.43-1.45L482.19,931a1474.62,1474.62,0,0,1-216-83.75l1.21-2.46-13.83-2.09,11.94,5.92a1301.55,1301.55,0,0,0,216.25,83.91"/><path class="ad" d="M28.74,480,10,464.68l-1,1.17,18.74,15.29q34.91,29.49,67.42,61.6l-2,1.92,12.38,6.54-9.33-9.52a817.14,817.14,0,0,0-67.52-61.63"/><path class="ae" d="M785.76,387.71,801.45,374l-1-1.15-15.69,13.69q-255.18,221.07-523.5,426l-1.66-2.2-8.05,11.49,10.64-8.08Q531.25,610,785.69,387.9"/><path class="ae" d="M459.51,128.34l-4,20.41,1.5.29,4-20.4a265.85,265.85,0,0,0,2-104.39l2.74-.43-6.32-12.56,2.07,13.23a299.92,299.92,0,0,1-2,103.85"/><path class="af" d="M529.89,44.57l17.13,8,.65-1.39-17.13-8C512,34,493.66,24.3,475.66,14.07l1.41-2.38L463.38,8.54l11.5,6.85A622.33,622.33,0,0,0,530,44.57"/><path class="af" d="M29.75,453.46,10,464.71l.77,1.34L30.51,454.8q94.92-53.32,191.25-104.11l1.28,2.46,9.9-10-11.89,6.19Q124.43,399.55,29.8,453.46"/><path class="af" d="M190.14,541.71l-3.22-17.57-1.51.27L188.62,542q22.86,129.09,41,259l-2.75.37,6.13,12.7-1.78-13.28q-17.44-130.12-41.13-259.13"/><path class="ag" d="M646,714.34l38.08,5.28.21-1.53-38.08-5.29a717.23,717.23,0,0,1-145-38.62l1-2.58-14.09-1,12.48,5a616.82,616.82,0,0,0,145.3,38.7"/><path class="ag" d="M474.89,15.39,458.54,5.65,457.74,7l16.36,9.74A445.94,445.94,0,0,0,529.3,46l-1.18,2.52,14,1.76L530,44.57a605.19,605.19,0,0,1-55.25-29.18"/><path class="ah" d="M667.39,859.71l-5.23,15.75,1.48.49,5.23-15.75a285.05,285.05,0,0,0,16.77-103.26h2.78l-4.33-13.45v13.44a324.69,324.69,0,0,1-16.7,102.78"/><path class="ah" d="M553.64,743.59,537.55,743v1.56l16.07.58a246,246,0,0,0,95.3-12.85l.84,2.66,11.55-8.2-12.85,4a280.2,280.2,0,0,1-94.77,12.78"/><path class="ai" d="M389.76,953.21l14.44,8.28.77-1.37-14.43-8.27A784.49,784.49,0,0,1,261,855.72l1.92-2-12.8-6.09,9.8,9.26a681.76,681.76,0,0,0,129.75,96.36"/><path class="ai" d="M590.64,143.71l21.92,23.48,1.15-1.08-21.92-23.47Q533.47,79.45,473.05,18.27l2-1.95-12.54-6.6,9.41,9.65Q532,80.87,590.64,143.71"/><path class="ai" d="M711.39,602.46l2.85-15.65-1.55-.28-2.84,15.66Q701.8,642.75,692,682.93l-2.71-.7.82,14.15,3.41-13q10.47-40.1,17.88-80.87"/><path class="ai" d="M590.14,334.59l13.82-11-1-1.23-13.83,11L569.49,349l-1.74-2.19L559.9,358.6l10.56-8.39q9.85-7.81,19.68-15.62"/><path class="aj" d="M250,802.34l-14.38,31.45,1.43.66L251.44,803A1814.39,1814.39,0,0,0,353.36,529.88l2.7.78-.41-14.2-3.8,13A2027.71,2027.71,0,0,1,250,802.3"/><path class="aj" d="M394,698.71l-18.25-3-.26,1.56,18.25,3A1397.19,1397.19,0,0,0,646.62,721.1v2.82l13.53-4.38H646.63A1569.81,1569.81,0,0,1,394,698.66"/><path class="ak" d="M597.39,138.46l15.11,28.7,1.41-.74L598.8,137.73a740.41,740.41,0,0,0-40.26-69.87l2.39-1.5L550,57.24l7.21,11.47q21.43,34.11,40.2,69.75"/><path class="ak" d="M294.26,948.84l10.43,12.66,1.22-1L295.5,947.82a321.9,321.9,0,0,1-47.05-82.91l2.66-.94-8.71-11.28,4.6,12.76a276.87,276.87,0,0,0,47.31,83.39"/><path class="ak" d="M360.51,194.59l-17.27.09v1.58l17.28-.07a1078.17,1078.17,0,0,0,222-21.64l.53,2.78,12.48-6.89L582.23,173a1205.57,1205.57,0,0,1-221.75,21.6"/><path class="ak" d="M537.26,742.34q-138.3,52.51-269,83.52l-.6-2.75-12.46,6.46,14,.6-.62-2.75q131.25-30,269.25-83.75"/><path class="ak" d="M267.51,820.71,235.69,833.9l.61,1.47,31.83-13.18q78.54-32,156-66.7l1.13,2.59,10.63-9.53L423.48,754q-77.6,34.21-155.88,66.68"/><path class="ak" d="M642.39,157l-29.83,10.13.51,1.51,29.83-10.12A620.77,620.77,0,0,0,789.27,89.09l1.5,2.4L800,80.54l-11.52,7.19a701.94,701.94,0,0,1-146,69.23"/><path class="al" d="M781.89,383.71l19.57-9.66-.71-1.45-19.57,9.65A509.35,509.35,0,0,1,658.41,422l-.47-2.81-12.7,6.68,13.45-2.27a445.13,445.13,0,0,0,123.2-39.88"/><path class="al" d="M260,856.84l-24.31-23-1.1,1.16,24.31,23a606.19,606.19,0,0,0,130,96.59l-1.41,2.48,14.05,2.9-11.83-6.78A681.44,681.44,0,0,1,260,856.84"/><path class="am" d="M627,441.71l12-14.87-1.26-1-12,14.89A2786.55,2786.55,0,0,1,260.49,811.07l-1.83-2.2L251,821l10.52-8.72A2585.57,2585.57,0,0,0,627,441.82"/><path class="am" d="M291.89,91.34,282,74.28l-1.41.81,9.88,17.06q23.71,42.43,43.95,86.61l-2.61,1.15,9.6,10.7-5.5-12.51a876.87,876.87,0,0,0-44-86.76"/><path class="an" d="M417.14,951.84l-12.95,9.66,1,1.31,13-9.66a2094.29,2094.29,0,0,0,240.25-206l2,2.05,6.6-12.8-9.81,9.6A2353.68,2353.68,0,0,1,417.1,951.86"/><path class="an" d="M658.76,423.59,639,426.93l.27,1.62L659,425.2a395.67,395.67,0,0,0,123.65-40l1.27,2.56,10.28-10.1-12.2,6a445.13,445.13,0,0,1-123.2,39.88"/><path class="ao" d="M787.39,784.21l15.36,5.08.51-1.58-15.36-5.07a269.36,269.36,0,0,1-73.63-40.38L716.1,740l-13.48-5.2,10.6,8.7a229.48,229.48,0,0,0,74.14,40.71"/><path class="ao" d="M205.26,521.84l-18.37,2.3.2,1.64,18.37-2.29Q270.4,516,335.59,511l.19,2.87,13.4-5.42-13.7.9q-65.3,4.33-130.25,12.45"/><path class="ap" d="M265.76,817.09l-30.13,16.7.81,1.46,30.13-16.71a1307.88,1307.88,0,0,0,204.63-137l1.8,2.26,7.91-12.15-10.76,8.59A1471.31,1471.31,0,0,1,265.77,817.11"/><path class="aq" d="M508.51,926l-11.36,11,1.16,1.2,11.37-10.93A1188.24,1188.24,0,0,0,663.17,751.05l2.34,1.71,4.43-13.83-8.12,11.13A1326.83,1326.83,0,0,1,508.45,925.94"/><path class="aq" d="M230.14,867.21l5.51-33.36-1.66-.27-5.51,33.36a186.18,186.18,0,0,0-3.12,50.47l-2.9.13,5.13,13.6L227,917.35a246.1,246.1,0,0,1,3.1-50.14"/><path class="ar" d="M227,917.34l.68,16.81,1.69-.06-.67-16.82a366.91,366.91,0,0,1,3.08-49.8l2.86.48-2.29-14.4L230.1,867.2a246.1,246.1,0,0,0-3.1,50.14"/><path class="as" d="M165.51,430.09l18.84-3.24-.29-1.7-18.83,3.22A1288.15,1288.15,0,0,0,32.73,457L32,454.15l-12.31,8,13.47-3.5q65.6-17.06,132.38-28.5"/><path class="at" d="M678.14,681.21l5.91,38.41,1.73-.26L679.86,681q-18-117.09-36.06-234.25l2.91-.45L640,433.16l2.12,13.8q18,117.1,36.06,234.25"/><path class="au" d="M632.89,144.59l-20.35,22.52,1.33,1.2,20.36-22.51q16.11-16.71,33.7-31.82l1.87,2.33,8-12.57-11,8.84a295.69,295.69,0,0,0-33.91,32"/><path class="av" d="M294.64,538.46l-15.54,8.22.85,1.61,15.54-8.21q21.11-10.61,42.37-20.87l1.25,2.74L350,511.66l-12.87,5.9q-21.53,9.84-42.46,20.9"/><path class="av" d="M96.26,541.71l13.4,13.69,1.3-1.27-13.4-13.69a614.45,614.45,0,0,0-67.62-62l1.91-2.34-14-5.21,11,9A820.4,820.4,0,0,1,96.41,541.6"/><path class="aw" d="M788.39,87.84l20-12.45-1-1.55-20,12.43A805.89,805.89,0,0,1,641.8,155.34l-1-2.88-11.88,9.18,13.45-4.57a699.44,699.44,0,0,0,146-69.23"/><path class="aw" d="M617.14,198.46l-4.65-31.28-1.83.27,4.65,31.29q14.41,103.44,20.76,207.75l-3,.16,5.61,14-.74-14.21Q632.53,302,617.16,198.56"/><path class="ax" d="M638,406.34l1.06,20.57,1.89-.1-1.07-20.56a1838.35,1838.35,0,0,0-20.8-208.13l3-.45-7-13.46,2.11,14.19Q632.6,301.84,638,406.27"/><path class="ay" d="M202.39,433.59l-18-6.7-.66,1.79,18,6.69a1147.79,1147.79,0,0,1,135.12,62.72l-1.51,2.69,15,2.7-12.53-7.06a958.5,958.5,0,0,0-135.5-62.87"/><path class="az" d="M475.89,150.46l-20.41-1.7-.17,1.9,20.43,1.7q52.66,5,105.1,12.1l-.45,3.07,15-2.85-14.23-2.1q-52.42-7.72-105.24-12.12"/><path class="ba" d="M814.64,533l7.88-14.76-1.71-.91-7.87,14.76A1055.34,1055.34,0,0,1,707.18,688.92l-2.39-2-5.4,14.33,9.27-11.1a919.73,919.73,0,0,0,106-157.25"/><path class="ba" d="M423.39,754l16.44-7.25L439,745l-16.44,7.25Q344.84,786,266.73,818.86l-1.2-2.88-11.44,10.21,13.37-5.54Q345.81,788.19,423.34,754"/><path class="ba" d="M470.14,680.21,484.22,669,483,667.44l-14.08,11.25A1673.92,1673.92,0,0,1,264.8,815.44l-1.51-2.74-10.22,11.45,12.67-7A1462.22,1462.22,0,0,0,470.11,680.26"/><path class="ba" d="M500.64,675.59,484.21,669l-.72,1.8,16.42,6.6a546.19,546.19,0,0,0,145.75,38.8l-.42,3.08,15-3-14.33-2a612.3,612.3,0,0,1-145.25-38.62"/><path class="bb" d="M613.64,199.59l-1.1-32.39-1.95.06,1.1,32.4a681.63,681.63,0,0,1-6.55,104.71l-3.08-.5L604.78,319l2.28-14.32a546,546,0,0,0,6.58-105.08"/><path class="bb" d="M701.14,683.21l-17,36.37,1.76.82,17-36.36a1196.13,1196.13,0,0,0,95.88-287.5l3.05.63-2-15.23-3,14.2a1300.51,1300.51,0,0,1-95.78,287"/><path class="bc" d="M668.51,755.71l15.63-36.19-1.83-.78-15.61,36.2a805.08,805.08,0,0,1-79.78,138.62l-2.52-1.87-4.55,14.77,8.67-11.72a698,698,0,0,0,80-139"/><path class="bc" d="M351.89,529.46l6.34-21.6-1.92-.56L350,528.9A2303.66,2303.66,0,0,1,248.24,801.52l-2.88-1.31L244,815.64l6.08-13.29A2029.4,2029.4,0,0,0,351.89,529.47"/><path class="bd" d="M799.51,351.09l2,23,2-.18-2-23A1284.54,1284.54,0,0,1,807.11,100l3.14.41L807,85.25l-1.91,14.52a1159.79,1159.79,0,0,0-5.6,251.38"/><path class="bd" d="M383.39,566.71,398,592.6l1.76-1-14.61-25.9q-9.16-17.82-16.81-36.35l3-1.1-9.95-12L366.47,530a251.92,251.92,0,0,0,16.95,36.65"/><path class="be" d="M471.89,19.34,458.52,5.65,457,7.11,470.4,20.8q59.69,61.82,118.67,124.29l-2.36,2.21,14,7.21L590.6,143.68Q532.1,80.68,472,19.3"/><path class="bf" d="M817.26,98.46l-9-23.16-2,.76,9,23.17a2260.87,2260.87,0,0,1,114,417l-3.2.53,7.7,13.79-2.43-14.66a2092.89,2092.89,0,0,0-114-417.38"/><path class="bf" d="M642.14,447l-3.09-20.09-2.1.33,3.1,20.09q18,117.09,36.05,234.25l-3.21.48L680.46,696l-2.26-14.74Q660.2,564,642.2,447"/><path class="bf" d="M931.51,515.84l4.24,25.65,2.1-.35-4.25-25.65A1960.39,1960.39,0,0,0,819.22,97.74l3-1.19-10.41-12,5.4,13.9A2097,2097,0,0,1,931.4,515.87"/><path class="bg" d="M805.14,99.71l3.2-24.37-2.12-.28L803,99.44a1055.07,1055.07,0,0,0-5.6,251.75l-3.25.29,6.65,14.39L799.54,351a1159.06,1159.06,0,0,1,5.6-251.37"/><path class="bh" d="M818,390.59,801.55,374,800,375.55l16.45,16.6a912.69,912.69,0,0,1,103.24,128.5l-2.8,1.8,12.82,9.7-8.17-12.7A791.24,791.24,0,0,0,818,390.58"/><path class="bi" d="M607,304.59l-3,19,2.18.35,3-19a459.49,459.49,0,0,0,6.59-105.52l3.32-.11-6-14.91.52,15.1A546.94,546.94,0,0,1,607,304.59"/><path class="bi" d="M557.26,68.7,547.14,52.59l-1.89,1.18,10.14,16.1q20.8,34.38,40.11,69.62l-3,1.55,12,10.81-7.06-13.4q-18.75-35.64-40.2-69.75"/><path class="bj" d="M294.64,600.59,282,621.84l1.93,1.13,12.57-21.21q23.12-37.51,49-73.18l2.66,2,4.66-15.48-9.11,12.13a805.49,805.49,0,0,0-49.1,73.38"/><path class="bk" d="M921.51,519.46l14.21,22.06,1.9-1.22-14.21-22.06A702.67,702.67,0,0,0,819.54,389l2.38-2.38-14.72-6.85,10.74,10.81A789.57,789.57,0,0,1,921.45,519.45"/><path class="bk" d="M720.14,698,684,719.54l1.17,2L721.26,700A1313.4,1313.4,0,0,0,917.05,560.29l2.18,2.57,8-14.17-11.68,9.85A1490.49,1490.49,0,0,1,720.2,697.79"/><path class="bl" d="M556.26,907.34l20.65,3,.34-2.28L556.6,905a2331.73,2331.73,0,0,1-286.5-63.38l1-3.26-16.35,1.1,14.72,4.39a2054.65,2054.65,0,0,0,286.75,63.38"/><path class="bm" d="M588.51,894.71,577,910.28l1.9,1.4,11.51-15.55a618.58,618.58,0,0,0,80.26-139.5l3.17,1.36.8-16.49-6.14,14.19a698,698,0,0,1-80,139"/><path class="bn" d="M369,600l29-7.29-.59-2.32-29,7.3-63.9,16.09-.85-3.36L290,619.89l15.06-3.8L369,600"/><path class="bn" d="M262.51,809.71,235.6,833.85l1.6,1.79,26.91-24.14A1105.4,1105.4,0,0,0,363.28,713l2.56,2.32,6.1-15.43-10.44,11.5a1362.49,1362.49,0,0,1-99,98.32"/><path class="bo" d="M246.39,798.09l-10.7,35.71,2.49.75,10.7-35.71A836,836,0,0,0,281.5,646.21l3.58.47L281,630.06l-2.06,15.82A961.6,961.6,0,0,1,246.4,798.13"/><path class="bp" d="M269.51,844l-33.86-10.07-.76,2.56,33.87,10.06A1838.77,1838.77,0,0,0,555.89,910l-.54,3.62,16.85-3.92-15.92-2.34A2076.08,2076.08,0,0,1,269.4,844"/><path class="bq" d="M361.51,711.34l14.25-15.63-2-1.82-14.24,15.66q-47.47,51-98.78,98.14L258.29,805l-7.78,15.55,12-10.8a1368.71,1368.71,0,0,0,99-98.33"/><path class="bq" d="M796.89,396.21l4.62-22.16-2.66-.55-4.62,22.15a1423.44,1423.44,0,0,1-95.58,286.5l-3.34-1.56L694.24,698l6.87-14.66a1301.9,1301.9,0,0,0,95.78-287"/><path class="br" d="M343.64,527.21l14.51-19.32-2.25-1.7-14.53,19.34a616.87,616.87,0,0,0-49.26,73.63l-3.24-1.91-2.7,17.46,8.37-14.11a809.12,809.12,0,0,1,49.1-73.39"/><path class="bs" d="M366.39,530.09l-8.19-22.22-2.85,1.05,8.19,22.22a174.56,174.56,0,0,0,17.16,37.08l-3.39,1.92,14.28,11.22-8.25-14.62a251.92,251.92,0,0,1-16.95-36.65"/><path class="bt" d="M305.14,616l-23.08,5.82.77,3L305.89,619l63.91-16.08,1,3.82,14.69-11L369,599.87,305.14,616"/><path class="bu" d="M278.89,645.84l3.13-24-3.28-.43-3.14,24a1154.11,1154.11,0,0,1-32.43,151.75L239.28,796l2.11,18.7,5-16.58a962.72,962.72,0,0,0,32.54-152.25"/><path class="bv" d="M915.51,558.59l20.19-17-2.45-2.9-20.19,17A1691.26,1691.26,0,0,1,718.19,694.81L716,691.08l-11.4,16.27,15.54-9.27a1484.21,1484.21,0,0,0,195.5-139.5"/><path class="g" d="M801.26,725.71Q535.39,815.4,268.14,831.54L268,829l-12.43,3.8,12.76,2.54-.14-2.53q267.95-14.19,533.5-105.88"/><path class="t" d="M424.14,591.71l-26.18.9,0,1.39,26.18-.9a3699,3699,0,0,0,487.87-46.5l.42,2.61,12.2-6-12.84,2A4037.16,4037.16,0,0,1,424.08,591.7"/><path class="ab" d="M911.89,545.21l23.84-3.73L935.5,540l-23.84,3.74A4422.35,4422.35,0,0,1,424,590.24V587.5l-13.11,4.67,13.25-.45a4039.16,4039.16,0,0,0,487.75-46.48"/><path class="aa" d="M838.39,524.21l-15.8-6.05-.53,1.39,15.79,6a208.46,208.46,0,0,0,73.45,15.93l-.16,2.72,13.46-3.38L911.4,540a245.08,245.08,0,0,1-73-15.84"/><path class="ab" d="M911.39,540.09l24.31,1.48.09-1.47-24.31-1.5a299.21,299.21,0,0,1-72.58-15.74l1-2.54-13.9-.81,12.37,4.74a245.08,245.08,0,0,0,73,15.84"/><path class="o" d="M935.39,541q-333.75,159-669,281.25l-.89-2.46-11,7.43L267.72,826l-.88-2.46Q602.65,702.93,936,542.24"/><path class="bw" d="M634.51,737.09l49.55-17.45L680.3,709l-49.56,17.4a2202.57,2202.57,0,0,1-351.38,89.06L278.19,808,255.4,830.75l25.75-4.1a2011.73,2011.73,0,0,0,353.38-89.56"/><path class="bx" d="M281.14,826.59l-45.48,7.23L238,848.57l45.47-7.22a1862.14,1862.14,0,0,0,356-90.23l2.87,8.15,19.12-31.73-27,9.48a2013.41,2013.41,0,0,1-353.37,89.57"/><path class="l" d="M552.39,363.84Q437.82,616.4,257.76,809.71l-1.87-1.77-6.44,11.47,11.14-7-1.87-1.77Q440.6,618.07,553.6,364.26"/><path class="by" d="M381.89,677.34l-6.12,18.42,1.62.54,6.11-18.43a229.6,229.6,0,0,0,13-58.37l2.9.35-3-14.3-1.63,13.75a294.58,294.58,0,0,1-12.92,58"/><path class="aq" d="M394.76,619.21l3.15-26.6-1.66-.2L393.09,619a412.48,412.48,0,0,1-12.85,57.69l-2.74-.9v14.53l4.34-13.09a294.58,294.58,0,0,0,12.92-58"/><path class="bz" d="M382.51,620.46l15.38-27.85-3.69-2-15.38,27.85A1464.7,1464.7,0,0,1,256.51,801l-3.57-2.87-4.87,20.12,11.73-14.62A1281.84,1281.84,0,0,0,382.51,620.42"/><path class="ca" d="M259.89,803.59l-24.23,30.2,3.35,2.68,24.23-30.18A1140.19,1140.19,0,0,0,386.36,622.54l4.06,2.23,1.3-20.83-9.12,16.52A1282,1282,0,0,1,259.89,803.59"/><path class="u" d="M607.64,196.71l4.83-29.57-1.39-.23-4.83,29.58A2024.51,2024.51,0,0,1,514.88,542l-2.49-.93-.71,13.63,4.52-12.2a1849.52,1849.52,0,0,0,91.44-345.75"/><path class="i" d="M516.26,542.46l-5.53,14.94,1.22.45,5.54-14.94a1708.21,1708.21,0,0,0,91.5-346l2.52.42-1.76-13.14-2,12.51a1852.6,1852.6,0,0,1-91.44,345.75"/><path class="cb" d="M563.39,386.71,553.05,364.1l-2.65,1.21,10.34,22.62A2430.28,2430.28,0,0,1,670,681.55l-3.67,1.06,11.11,14-4.65-15.91a2158.84,2158.84,0,0,0-109.37-294"/><path class="cc" d="M672.76,680.71l11.35,38.91,2.53-.73L675.29,680a1946.65,1946.65,0,0,0-109.5-294.4l3.3-1.51-12.34-12,6.65,14.57a2158.84,2158.84,0,0,1,109.37,294"/><path class="g" d="M801.51,373.34q-120.18,5.79-227.12-7l.35-2.52-12.94,1.44,12.06,4.86.35-2.51q107,14.08,227.38,7"/><path class="af" d="M571.51,377,553,364.06l-.89,1.26,18.55,12.9q26,18.72,51.71,37.83l-1.69,2.2L633.93,423l-10.64-8.18Q597.85,395.29,571.51,377"/><path class="ao" d="M623.26,414.84,639,426.89l1-1.31-15.68-12.05q-25.12-19.87-51.75-37.88l1.63-2.36-13.86-4.11L571.57,377q26.35,18.31,51.78,37.87"/><path class="cd" d="M641.51,699.09,684,719.54l3.18-6.59-42.5-20.45q-103.5-50.62-211.13-93.25l2.28-5.6-25.9,3.94L430.82,606q106.87,43.21,210.75,93.19"/><path class="ce" d="M430.76,606l-32.87-13.3-3,7.41,32.87,13.3Q534,657.29,638,706.36l-2.75,5.7,27.13-2.85-20.91-10.06Q537.61,649.2,430.73,606"/><path class="bz" d="M598.89,199.84l13.61-32.66-3.89-1.63L595,198.22a595.82,595.82,0,0,0-41.13,138l-4.51-.83,5.24,20.05L558,337a678.24,678.24,0,0,1,40.84-137.13"/><path class="bv" d="M558,337l-5,27.14,3.73.7,5-27.14a796,796,0,0,1,40.61-136.37l4,1.67-.56-19.84-7,16.7A678.36,678.36,0,0,0,558,337"/><path class="cf" d="M684.89,680.84l-.76,38.72h1.77l.76-38.72A1537.53,1537.53,0,0,0,623,196.75l2.88-.82-8.48-12.19,3.9,13.5a1619.31,1619.31,0,0,1,63.63,483.62"/><path class="be" d="M621.26,197.21l-8.7-30.11-2,.58,8.69,30.11a1709,1709,0,0,1,63.55,483l-3.22-.07,5,14.88.29-14.77A1619.31,1619.31,0,0,0,621.26,197.2"/><path class="cg" d="M255.64,833.84a20,20,0,1,1-20-20,20,20,0,0,1,20,20"/><path class="ch" d="M252.14,833.84a16.47,16.47,0,1,1-16.48-16.46h0a16.44,16.44,0,0,1,16.46,16.44v0"/><path class="ci" d="M708,719.59a24,24,0,1,1-24-24,24,24,0,0,1,24,24"/><path class="cj" d="M705.39,719.59A21.29,21.29,0,1,1,684.1,698.3a21.29,21.29,0,0,1,21.29,21.29"/><path class="ck" d="M410.89,592.71a12.94,12.94,0,1,1-12.95-12.93H398a13,13,0,0,1,12.94,12.93"/><path class="cl" d="M407.89,592.71a10,10,0,1,1-10-10,10,10,0,0,1,10,10"/><path class="cm" d="M629.76,167.21a17.29,17.29,0,1,1-17.29-17.29h0a17.28,17.28,0,0,1,17.29,17.27v0"/><path class="cn" d="M628.39,167.21a15.85,15.85,0,1,1-15.85-15.85h0a15.85,15.85,0,0,1,15.85,15.85"/><path class="co" d="M561.89,364.09a8.85,8.85,0,1,1-8.85-8.85h0a8.85,8.85,0,0,1,8.85,8.85"/><path class="cp" d="M560.14,364.09A7.12,7.12,0,1,1,553,357h0a7.12,7.12,0,0,1,7.11,7.12"/><path class="cq" d="M946.89,541.46a11.14,11.14,0,1,1-11.14-11.14,11.14,11.14,0,0,1,11.14,11.14h0"/><path class="cr" d="M945.26,541.46a9.53,9.53,0,1,1-9.54-9.52h0a9.53,9.53,0,0,1,9.52,9.52"/><path class="cs" d="M290.26,621.84a8.26,8.26,0,1,1-8.26-8.26,8.26,8.26,0,0,1,8.26,8.26h0"/><path class="ct" d="M288.26,621.84a6.26,6.26,0,1,1-6.26-6.26,6.26,6.26,0,0,1,6.26,6.26"/><path class="cu" d="M367.26,508a9,9,0,1,1-9-9,9,9,0,0,1,9,9"/><path class="cv" d="M365.26,508a7.09,7.09,0,1,1-7.09-7.09h0a7.08,7.08,0,0,1,7.09,7.07v0"/><path class="cw" d="M809.64,374a8.14,8.14,0,1,1-8.14-8.14,8.13,8.13,0,0,1,8.14,8.14"/><path class="cx" d="M807.51,374a6,6,0,1,1-6-6,6,6,0,0,1,6,6"/><path class="cy" d="M381.39,695.71a5.63,5.63,0,1,1-5.64-5.62h0a5.63,5.63,0,0,1,5.63,5.62"/><path class="cz" d="M379.64,695.71a3.9,3.9,0,1,1-3.9-3.9,3.91,3.91,0,0,1,3.9,3.9"/><path class="da" d="M581.76,910.34a4.78,4.78,0,1,1-4.78-4.78h0a4.78,4.78,0,0,1,4.77,4.78"/><path class="db" d="M580,910.34a3.08,3.08,0,1,1-3.08-3.08h0a3.06,3.06,0,0,1,3.07,3v0"/><path class="dc" d="M552.51,52.59A5.49,5.49,0,1,1,547,47.1a5.49,5.49,0,0,1,5.51,5.49"/><path class="cw" d="M551.39,52.59a4.34,4.34,0,1,1-4.34-4.34,4.34,4.34,0,0,1,4.34,4.34h0"/><path class="dd" d="M608.76,323.59a4.71,4.71,0,1,1-4.71-4.71,4.71,4.71,0,0,1,4.71,4.71h0"/><path class="de" d="M607.26,323.59a3.24,3.24,0,1,1-3.24-3.24h0a3.24,3.24,0,0,1,3.23,3.24"/><path class="df" d="M818.26,75.34a9.93,9.93,0,1,1-9.93-9.93h0a9.91,9.91,0,0,1,9.92,9.9v0"/><path class="dg" d="M817.26,75.34a8.93,8.93,0,1,1-8.93-8.93h0a8.93,8.93,0,0,1,8.92,8.93"/><path class="dh" d="M645.39,427a6.37,6.37,0,1,1-6.39-6.4,6.37,6.37,0,0,1,6.39,6.4"/><path class="di" d="M643.51,427a4.5,4.5,0,1,1-4.5-4.5,4.49,4.49,0,0,1,4.5,4.5v0"/><path class="dj" d="M464.14,5.65A5.65,5.65,0,1,1,458.49,0a5.65,5.65,0,0,1,5.65,5.65"/><path class="cz" d="M462.76,5.65a4.19,4.19,0,1,1-4.19-4.19h0a4.19,4.19,0,0,1,4.18,4.19"/><path class="dk" d="M488.51,669a4.26,4.26,0,1,1-4.26-4.26,4.26,4.26,0,0,1,4.26,4.26h0"/><path class="dl" d="M486.64,669a2.37,2.37,0,1,1-2.38-2.36h0a2.35,2.35,0,0,1,2.36,2.34v0"/><path class="dm" d="M444.26,746.71a4.4,4.4,0,1,1-4.4-4.4,4.4,4.4,0,0,1,4.4,4.4h0"/><path class="dn" d="M443,746.71a3.23,3.23,0,1,1-3.24-3.22h0a3.23,3.23,0,0,1,3.22,3.22"/><path class="do" d="M826.26,518.21a3.68,3.68,0,1,1-3.69-3.67h0a3.66,3.66,0,0,1,3.67,3.65v0"/><path class="da" d="M825,518.21a2.39,2.39,0,1,1-2.39-2.39h0A2.39,2.39,0,0,1,825,518.2h0"/><path class="dp" d="M463.14,148.71a7.59,7.59,0,1,1-7.59-7.59h0a7.59,7.59,0,0,1,7.59,7.59"/><path class="dq" d="M462.51,148.71a6.94,6.94,0,1,1-6.94-6.94h0a6.94,6.94,0,0,1,6.93,6.94"/><path class="dd" d="M190.39,427a5.95,5.95,0,1,1-5.95-5.95,6,6,0,0,1,5.95,5.95"/><path class="dr" d="M189.26,427a4.89,4.89,0,1,1-4.89-4.89h0a4.87,4.87,0,0,1,4.88,4.88h0"/><path class="ds" d="M115.51,555.34a5.83,5.83,0,1,1-5.83-5.83h0a5.83,5.83,0,0,1,5.82,5.83"/><path class="dt" d="M114.64,555.34a5,5,0,1,1-5-5,5,5,0,0,1,5,5"/><path class="du" d="M20,464.71a10,10,0,1,1-10-10,10,10,0,0,1,10,10"/><path class="dv" d="M19.39,464.71A9.38,9.38,0,1,1,10,455.34a9.38,9.38,0,0,1,9.39,9.37"/><path class="dw" d="M283.76,546.71a4.64,4.64,0,1,1-4.65-4.63h0a4.64,4.64,0,0,1,4.64,4.63"/><path class="dx" d="M283,546.71a3.9,3.9,0,1,1-3.9-3.9,3.91,3.91,0,0,1,3.9,3.9"/><path class="dy" d="M686.64,100.71a5,5,0,1,1-5-5,5,5,0,0,1,5,5"/><path class="dz" d="M686.39,100.71A4.73,4.73,0,1,1,681.64,96h0a4.73,4.73,0,0,1,4.73,4.72"/><path class="ea" d="M230.76,934.21a3,3,0,1,1-3-3,3,3,0,0,1,3,3"/><path class="ds" d="M229.76,934.21a2,2,0,1,1-2-2,2,2,0,0,1,2,2"/><path class="eb" d="M499.89,937a2.77,2.77,0,1,1-2.78-2.76h0a2.77,2.77,0,0,1,2.77,2.76"/><path class="do" d="M498.64,937a1.49,1.49,0,1,1-1.49-1.49h0a1.49,1.49,0,0,1,1.49,1.49"/><path class="ec" d="M192.26,524.21a5.28,5.28,0,1,1-5.29-5.27h0a5.28,5.28,0,0,1,5.27,5.27"/><path class="co" d="M190.76,524.21a3.85,3.85,0,1,1-3.85-3.85h0a3.85,3.85,0,0,1,3.85,3.85"/><path class="dw" d="M806,789.21a3.26,3.26,0,1,1-3.26-3.26,3.26,3.26,0,0,1,3.26,3.26h0"/><path class="ed" d="M804.76,789.21a2,2,0,1,1,0-.05v.05"/><path class="ee" d="M407.14,961.46a3,3,0,1,1-3-3,3,3,0,0,1,3,3"/><path class="ds" d="M406,961.46a1.86,1.86,0,1,1-1.86-1.86h0a1.88,1.88,0,0,1,1.86,1.86"/><path class="ef" d="M288.39,74.21a6.4,6.4,0,1,1-6.4-6.4h0a6.39,6.39,0,0,1,6.4,6.38v0"/><path class="di" d="M287.14,74.21A5.15,5.15,0,1,1,282,69.06h0a5.17,5.17,0,0,1,5.15,5.15"/><path class="eg" d="M347.64,194.71a4.42,4.42,0,1,1-4.43-4.41h0a4.4,4.4,0,0,1,4.41,4.41h0"/><path class="dn" d="M346.76,194.71a3.54,3.54,0,1,1-3.54-3.54h0a3.54,3.54,0,0,1,3.53,3.54"/><path class="eh" d="M541.14,743a3.6,3.6,0,1,1-3.6-3.6h0a3.6,3.6,0,0,1,3.6,3.6"/><path class="ec" d="M539.89,743a2.43,2.43,0,1,1-2.44-2.42h0a2.43,2.43,0,0,1,2.43,2.42"/><path class="ee" d="M307.76,961.46a3.14,3.14,0,1,1-3.15-3.13h0a3.13,3.13,0,0,1,3.14,3.12h0"/><path class="ei" d="M306.76,961.46a2.06,2.06,0,1,1-2.06-2.06h0a2.07,2.07,0,0,1,2.06,2.06"/><path class="dw" d="M717.64,586.84a3.37,3.37,0,1,1-3.38-3.36h0a3.35,3.35,0,0,1,3.36,3.34v0"/><path class="dc" d="M716.51,586.84a2.23,2.23,0,1,1-2.23-2.23h0a2.23,2.23,0,0,1,2.22,2.23"/><path class="ej" d="M665.89,875.46a3.7,3.7,0,1,1-3.7-3.7,3.7,3.7,0,0,1,3.7,3.7"/><path class="ek" d="M665.14,875.46a3,3,0,1,1-3-3,3,3,0,0,1,3,3"/><path class="do" d="M242.26,340.71a5,5,0,1,1-5-5,5,5,0,0,1,5,5"/><path class="el" d="M241.51,340.71a4.15,4.15,0,1,1-4.15-4.15h0a4.15,4.15,0,0,1,4.15,4.15"/><path class="em" d="M513.64,557.46a2.92,2.92,0,1,1-2.93-2.91h0a2.9,2.9,0,0,1,2.91,2.89v0"/><path class="en" d="M512.39,557.46a1.67,1.67,0,1,1-1.68-1.66h0a1.65,1.65,0,0,1,1.66,1.64v0"/><path class="em" d="M138.14,466.34a3.67,3.67,0,1,1-3.67-3.67h0a3.66,3.66,0,0,1,3.66,3.66h0"/><path class="da" d="M137.26,466.34a2.78,2.78,0,1,1-2.78-2.78h0a2.77,2.77,0,0,1,2.77,2.77h0"/><path class="eo" d="M604.76,90.34a2.11,2.11,0,1,1-2.11-2.12,2.1,2.1,0,0,1,2.11,2.12v0"/><path class="ej" d="M604,90.34A1.36,1.36,0,1,1,602.62,89h0A1.36,1.36,0,0,1,604,90.34"/><path class="ep" d="M295.51,153.71a3.5,3.5,0,1,1-3.5-3.5,3.5,3.5,0,0,1,3.5,3.5"/><path class="du" d="M294.76,153.71A2.73,2.73,0,1,1,292,151a2.73,2.73,0,0,1,2.76,2.71v0"/><path class="eq" d="M16.2,586.21a4.75,4.75,0,1,1-4.75-4.75h0a4.74,4.74,0,0,1,4.75,4.73v0"/><path class="db" d="M15.75,586.21a4.3,4.3,0,1,1-4.3-4.3h0a4.29,4.29,0,0,1,4.3,4.28v0"/><path class="do" d="M137.51,97.46a4.11,4.11,0,1,1-4.11-4.11,4.11,4.11,0,0,1,4.11,4.11v0"/><path class="er" d="M136.39,97.46a3,3,0,1,1-3-3,3,3,0,0,1,3,3"/><path class="eo" d="M687.26,223.84a2.26,2.26,0,1,1-2.26-2.26,2.26,2.26,0,0,1,2.26,2.26h0"/><path class="ea" d="M686.51,223.84a1.56,1.56,0,1,1-1.56-1.56h0a1.56,1.56,0,0,1,1.56,1.56"/><path class="es" d="M291.51,258.71a4.26,4.26,0,1,1-4.26-4.26,4.26,4.26,0,0,1,4.26,4.26"/><path class="dl" d="M290.39,258.71a3.19,3.19,0,1,1-3.19-3.19,3.19,3.19,0,0,1,3.19,3.19h0"/><path class="et" d="M157.64,887.71a2.3,2.3,0,1,1-2.3-2.3h0a2.3,2.3,0,0,1,2.3,2.28v0"/><path class="eb" d="M156.89,887.71a1.53,1.53,0,1,1-1.54-1.52h0a1.54,1.54,0,0,1,1.53,1.52"/><path class="eu" d="M732.76,840.21a3.26,3.26,0,1,1-3.31-3.21h0a3.27,3.27,0,0,1,3.26,3.26"/><path class="ed" d="M732.14,840.21a2.64,2.64,0,1,1-2.65-2.63h0a2.63,2.63,0,0,1,2.64,2.62h0"/><path class="ev" d="M400.89,57.52a2.2,2.2,0,1,1-2.2-2.2,2.22,2.22,0,0,1,2.2,2.2"/><path class="ep" d="M400,57.52a1.4,1.4,0,1,1-1.4-1.4h0a1.4,1.4,0,0,1,1.4,1.4"/><path class="ew" d="M805.14,726.34a3.6,3.6,0,1,1-3.6-3.6h0a3.6,3.6,0,0,1,3.6,3.6"/><path class="ec" d="M804.14,726.34a2.67,2.67,0,1,1-2.67-2.67h0a2.67,2.67,0,0,1,2.66,2.67"/><path class="ee" d="M461.51,418.59a2.95,2.95,0,1,1-2.95-2.95,3,3,0,0,1,2.95,2.95"/><path class="en" d="M460.26,418.59a1.78,1.78,0,1,1-1.78-1.78h0a1.75,1.75,0,0,1,1.77,1.73v0"/><path class="ex" d="M685,168.84a2.13,2.13,0,1,1-2.13-2.13h0a2.12,2.12,0,0,1,2.12,2.12h0"/><path class="ey" d="M684.51,168.84a1.65,1.65,0,1,1-1.65-1.65,1.65,1.65,0,0,1,1.65,1.65h0"/><text class="ez" transform="translate(246.26 864.71)">Medicine</text><text class="fa" transform="translate(696.83 754.65)">Molecular &amp; Cell Biology</text><text class="fb" transform="translate(411.9 587.55)">Neuroscience</text><text class="fc" transform="translate(621.7 194.78)">Physics</text><text class="fd" transform="translate(557.7 383.03)">Chemistry</text><text class="fd" transform="translate(941.64 562.15)">Ecology &amp; Evolution</text><text class="fd" transform="translate(286.39 640.4)">Psychiatry</text><text class="fd" transform="translate(362.95 526.96)">Psychology</text><text class="fd" transform="translate(805.83 392.46)">Environmental Chemistry &amp; Microbiology</text><text class="fe" transform="translate(378.76 711.09)">Medical Imaging</text><text class="fe" transform="translate(579.45 925.03)">Gastroenterology</text><text class="fe" transform="translate(549.95 67.84)">Material Engineering</text><text class="fe" transform="translate(606.51 338.28)">Chemical Engineering</text><text class="fd" transform="translate(813.58 95.09)">Geosciences</text><text class="fd" transform="translate(642.39 444.03)">Analytic Chemistry</text><text class="fe" transform="translate(461.51 21.03)">Fluid Mechanics</text><text class="fe" transform="translate(469.37 693.34)">Environmental Health</text><text class="fe" transform="translate(442.14 761.15)">Orthopedics</text><text class="fe" transform="translate(824.51 532.09)">Crop Science</text><text class="fd" transform="translate(459.51 166.78)">Mathematics</text><text class="fd" transform="translate(187.51 443.71)">Business &amp; Marketing</text><text class="fd" transform="translate(112.76 572.09)">Political Science</text><text class="fd" transform="translate(15.33 484.46)">Economics</text><text class="fe" transform="translate(281.58 561.28)">Education</text><g class="ff"><text class="fe" transform="translate(684.26 115.53)">Astronomy &amp;</text><text class="fg" transform="translate(748.66 115.53)"> </text><text class="fe" transform="translate(751.16 115.53)">Astrophysics</text></g><text class="fe" transform="translate(229.26 947.59)">Urology</text><text class="fe" transform="translate(498.58 950.21)">Pathology</text><text class="fe" transform="translate(189.7 539.21)">Sociology</text><text class="fe" transform="translate(804.39 802.9)">Parasitology</text><text class="fe" transform="translate(405.7 974.9)">Rheumatology</text><text class="fd" transform="translate(285.39 91.46)">Computer Science</text><g class="ff"><text class="fh" transform="translate(345.51 209.09)">T</text><text class="fe" transform="translate(351.14 209.09)">elecommunication</text></g><g class="ff"><text class="fi" transform="translate(540.82 734.04)">V</text><text class="fe" transform="translate(547.7 734.04)">eterinary</text></g><text class="fe" transform="translate(306.26 974.96)">Dermatology</text><text class="fe" transform="translate(716.01 600.53)">Agriculture</text><text class="fe" transform="translate(664.08 889.46)">Ophthalmology</text><text class="fe" transform="translate(239.95 355.65)">Probability &amp; Statistics</text><text class="fe" transform="translate(512.2 570.78)">Pharmacology</text><text class="fe" transform="translate(136.39 480.21)">Geography</text><g class="ff"><text class="fj" transform="translate(603.76 103.09)">T</text><text class="fe" transform="translate(610.21 103.09)">ribology</text></g><text class="fe" transform="translate(293.83 167.59)">Computer Imaging</text><text class="fe" transform="translate(13.95 600.84)">Law</text><text class="fe" transform="translate(135.58 111.78)">Operations Research</text><text class="fe" transform="translate(686.2 236.71)">Electromagnetic Engineering</text><g class="ff"><text class="fe" transform="translate(289.45 273.09)">Control</text><text class="fk" transform="translate(325.72 273.09)"> </text><text class="fe" transform="translate(328.64 273.09)">Theory</text></g><text class="fe" transform="translate(156.58 900.65)">Otolaryngology</text><text class="fe" transform="translate(731.2 853.9)">Dentistry</text><text class="fe" transform="translate(399.76 70.34)">Circuits</text><text class="fe" transform="translate(814.82 718.78)">Anthropology</text><g class="ff"><text class="fe" transform="translate(460.08 431.96)">Applied</text><text class="fg" transform="translate(497.61 431.96)"> </text><text class="fe" transform="translate(500.11 431.96)">Acoustics</text></g><text class="fe" transform="translate(684.01 181.59)">Power Systems</text></svg>