<svg xmlns="http://www.w3.org/2000/svg" width="1601" height="900" viewBox="0 0 1601 900"><defs><style>.a{fill:#fff;}</style></defs><title>TrueFalse</title><rect x="801" y="279" width="800" height="342"/><rect class="a" width="800" height="900"/><path d="M458,412.89v9.89H434.72v55.59H422.07V422.78H398.82v-9.89Z" transform="translate(0 0)"/><path d="M489.1,412.89q9.22,0,15,5.11A16.86,16.86,0,0,1,510,431.31a16.65,16.65,0,0,1-2.89,9.73,19.07,19.07,0,0,1-8.55,6.53,19.16,19.16,0,0,1,5.58,4.6,58.94,58.94,0,0,1,6,9.79q6,11.91,8.91,16.41H504.94c-1-1.44-2.28-3.73-3.94-6.89a149.29,149.29,0,0,0-8-14.09,18.9,18.9,0,0,0-4.87-5.15,9.63,9.63,0,0,0-5.39-1.53h-4.6v27.66H465.52V412.89Zm-2.86,27.93c3.31,0,5.91-.82,7.8-2.48a8.58,8.58,0,0,0,2.84-6.8q0-4.5-2.82-6.72t-8-2.23h-7.88v18.23Z" transform="translate(0 0)"/><path d="M536.44,412.89V451a20.8,20.8,0,0,0,1.76,9.32,13.75,13.75,0,0,0,5.74,5.72,18.56,18.56,0,0,0,9.28,2.25,21,21,0,0,0,9.87-2.13,13.44,13.44,0,0,0,5.93-5.81c1.25-2.46,1.88-5.85,1.88-10.2V412.89h12.65v38.9q0,13.23-7.92,20.32t-22.41,7.1A35.77,35.77,0,0,1,537.45,476a23,23,0,0,1-10.2-9.35,28.39,28.39,0,0,1-3.51-14.37V412.89Z" transform="translate(0 0)"/><path d="M639.53,412.89v9.89H609.86V440h28.41v9.89H609.86v18.61h30.33v9.89h-43V412.89Z" transform="translate(0 0)"/><path d="M657.73,412q7.21,0,11.48,3.75a12.55,12.55,0,0,1,4.27,9.89,21.4,21.4,0,0,1-1.74,8.23,51.68,51.68,0,0,1-6.23,10.29,46.89,46.89,0,0,0-4.62,7.31,13.63,13.63,0,0,0-1.52,5.95,3,3,0,0,1-.57,1.86,1.75,1.75,0,0,1-1.45.72q-2.11,0-3.61-3.09a15.37,15.37,0,0,1-1.5-6.8,17.88,17.88,0,0,1,1.36-6.68,43.93,43.93,0,0,1,4.31-7.8q3.29-4.87,3.28-8.49a5.28,5.28,0,0,0-1.57-4.05,6.1,6.1,0,0,0-4.38-1.48,10.12,10.12,0,0,0-6.42,2.49h-.61L650,413.68a15.08,15.08,0,0,1,3.68-1.07A22.17,22.17,0,0,1,657.73,412Zm.65,52.78A7.11,7.11,0,0,1,663.47,477a7.15,7.15,0,0,1-12.26-5,7,7,0,0,1,2.18-5A6.88,6.88,0,0,1,658.38,464.82Z" transform="translate(0 0)"/><path class="a" d="M967.62,412.89v9.89H940.34V439.7h27.28v10H940.34v28.69H927.68V412.89Z" transform="translate(0 0)"/><path class="a" d="M1006.84,412.89l28.92,65.48H1022.4l-6.79-15.94H986.5l-6.33,15.94H966.9l27-65.48Zm-16.5,39.93h21.14l-11.06-25.92Z" transform="translate(0 0)"/><path class="a" d="M1055.1,412.89v55.59h31.78v9.89h-44.44V412.89Z" transform="translate(0 0)"/><path class="a" d="M1114.41,412a38.33,38.33,0,0,1,18.42,4.78v11.25q-10.17-6.13-18-6.14a13,13,0,0,0-7.48,1.86,5.71,5.71,0,0,0-2.7,4.94c0,2.47,1.68,4.75,5,6.84q1.41.94,10.83,5.25,8.05,3.81,11.62,8.44a17.76,17.76,0,0,1,3.56,11.16,17,17,0,0,1-6.07,13.62q-6.06,5.18-15.72,5.17a37.33,37.33,0,0,1-10.81-1.38,46.92,46.92,0,0,1-10.15-4.76V460.61q10.5,8.72,19.79,8.71a12.79,12.79,0,0,0,7.5-2A6.27,6.27,0,0,0,1123,462q0-4.54-5-7.4-4.12-2.25-10.64-5.39-7.74-3.53-11.56-8.21a16.68,16.68,0,0,1-3.82-10.87,16,16,0,0,1,6.14-13.15Q1104.34,412.05,1114.41,412Z" transform="translate(0 0)"/><path class="a" d="M1188.9,412.89v9.89h-29.67V440h28.4v9.89h-28.4v18.61h30.33v9.89h-43V412.89Z" transform="translate(0 0)"/><path class="a" d="M1207.09,412c4.82,0,8.64,1.25,11.49,3.75a12.54,12.54,0,0,1,4.26,9.89,21.38,21.38,0,0,1-1.73,8.23,51.68,51.68,0,0,1-6.23,10.29,46.89,46.89,0,0,0-4.62,7.31,13.65,13.65,0,0,0-1.53,5.95,2.94,2.94,0,0,1-.56,1.86,1.75,1.75,0,0,1-1.45.72q-2.12,0-3.61-3.09a15.37,15.37,0,0,1-1.5-6.8,17.88,17.88,0,0,1,1.36-6.68,43.93,43.93,0,0,1,4.31-7.8q3.29-4.87,3.28-8.49a5.28,5.28,0,0,0-1.57-4.05,6.11,6.11,0,0,0-4.38-1.48,10.12,10.12,0,0,0-6.42,2.49h-.61l1.83-10.46a15.08,15.08,0,0,1,3.68-1.07A22.09,22.09,0,0,1,1207.09,412Zm.66,52.78a7.11,7.11,0,0,1,5.09,12.19,7.15,7.15,0,0,1-12.26-5,7.46,7.46,0,0,1,7.17-7.22Z" transform="translate(0 0)"/></svg>