<?xml version="1.0" encoding="utf-8"?>
<!-- Generator: Adobe Illustrator 23.1.1, SVG Export Plug-In . SVG Version: 6.00 Build 0)  -->
<svg version="1.1" id="Layer_1" xmlns="http://www.w3.org/2000/svg" xmlns:xlink="http://www.w3.org/1999/xlink" x="0px" y="0px"
	 viewBox="0 0 511.7 287.8" style="enable-background:new 0 0 511.7 287.8;" xml:space="preserve">
<style type="text/css">
	.st0{fill:#6C5BEB;}
	.st1{fill:#19191F;}
	.st2{fill-rule:evenodd;clip-rule:evenodd;fill:#19191F;}
</style>
<title>InfobaleenNKlogo</title>
<rect x="98.3" y="83.4" class="st0" width="21.5" height="121.1"/>
<path class="st1" d="M344.9,146.4c0-1.1-0.4-2.1-1.1-2.9c-0.8-0.9-2-1.3-3.2-1.2c-0.7,0-1.4,0.1-2,0.3c-0.6,0.2-1.1,0.5-1.6,0.9
	c-0.4,0.4-0.8,0.8-1.1,1.3c-0.3,0.5-0.4,1-0.4,1.6L344.9,146.4z M351.7,149.2v0.9c0,0.3,0,0.6-0.1,0.8h-16.1c0,0.6,0.2,1.1,0.5,1.6
	s0.7,0.9,1.2,1.3c0.5,0.4,1.1,0.6,1.6,0.8c0.6,0.2,1.3,0.3,1.9,0.3c1,0,2-0.2,2.9-0.6c0.8-0.4,1.5-1,2-1.6l5.1,3.1
	c-1.1,1.5-2.5,2.7-4.1,3.4c-1.9,0.8-3.9,1.2-6,1.1c-1.6,0-3.2-0.2-4.7-0.7c-1.4-0.5-2.8-1.3-3.9-2.2c-1.1-1-2-2.2-2.6-3.6
	c-0.6-1.5-1-3.2-0.9-4.9c0-1.6,0.3-3.3,0.9-4.8c0.6-1.4,1.4-2.6,2.5-3.7c1.1-1,2.4-1.8,3.8-2.3c1.5-0.6,3.1-0.8,4.7-0.8
	c1.5,0,3.1,0.3,4.5,0.8c1.3,0.5,2.5,1.3,3.5,2.3c1,1.1,1.8,2.3,2.3,3.7C351.4,145.7,351.7,147.4,351.7,149.2L351.7,149.2z"/>
<path class="st1" d="M376.7,146.4c0-1.1-0.4-2.1-1.1-2.9c-0.8-0.9-2.1-1.3-3.3-1.2c-0.7,0-1.4,0.1-2,0.3c-0.6,0.2-1.1,0.5-1.6,0.9
	c-0.4,0.4-0.8,0.8-1.1,1.3c-0.2,0.5-0.4,1-0.4,1.6C367.2,146.4,376.7,146.4,376.7,146.4z M383.4,149.2v0.9c0,0.3,0,0.6,0,0.8h-16.1
	c0.1,0.6,0.2,1.1,0.5,1.6s0.7,0.9,1.2,1.3c0.5,0.4,1.1,0.6,1.7,0.8s1.3,0.3,1.9,0.3c1,0,2.1-0.2,3-0.6c0.8-0.4,1.5-1,2-1.6l5.1,3.1
	c-1.1,1.5-2.5,2.7-4.1,3.4c-1.9,0.8-4,1.2-6.1,1.1c-1.6,0-3.2-0.2-4.7-0.7c-1.4-0.5-2.8-1.3-3.9-2.2c-1.1-1-2-2.2-2.6-3.6
	c-0.7-1.5-1-3.2-0.9-4.9c0-1.6,0.3-3.3,0.9-4.8c0.6-1.4,1.4-2.6,2.5-3.7c1.1-1,2.4-1.8,3.8-2.3c1.5-0.6,3.1-0.8,4.7-0.8
	c1.5,0,3.1,0.3,4.5,0.8c1.3,0.5,2.5,1.3,3.5,2.3c1,1.1,1.8,2.3,2.3,3.7C383.1,145.8,383.4,147.4,383.4,149.2L383.4,149.2z"/>
<path class="st1" d="M312.6,160.4v-32.9h7.3v32.9H312.6z"/>
<path class="st2" d="M144.2,132.4c0-2.2,1.8-4.1,4.1-4.1c2.2,0,4.1,1.8,4.1,4.1c0,2.2-1.8,4.1-4,4.1
	C146,136.5,144.2,134.7,144.2,132.4L144.2,132.4z M144.6,138.2v22.2h7.3v-22.2H144.6z"/>
<path class="st1" d="M295.9,150.8H295c-0.8,0-1.6,0-2.4,0.1c-0.7,0-1.4,0.2-2.1,0.4c-0.6,0.2-1.1,0.5-1.5,0.9s-0.6,1-0.6,1.5
	c0,0.4,0.1,0.7,0.3,1.1c0.2,0.3,0.4,0.5,0.7,0.7c0.3,0.2,0.6,0.3,1,0.4c0.4,0.1,0.7,0.1,1.1,0.1c1.2,0.1,2.4-0.3,3.3-1.2
	c0.8-0.9,1.2-2.1,1.2-3.3L295.9,150.8z M282.9,141.4c1.3-1.2,2.8-2.2,4.4-2.8c1.7-0.6,3.4-0.9,5.2-0.9c1.6,0,3.1,0.2,4.6,0.7
	c1.2,0.4,2.3,1.1,3.1,2.1c0.8,1.1,1.4,2.3,1.7,3.6c0.4,1.7,0.6,3.4,0.6,5.1v11.1H296v-2.4h-0.1c-0.6,0.9-1.5,1.7-2.5,2.1
	c-1.1,0.5-2.4,0.8-3.6,0.7c-0.9,0-1.8-0.1-2.7-0.4c-0.9-0.2-1.8-0.6-2.6-1.1c-0.8-0.6-1.4-1.3-1.9-2.1c-0.5-1-0.8-2.1-0.7-3.2
	c-0.1-1.4,0.4-2.7,1.2-3.8c0.9-1,2-1.8,3.3-2.2c1.4-0.6,3-0.9,4.5-1c1.6-0.2,3.2-0.3,4.8-0.3v-0.3c0.1-0.9-0.4-1.8-1.1-2.4
	c-0.8-0.5-1.8-0.8-2.8-0.8s-2,0.2-2.9,0.7c-0.9,0.4-1.7,0.9-2.4,1.6L282.9,141.4z"/>
<path class="st1" d="M273.2,148.9c0,1.5-0.2,2.9-0.7,4.3c-0.4,1.3-1.1,2.6-2,3.7c-0.9,1.1-2,1.9-3.2,2.5c-1.3,0.7-2.8,1-4.3,1
	c-1.4,0-2.8-0.3-4.1-0.9c-1.2-0.5-2.3-1.4-3-2.6h-0.2v3.4h-6.6V127h7.1v13.5h0.1c0.7-0.8,1.6-1.5,2.6-2c1.2-0.6,2.6-0.9,4-0.9
	c1.5,0,2.9,0.3,4.2,0.9c1.2,0.6,2.3,1.4,3.2,2.5c0.9,1.1,1.6,2.3,2,3.6C272.9,146,273.2,147.5,273.2,148.9z M266.3,148.9
	c0-0.7-0.1-1.4-0.3-2c-0.2-0.6-0.5-1.2-1-1.7c-0.4-0.5-1-1-1.6-1.3c-0.7-0.3-1.4-0.5-2.1-0.5c-0.7,0-1.5,0.1-2.2,0.5
	c-0.6,0.3-1.2,0.7-1.6,1.3c-0.4,0.5-0.8,1.1-1,1.8c-0.5,1.3-0.5,2.8,0,4.1c0.2,0.6,0.6,1.2,1,1.8c0.5,0.5,1,1,1.6,1.3
	c0.7,0.3,1.4,0.5,2.2,0.5c0.8,0,1.5-0.1,2.2-0.5c0.6-0.3,1.2-0.7,1.6-1.3c0.4-0.5,0.8-1.1,1-1.8
	C266.3,150.3,266.4,149.6,266.3,148.9L266.3,148.9z"/>
<path class="st1" d="M240.6,148.8c0,1.7-0.3,3.3-1,4.8c-0.6,1.4-1.5,2.6-2.6,3.7c-1.1,1-2.4,1.8-3.7,2.3c-1.5,0.6-3.1,0.8-4.6,0.8
	c-1.6,0-3.2-0.3-4.6-0.8c-1.4-0.5-2.7-1.3-3.8-2.3s-2-2.3-2.6-3.7c-0.7-1.5-1-3.2-1-4.8c0-1.7,0.3-3.3,1-4.8
	c0.6-1.4,1.5-2.6,2.5-3.6c1.1-1,2.4-1.8,3.8-2.3c1.5-0.5,3.1-0.8,4.6-0.8c1.6,0,3.2,0.3,4.6,0.8c1.4,0.5,2.7,1.3,3.8,2.3
	s2,2.2,2.6,3.6C240.3,145.5,240.6,147.2,240.6,148.8z M233.8,148.8c0-0.7-0.1-1.4-0.3-2c-0.2-0.6-0.6-1.2-1-1.7s-1-1-1.6-1.3
	c-1.4-0.6-3-0.6-4.4,0c-0.6,0.3-1.2,0.7-1.6,1.3c-0.4,0.5-0.8,1.1-1,1.7c-0.4,1.3-0.4,2.8,0,4.1c0.2,0.7,0.6,1.3,1,1.8s1,1,1.6,1.3
	c1.4,0.6,3,0.6,4.4,0c0.6-0.3,1.2-0.7,1.6-1.3c0.4-0.5,0.8-1.2,1-1.8C233.6,150.2,233.8,149.5,233.8,148.8z"/>
<path class="st1" d="M209.3,133.1c-0.3-0.1-0.6-0.2-0.9-0.2c-0.4-0.1-0.7-0.1-1.1-0.1c-0.6,0-1.1,0.1-1.7,0.3c-0.4,0.2-0.8,0.6-1,1
	c-0.2,0.4-0.4,0.8-0.5,1.3s-0.1,1-0.1,1.5v1.3h5v5.1h-5v17h-7.3v-17.1h-4.1v-5.1h4.1v-1.3c0-1.3,0.1-2.5,0.4-3.7
	c0.3-1.1,0.8-2.2,1.5-3.1c0.8-1,1.8-1.7,2.9-2.1c1.5-0.6,3.1-0.9,4.6-0.8c0.6,0,1.2,0,1.8,0.1s1.1,0.2,1.7,0.3L209.3,133.1z"/>
<path class="st1" d="M176.8,160.4v-11.8c0-0.6-0.1-1.2-0.2-1.7c-0.1-0.5-0.2-1-0.5-1.5c-0.2-0.4-0.6-0.8-1-1c-0.5-0.3-1-0.4-1.6-0.4
	s-1.2,0.1-1.7,0.4c-0.5,0.2-0.9,0.6-1.2,1c-0.3,0.5-0.6,1-0.7,1.5c-0.1,0.6-0.2,1.1-0.2,1.7v11.7h-7.2v-22.2h6.9v3.6h0.1
	c0.3-0.5,0.6-0.9,1-1.3c0.4-0.5,0.9-0.9,1.5-1.2s1.2-0.6,1.9-0.8c0.7-0.2,1.4-0.3,2.1-0.3c1.3,0,2.6,0.2,3.7,0.8
	c1,0.5,1.8,1.2,2.4,2c0.6,0.8,1.1,1.8,1.3,2.8c0.3,1,0.4,2.1,0.4,3.2v13.4h-7V160.4z"/>
<path class="st1" d="M406.3,160.4v-11.8c0-0.6-0.1-1.2-0.2-1.7s-0.2-1-0.5-1.4c-0.2-0.4-0.6-0.8-1-1c-0.5-0.3-1-0.4-1.6-0.4
	s-1.2,0.1-1.7,0.4c-0.5,0.2-0.9,0.6-1.2,1c-0.3,0.5-0.6,1-0.7,1.5c-0.1,0.6-0.2,1.1-0.2,1.7v11.7H392v-22.2h6.9v3.6h0.1
	c0.3-0.5,0.6-0.9,1-1.3c0.4-0.5,0.9-0.9,1.5-1.2s1.2-0.6,1.9-0.8c0.7-0.2,1.4-0.3,2.1-0.3c1.3,0,2.5,0.2,3.7,0.8
	c1,0.5,1.8,1.1,2.4,2c0.7,0.8,1.1,1.8,1.3,2.8c0.3,1,0.4,2.1,0.4,3.2v13.4H406.3z"/>
</svg>
