<?xml version="1.0" encoding="utf-8"?>
<!-- Generator: Adobe Illustrator 24.0.0, SVG Export Plug-In . SVG Version: 6.00 Build 0)  -->
<svg version="1.1" id="Layer_1" xmlns="http://www.w3.org/2000/svg" xmlns:xlink="http://www.w3.org/1999/xlink" x="0px" y="0px"
	 viewBox="0 0 579 325.6" style="enable-background:new 0 0 579 325.6;" xml:space="preserve">
<style type="text/css">
	.st0{fill:#6C5BEB;}
	.st1{fill:#19191F;}
	.st2{fill-rule:evenodd;clip-rule:evenodd;fill:#19191F;}
</style>
<title>InfobaleenNKlogo</title>
<g>
	<rect x="132" y="102.3" class="st0" width="21.5" height="121.1"/>
	<path class="st1" d="M378.6,165.3c0-1.1-0.4-2.1-1.1-2.9c-0.8-0.9-2-1.3-3.2-1.2c-0.7,0-1.4,0.1-2,0.3s-1.1,0.5-1.6,0.9
		c-0.4,0.4-0.8,0.8-1.1,1.3c-0.3,0.5-0.4,1-0.4,1.6L378.6,165.3z M385.4,168.1v0.9c0,0.3,0,0.6-0.1,0.8h-16.1c0,0.6,0.2,1.1,0.5,1.6
		s0.7,0.9,1.2,1.3c0.5,0.4,1.1,0.6,1.6,0.8c0.6,0.2,1.3,0.3,1.9,0.3c1,0,2-0.2,2.9-0.6c0.8-0.4,1.5-1,2-1.6l5.1,3.1
		c-1.1,1.5-2.5,2.7-4.1,3.4c-1.9,0.8-3.9,1.2-6,1.1c-1.6,0-3.2-0.2-4.7-0.7c-1.4-0.5-2.8-1.3-3.9-2.2c-1.1-1-2-2.2-2.6-3.6
		c-0.6-1.5-1-3.2-0.9-4.9c0-1.6,0.3-3.3,0.9-4.8c0.6-1.4,1.4-2.6,2.5-3.7c1.1-1,2.4-1.8,3.8-2.3c1.5-0.6,3.1-0.8,4.7-0.8
		c1.5,0,3.1,0.3,4.5,0.8c1.3,0.5,2.5,1.3,3.5,2.3c1,1.1,1.8,2.3,2.3,3.7C385.1,164.6,385.4,166.3,385.4,168.1L385.4,168.1z"/>
	<path class="st1" d="M410.4,165.3c0-1.1-0.4-2.1-1.1-2.9c-0.8-0.9-2.1-1.3-3.3-1.2c-0.7,0-1.4,0.1-2,0.3s-1.1,0.5-1.6,0.9
		c-0.4,0.4-0.8,0.8-1.1,1.3c-0.2,0.5-0.4,1-0.4,1.6C400.9,165.3,410.4,165.3,410.4,165.3z M417.1,168.1v0.9c0,0.3,0,0.6,0,0.8H401
		c0.1,0.6,0.2,1.1,0.5,1.6s0.7,0.9,1.2,1.3c0.5,0.4,1.1,0.6,1.7,0.8s1.3,0.3,1.9,0.3c1,0,2.1-0.2,3-0.6c0.8-0.4,1.5-1,2-1.6l5.1,3.1
		c-1.1,1.5-2.5,2.7-4.1,3.4c-1.9,0.8-4,1.2-6.1,1.1c-1.6,0-3.2-0.2-4.7-0.7c-1.4-0.5-2.8-1.3-3.9-2.2c-1.1-1-2-2.2-2.6-3.6
		c-0.7-1.5-1-3.2-0.9-4.9c0-1.6,0.3-3.3,0.9-4.8c0.6-1.4,1.4-2.6,2.5-3.7c1.1-1,2.4-1.8,3.8-2.3c1.5-0.6,3.1-0.8,4.7-0.8
		c1.5,0,3.1,0.3,4.5,0.8c1.3,0.5,2.5,1.3,3.5,2.3c1,1.1,1.8,2.3,2.3,3.7C416.8,164.7,417.1,166.3,417.1,168.1L417.1,168.1z"/>
	<path class="st1" d="M346.3,179.3v-32.9h7.3v32.9H346.3z"/>
	<path class="st2" d="M177.9,151.3c0-2.2,1.8-4.1,4.1-4.1c2.2,0,4.1,1.8,4.1,4.1c0,2.2-1.8,4.1-4,4.1
		C179.7,155.4,177.9,153.6,177.9,151.3L177.9,151.3z M178.3,157.1v22.2h7.3v-22.2H178.3z"/>
	<path class="st1" d="M329.6,169.7h-0.9c-0.8,0-1.6,0-2.4,0.1c-0.7,0-1.4,0.2-2.1,0.4c-0.6,0.2-1.1,0.5-1.5,0.9s-0.6,1-0.6,1.5
		c0,0.4,0.1,0.7,0.3,1.1c0.2,0.3,0.4,0.5,0.7,0.7c0.3,0.2,0.6,0.3,1,0.4c0.4,0.1,0.7,0.1,1.1,0.1c1.2,0.1,2.4-0.3,3.3-1.2
		c0.8-0.9,1.2-2.1,1.2-3.3L329.6,169.7z M316.6,160.3c1.3-1.2,2.8-2.2,4.4-2.8c1.7-0.6,3.4-0.9,5.2-0.9c1.6,0,3.1,0.2,4.6,0.7
		c1.2,0.4,2.3,1.1,3.1,2.1c0.8,1.1,1.4,2.3,1.7,3.6c0.4,1.7,0.6,3.4,0.6,5.1v11.1h-6.5v-2.4h-0.1c-0.6,0.9-1.5,1.7-2.5,2.1
		c-1.1,0.5-2.4,0.8-3.6,0.7c-0.9,0-1.8-0.1-2.7-0.4c-0.9-0.2-1.8-0.6-2.6-1.1c-0.8-0.6-1.4-1.3-1.9-2.1c-0.5-1-0.8-2.1-0.7-3.2
		c-0.1-1.4,0.4-2.7,1.2-3.8c0.9-1,2-1.8,3.3-2.2c1.4-0.6,3-0.9,4.5-1c1.6-0.2,3.2-0.3,4.8-0.3v-0.3c0.1-0.9-0.4-1.8-1.1-2.4
		c-0.8-0.5-1.8-0.8-2.8-0.8s-2,0.2-2.9,0.7c-0.9,0.4-1.7,0.9-2.4,1.6L316.6,160.3z"/>
	<path class="st1" d="M306.9,167.8c0,1.5-0.2,2.9-0.7,4.3c-0.4,1.3-1.1,2.6-2,3.7c-0.9,1.1-2,1.9-3.2,2.5c-1.3,0.7-2.8,1-4.3,1
		c-1.4,0-2.8-0.3-4.1-0.9c-1.2-0.5-2.3-1.4-3-2.6h-0.2v3.4h-6.6v-33.3h7.1v13.5h0.1c0.7-0.8,1.6-1.5,2.6-2c1.2-0.6,2.6-0.9,4-0.9
		c1.5,0,2.9,0.3,4.2,0.9c1.2,0.6,2.3,1.4,3.2,2.5c0.9,1.1,1.6,2.3,2,3.6C306.6,164.9,306.9,166.4,306.9,167.8z M300,167.8
		c0-0.7-0.1-1.4-0.3-2c-0.2-0.6-0.5-1.2-1-1.7c-0.4-0.5-1-1-1.6-1.3c-0.7-0.3-1.4-0.5-2.1-0.5s-1.5,0.1-2.2,0.5
		c-0.6,0.3-1.2,0.7-1.6,1.3c-0.4,0.5-0.8,1.1-1,1.8c-0.5,1.3-0.5,2.8,0,4.1c0.2,0.6,0.6,1.2,1,1.8c0.5,0.5,1,1,1.6,1.3
		c0.7,0.3,1.4,0.5,2.2,0.5c0.8,0,1.5-0.1,2.2-0.5c0.6-0.3,1.2-0.7,1.6-1.3c0.4-0.5,0.8-1.1,1-1.8C300,169.2,300.1,168.5,300,167.8
		L300,167.8z"/>
	<path class="st1" d="M274.3,167.7c0,1.7-0.3,3.3-1,4.8c-0.6,1.4-1.5,2.6-2.6,3.7c-1.1,1-2.4,1.8-3.7,2.3c-1.5,0.6-3.1,0.8-4.6,0.8
		c-1.6,0-3.2-0.3-4.6-0.8s-2.7-1.3-3.8-2.3s-2-2.3-2.6-3.7c-0.7-1.5-1-3.2-1-4.8c0-1.7,0.3-3.3,1-4.8c0.6-1.4,1.5-2.6,2.5-3.6
		c1.1-1,2.4-1.8,3.8-2.3c1.5-0.5,3.1-0.8,4.6-0.8c1.6,0,3.2,0.3,4.6,0.8c1.4,0.5,2.7,1.3,3.8,2.3s2,2.2,2.6,3.6
		C274,164.4,274.3,166.1,274.3,167.7z M267.5,167.7c0-0.7-0.1-1.4-0.3-2c-0.2-0.6-0.6-1.2-1-1.7s-1-1-1.6-1.3c-1.4-0.6-3-0.6-4.4,0
		c-0.6,0.3-1.2,0.7-1.6,1.3c-0.4,0.5-0.8,1.1-1,1.7c-0.4,1.3-0.4,2.8,0,4.1c0.2,0.7,0.6,1.3,1,1.8s1,1,1.6,1.3c1.4,0.6,3,0.6,4.4,0
		c0.6-0.3,1.2-0.7,1.6-1.3c0.4-0.5,0.8-1.2,1-1.8C267.3,169.1,267.5,168.4,267.5,167.7z"/>
	<path class="st1" d="M243,152c-0.3-0.1-0.6-0.2-0.9-0.2c-0.4-0.1-0.7-0.1-1.1-0.1c-0.6,0-1.1,0.1-1.7,0.3c-0.4,0.2-0.8,0.6-1,1
		s-0.4,0.8-0.5,1.3s-0.1,1-0.1,1.5v1.3h5v5.1h-5v17h-7.3v-17.1h-4.1V157h4.1v-1.3c0-1.3,0.1-2.5,0.4-3.7c0.3-1.1,0.8-2.2,1.5-3.1
		c0.8-1,1.8-1.7,2.9-2.1c1.5-0.6,3.1-0.9,4.6-0.8c0.6,0,1.2,0,1.8,0.1c0.6,0.1,1.1,0.2,1.7,0.3L243,152z"/>
	<path class="st1" d="M210.5,179.3v-11.8c0-0.6-0.1-1.2-0.2-1.7c-0.1-0.5-0.2-1-0.5-1.5c-0.2-0.4-0.6-0.8-1-1
		c-0.5-0.3-1-0.4-1.6-0.4s-1.2,0.1-1.7,0.4c-0.5,0.2-0.9,0.6-1.2,1c-0.3,0.5-0.6,1-0.7,1.5c-0.1,0.6-0.2,1.1-0.2,1.7v11.7h-7.2V157
		h6.9v3.6h0.1c0.3-0.5,0.6-0.9,1-1.3c0.4-0.5,0.9-0.9,1.5-1.2s1.2-0.6,1.9-0.8s1.4-0.3,2.1-0.3c1.3,0,2.6,0.2,3.7,0.8
		c1,0.5,1.8,1.2,2.4,2c0.6,0.8,1.1,1.8,1.3,2.8c0.3,1,0.4,2.1,0.4,3.2v13.4h-7V179.3z"/>
	<path class="st1" d="M440,179.3v-11.8c0-0.6-0.1-1.2-0.2-1.7s-0.2-1-0.5-1.4c-0.2-0.4-0.6-0.8-1-1c-0.5-0.3-1-0.4-1.6-0.4
		s-1.2,0.1-1.7,0.4c-0.5,0.2-0.9,0.6-1.2,1c-0.3,0.5-0.6,1-0.7,1.5c-0.1,0.6-0.2,1.1-0.2,1.7v11.7h-7.2v-22.2h6.9v3.6h0.1
		c0.3-0.5,0.6-0.9,1-1.3c0.4-0.5,0.9-0.9,1.5-1.2s1.2-0.6,1.9-0.8c0.7-0.2,1.4-0.3,2.1-0.3c1.3,0,2.5,0.2,3.7,0.8
		c1,0.5,1.8,1.1,2.4,2c0.7,0.8,1.1,1.8,1.3,2.8c0.3,1,0.4,2.1,0.4,3.2v13.4H440z"/>
</g>
</svg>
