<?xml version="1.0" encoding="utf-8"?>
<!-- Generator: Adobe Illustrator 23.1.1, SVG Export Plug-In . SVG Version: 6.00 Build 0)  -->
<svg version="1.1" id="Layer_1" xmlns="http://www.w3.org/2000/svg" xmlns:xlink="http://www.w3.org/1999/xlink" x="0px" y="0px"
	 viewBox="0 0 340.4 280.8" style="enable-background:new 0 0 340.4 280.8;" xml:space="preserve">
<style type="text/css">
	.st0{fill:none;stroke:#231F20;stroke-width:4;stroke-miterlimit:10;}
	.st1{fill:#F1F1F2;stroke:#000000;stroke-width:2;stroke-miterlimit:10;}
	.st2{fill:none;stroke:#743A91;stroke-width:16;stroke-miterlimit:10;}
	.st3{fill:#CEBAD9;}
	.st4{fill:#743A91;}
	.st5{fill:#AC89BD;}
	.st6{fill:#BA9DC8;}
	.st7{fill:#DCCEE3;}
	.st8{fill:none;stroke:#743A91;stroke-width:8;stroke-miterlimit:10;}
	.st9{fill:none;stroke:#743A91;stroke-width:6;stroke-miterlimit:10;}
	.st10{fill:none;stroke:#743A91;stroke-width:2;stroke-miterlimit:10;}
	.st11{fill:none;stroke:#3B8541;stroke-width:16;stroke-miterlimit:10;}
	.st12{fill:#BAD4BD;}
	.st13{fill:#3B8541;}
	.st14{fill:#89B68D;}
	.st15{fill:#9DC2A0;}
	.st16{fill:#CEE1D0;}
	.st17{fill:none;stroke:#3B8541;stroke-width:8;stroke-miterlimit:10;}
	.st18{fill:none;stroke:#3B8541;stroke-width:6;stroke-miterlimit:10;}
	.st19{fill:none;stroke:#3B8541;stroke-width:2;stroke-miterlimit:10;}
</style>
<title>HigherOrderNetworkModels</title>
<line class="st0" x1="278.9" y1="62" x2="278.4" y2="221.1"/>
<line class="st0" x1="62" y1="66.5" x2="61.5" y2="225.5"/>
<line class="st0" x1="60.9" y1="221.2" x2="168" y2="142.9"/>
<line class="st0" x1="169.8" y1="140.1" x2="279.6" y2="61.4"/>
<line class="st0" x1="60.5" y1="61.8" x2="168" y2="140.1"/>
<line class="st0" x1="170.7" y1="140.1" x2="278.4" y2="220.8"/>
<path class="st1" d="M200.8,140.4c0-16.9-13.7-30.6-30.6-30.5s-30.6,13.7-30.5,30.6c0,16.9,13.7,30.5,30.6,30.5
	C187.1,171,200.8,157.3,200.8,140.4C200.8,140.4,200.8,140.4,200.8,140.4z"/>
<path class="st1" d="M92.3,60.5c0-16.9-13.7-30.6-30.6-30.6c-16.9,0-30.6,13.7-30.6,30.6c0,16.9,13.7,30.6,30.6,30.6c0,0,0,0,0,0
	C78.6,91.1,92.3,77.4,92.3,60.5z"/>
<circle class="st1" cx="61.7" cy="220.3" r="30.6"/>
<path class="st1" d="M309.2,60.5c0-16.9-13.7-30.6-30.6-30.6c-16.9,0-30.6,13.7-30.6,30.6s13.7,30.6,30.6,30.6c0,0,0,0,0,0
	C295.6,91.1,309.2,77.4,309.2,60.5z"/>
<path class="st1" d="M309.2,220.3c0-16.9-13.7-30.6-30.6-30.6c-16.9,0-30.6,13.7-30.6,30.6s13.7,30.6,30.6,30.6l0,0
	C295.6,250.9,309.2,237.2,309.2,220.3C309.2,220.3,309.2,220.3,309.2,220.3z"/>
<line class="st2" x1="107.4" y1="203.9" x2="160.3" y2="164.7"/>
<path class="st3" d="M106.8,204.4c-3.7,0.1-7.5-0.5-10.9-1.9l11.8-8.8c3.7,1.4,7.6,1.9,11.5,1.5L106.8,204.4z"/>
<path class="st3" d="M119.2,195.2c-1.5,3.6-2.2,7.5-1.9,11.4l-11.8,8.8c-0.3-3.7,0.2-7.5,1.4-11L119.2,195.2z"/>
<path class="st4" d="M108.4,193.2c3.7,1.4,7.6,1.9,11.5,1.5c-1.5,3.6-2.2,7.5-1.9,11.4l-1.6,1.2c-0.3-3.7,0.2-7.5,1.4-11
	c-3.7,0.1-7.5-0.5-10.9-1.9L108.4,193.2z"/>
<path class="st5" d="M104.5,196.1c3.6,1.4,7.6,1.9,11.5,1.5c-1.5,3.6-2.2,7.5-1.9,11.4l-1.6,1.2c-0.3-3.7,0.2-7.5,1.4-11
	c-3.7,0.1-7.5-0.5-10.9-1.9L104.5,196.1z"/>
<path class="st6" d="M100.7,198.9c3.6,1.4,7.6,1.9,11.5,1.5c-1.5,3.6-2.2,7.5-1.9,11.4l-1.6,1.2c-0.3-3.7,0.2-7.4,1.3-10.9
	c-3.7,0.1-7.5-0.5-10.9-1.9L100.7,198.9z"/>
<path class="st7" d="M96.9,201.7c3.7,1.4,7.6,1.9,11.5,1.5c-1.5,3.6-2.2,7.5-1.9,11.4l-1.6,1.2c-0.3-3.7,0.2-7.5,1.4-11
	c-3.7,0.1-7.5-0.5-10.9-1.9L96.9,201.7z"/>
<path class="st8" d="M157.6,161.7c14-10.9,4.8-20.9-8.2-10.9l-30.6,22.5"/>
<polygon class="st4" points="118.6,164.9 101.8,185.9 126.8,176.1 "/>
<path class="st9" d="M161.9,167.2c11.4-8.6,9.8-23.8,2-29.2l-54.6-39.5"/>
<path class="st10" d="M164.3,170.4c7.9-6.5,21.2-15.7,29-9.9l32.3,24"/>
<line class="st11" x1="230.9" y1="80" x2="177.8" y2="118.9"/>
<path class="st12" d="M231.5,79.6c3.7-0.1,7.5,0.6,10.9,1.9l-11.9,8.7c-3.6-1.4-7.6-2-11.4-1.6L231.5,79.6z"/>
<path class="st12" d="M219.1,88.7c1.5-3.6,2.2-7.5,2-11.4l11.9-8.7c0.3,3.7-0.2,7.5-1.5,11L219.1,88.7z"/>
<path class="st13" d="M229.9,90.7c-3.6-1.4-7.6-1.9-11.4-1.6c1.5-3.6,2.2-7.5,2-11.4l1.6-1.2c0.3,3.7-0.2,7.5-1.5,11
	c3.7-0.1,7.4,0.6,10.9,1.9L229.9,90.7z"/>
<path class="st14" d="M233.7,87.9c-3.6-1.4-7.6-2-11.4-1.6c1.5-3.6,2.2-7.5,2-11.4l1.6-1.2c0.3,3.7-0.2,7.5-1.4,11
	c3.7-0.1,7.4,0.6,10.9,1.9L233.7,87.9z"/>
<path class="st15" d="M237.6,85.1c-3.6-1.4-7.6-1.9-11.4-1.6c1.5-3.6,2.2-7.5,2-11.4l1.6-1.2c0.3,3.7-0.2,7.5-1.4,11
	c3.7-0.1,7.5,0.6,10.9,1.9L237.6,85.1z"/>
<path class="st16" d="M241.4,82.3c-3.6-1.4-7.5-1.9-11.4-1.5c1.5-3.6,2.2-7.5,2-11.4l1.6-1.2c0.3,3.7-0.2,7.5-1.4,11
	c3.7-0.1,7.4,0.6,10.9,1.9L241.4,82.3z"/>
<path class="st17" d="M180.4,121.9c-10.4,6.6-2.4,18.3,7.7,11.2c3.4-2.4,18.2-13.1,30.4-22"/>
<polygon class="st13" points="218.6,119.6 235.6,98.6 210.4,108.3 "/>
<path class="st18" d="M176.1,116.3c-11.5,8.5-8.3,20-0.4,26.1c16.5,13,53.9,40,53.9,40"/>
<path class="st19" d="M173.8,113.1c-8,6.5-15.8,16-23.5,10.2l-39.7-28.8"/>
<polygon class="st13" points="229.7,176.1 222.2,186.3 241.4,193.1 "/>
<polygon class="st4" points="109.4,104.9 116.9,94.7 97.8,87.9 "/>
<polygon class="st4" points="224.9,182.8 236.1,191.3 222.2,186.3 "/>
<polygon class="st13" points="114.2,98.3 101.6,89.3 116.9,94.7 "/>
</svg>
