<svg xmlns="http://www.w3.org/2000/svg" xmlns:xlink="http://www.w3.org/1999/xlink" width="340.39" height="280.79" viewBox="0 0 340.39 280.79"><defs><style>.a,.d,.f,.l,.m,.n,.o,.u,.v,.w{fill:none;}.b{clip-path:url(#a);}.c,.e{fill:#f1f1f2;}.d{stroke:#231f20;stroke-width:4px;}.d,.e,.f,.l,.m,.n,.o,.u,.v,.w{stroke-miterlimit:10;}.e{stroke:#000;}.e,.n,.w{stroke-width:2px;}.f,.l,.m,.n{stroke:#743a91;}.f,.o{stroke-width:16px;}.g{fill:#cebad9;}.h{fill:#743a91;}.i{fill:#ac89bd;}.j{fill:#ba9dc8;}.k{fill:#dccee3;}.l,.u{stroke-width:8px;}.m,.v{stroke-width:6px;}.o,.u,.v,.w{stroke:#3b8541;}.p{fill:#bad4bd;}.q{fill:#3b8541;}.r{fill:#89b68d;}.s{fill:#9dc2a0;}.t{fill:#cee1d0;}</style><clipPath id="a"><rect class="a" width="340.39" height="280.79"/></clipPath></defs><title>HigherOrderNetworkModels</title><g class="b"><rect class="c" width="340.39" height="280.79"/></g><line class="d" x1="278.93" y1="61.99" x2="278.43" y2="221.05"/><line class="d" x1="61.96" y1="66.48" x2="61.46" y2="225.54"/><line class="d" x1="60.92" y1="221.2" x2="167.96" y2="142.88"/><line class="d" x1="169.82" y1="140.1" x2="279.56" y2="61.37"/><line class="d" x1="60.53" y1="61.76" x2="167.96" y2="140.1"/><line class="d" x1="170.74" y1="140.1" x2="278.37" y2="220.8"/><path class="e" d="M200.76,140.4A30.57,30.57,0,1,0,170.2,171,30.56,30.56,0,0,0,200.76,140.4Z"/><path class="e" d="M92.28,60.5A30.57,30.57,0,1,0,61.71,91.06,30.57,30.57,0,0,0,92.28,60.5Z"/><circle class="e" cx="61.71" cy="220.29" r="30.57"/><path class="e" d="M309.25,60.5a30.57,30.57,0,1,0-30.57,30.56A30.57,30.57,0,0,0,309.25,60.5Z"/><path class="e" d="M309.25,220.29a30.57,30.57,0,1,0-30.57,30.57A30.56,30.56,0,0,0,309.25,220.29Z"/><line class="f" x1="107.36" y1="203.93" x2="160.26" y2="164.69"/><path class="g" d="M106.79,204.35a28.16,28.16,0,0,1-10.94-1.85l11.83-8.77a24.7,24.7,0,0,0,11.47,1.46Z"/><path class="g" d="M119.15,195.19a25.62,25.62,0,0,0-1.93,11.4l-11.8,8.75a28,28,0,0,1,1.37-11Z"/><path class="h" d="M108.37,193.22a24.67,24.67,0,0,0,11.46,1.46,25.61,25.61,0,0,0-1.92,11.4l-1.59,1.18a27.82,27.82,0,0,1,1.38-11,28.3,28.3,0,0,1-10.94-1.86Z"/><path class="i" d="M104.54,196.05A24.55,24.55,0,0,0,116,197.52a25.75,25.75,0,0,0-1.92,11.4l-1.58,1.18a27.63,27.63,0,0,1,1.37-11,28.33,28.33,0,0,1-10.94-1.86Z"/><path class="j" d="M100.71,198.89a24.55,24.55,0,0,0,11.46,1.47,25.75,25.75,0,0,0-1.92,11.4l-1.58,1.18A27.63,27.63,0,0,1,110,202a28.33,28.33,0,0,1-10.94-1.86Z"/><path class="k" d="M96.88,201.73a24.58,24.58,0,0,0,11.47,1.47,25.47,25.47,0,0,0-1.92,11.4l-1.59,1.18a27.63,27.63,0,0,1,1.37-11,28.33,28.33,0,0,1-10.94-1.86Z"/><path class="l" d="M157.63,161.68c14-10.89,4.79-20.85-8.22-10.85l-30.55,22.51"/><polygon class="h" points="118.56 164.91 101.75 185.95 126.83 176.13 118.56 164.91"/><path class="m" d="M161.93,167.22c11.41-8.62,9.81-23.8,2-29.25L109.3,98.46"/><path class="n" d="M164.29,170.42c7.91-6.53,21.25-15.66,29-9.85l32.27,24"/><line class="o" x1="230.95" y1="80.04" x2="177.75" y2="118.88"/><path class="p" d="M231.52,79.62a28.13,28.13,0,0,1,10.93,1.94l-11.9,8.68a24.5,24.5,0,0,0-11.45-1.55Z"/><path class="p" d="M219.1,88.69a25.47,25.47,0,0,0,2-11.39L233,68.64a27.81,27.81,0,0,1-1.46,11Z"/><path class="q" d="M229.86,90.74a24.65,24.65,0,0,0-11.45-1.55,25.54,25.54,0,0,0,2-11.38l1.6-1.17a28,28,0,0,1-1.46,11,28.23,28.23,0,0,1,10.92,1.94Z"/><path class="r" d="M233.71,87.94a24.52,24.52,0,0,0-11.45-1.56,25.54,25.54,0,0,0,2-11.38l1.59-1.17a27.78,27.78,0,0,1-1.45,11,28.23,28.23,0,0,1,10.92,1.94Z"/><path class="s" d="M237.56,85.12a24.65,24.65,0,0,0-11.45-1.55,25.57,25.57,0,0,0,2-11.38L229.71,71a27.78,27.78,0,0,1-1.45,11,28.31,28.31,0,0,1,10.93,1.94Z"/><path class="t" d="M241.41,82.31A24.63,24.63,0,0,0,230,80.76a25.57,25.57,0,0,0,2-11.38l1.59-1.17a27.78,27.78,0,0,1-1.45,11A28.31,28.31,0,0,1,243,81.13Z"/><path class="u" d="M180.37,121.91c-10.38,6.61-2.4,18.25,7.69,11.24,3.39-2.35,18.17-13.11,30.35-22"/><polygon class="q" points="218.61 119.57 235.57 98.64 210.42 108.29 218.61 119.57"/><path class="v" d="M176.11,116.33c-11.48,8.53-8.26,20-.44,26.14,16.53,13,53.91,40,53.91,40"/><path class="w" d="M173.77,113.12c-8,6.46-15.79,16-23.52,10.16L110.57,94.47"/><polygon class="q" points="229.71 176.15 222.22 186.34 241.35 193.14 229.71 176.15"/><polygon class="h" points="109.4 104.89 116.89 94.7 97.76 87.9 109.4 104.89"/><polygon class="h" points="224.86 182.76 236.15 191.29 222.22 186.34 224.86 182.76"/><polygon class="q" points="114.21 98.35 101.61 89.27 116.89 94.7 114.21 98.35"/></svg>