<?xml version="1.0" encoding="utf-8"?>
<!-- Generator: Adobe Illustrator 23.1.1, SVG Export Plug-In . SVG Version: 6.00 Build 0)  -->
<svg version="1.1"
	 id="Layer_1" xmlns:cc="http://creativecommons.org/ns#" xmlns:dc="http://purl.org/dc/elements/1.1/" xmlns:rdf="http://www.w3.org/1999/02/22-rdf-syntax-ns#"
	 xmlns="http://www.w3.org/2000/svg" xmlns:xlink="http://www.w3.org/1999/xlink" x="0px" y="0px" viewBox="0 0 447.4 251.7"
	 style="enable-background:new 0 0 447.4 251.7;" xml:space="preserve">
<style type="text/css">
	.st0{fill:none;stroke:url(#SVGID_1_);}
	.st1{display:none;}
	.st2{fill:none;stroke:url(#SVGID_2_);stroke-width:2;}
	.st3{fill:none;stroke:url(#SVGID_3_);stroke-width:3;}
	.st4{fill:none;stroke:url(#SVGID_4_);stroke-width:5;}
	.st5{fill:none;stroke:url(#SVGID_5_);stroke-width:4;}
	.st6{fill:none;stroke:url(#SVGID_6_);stroke-width:2;}
	.st7{fill:none;stroke:#26443C;stroke-width:1.5;}
	.st8{fill:none;stroke:url(#SVGID_7_);stroke-width:1.5;}
	.st9{fill:none;stroke:#8A1F11;}
	.st10{fill:none;stroke:#8A1F11;stroke-width:1.5;}
	.st11{fill:none;stroke:url(#SVGID_8_);stroke-width:1.5;}
	.st12{fill:none;stroke:#876500;stroke-width:2;}
	.st13{fill:none;stroke:#205791;stroke-width:2.5;}
	.st14{fill:none;stroke:#205791;stroke-width:2;}
	.st15{fill:none;stroke:#205791;stroke-width:1.5;}
	.st16{fill:none;stroke:#205791;}
	.st17{fill:#92CAE4;stroke:#2067BC;}
	.st18{fill:#C6D880;stroke:#26443C;}
	.st19{fill:#FFD324;stroke:#876500;}
	.st20{fill:#FBC2C4;stroke:#8A1F11;}
	.st21{fill:#CCCCB8;stroke:#90907C;stroke-opacity:0.8941;}
</style>
<linearGradient id="SVGID_1_" gradientUnits="userSpaceOnUse" x1="221.8405" y1="91.9314" x2="236.4505" y2="89.9654" gradientTransform="matrix(1 0 0 -1 -0.5 252.1812)">
	<stop  offset="0" style="stop-color:#205791"/>
	<stop  offset="1" style="stop-color:#8A1F11"/>
</linearGradient>
<path class="st0" d="M216.2,158.9c8.5,2.8,14.7,3.7,22.3,3.1"/>
<g transform="translate(-147.51285,-174.8889)" class="st1">
	
		<image style="display:inline;overflow:visible;enable-background:new    ;" width="400" height="117" xlink:href="97593AE0E1E0004.png"  transform="matrix(1 0 0 1 170.67 243.9206)">
	</image>
</g>
<linearGradient id="SVGID_2_" gradientUnits="userSpaceOnUse" x1="337.26" y1="97.644" x2="402.9" y2="97.644" gradientTransform="matrix(1 0 0 -1 -0.5 252.1813)">
	<stop  offset="0" style="stop-color:#205791"/>
	<stop  offset="1" style="stop-color:#8A1F11"/>
</linearGradient>
<path class="st2" d="M337.8,153.6c19.4,2.2,48,5.7,63.6-1.1"/>
<linearGradient id="SVGID_3_" gradientUnits="userSpaceOnUse" x1="399.0316" y1="133.4615" x2="400.1915" y2="110.4205" gradientTransform="matrix(1 0 0 -1 -0.5 252.1813)">
	<stop  offset="0" style="stop-color:#876500"/>
	<stop  offset="1" style="stop-color:#8A1F11"/>
</linearGradient>
<path class="st3" d="M400.6,151.8c-3.4-15.4-4.8-48.8-0.6-50.4"/>
<linearGradient id="SVGID_4_" gradientUnits="userSpaceOnUse" x1="361.7512" y1="114.262" x2="386.5212" y2="137.865" gradientTransform="matrix(1 0 0 -1 -0.5 252.1813)">
	<stop  offset="0" style="stop-color:#2067BC"/>
	<stop  offset="1" style="stop-color:#876500"/>
</linearGradient>
<path class="st4" d="M338.8,153.3c23.4-10,46.6-29.3,60.8-50.1"/>
<linearGradient id="SVGID_5_" gradientUnits="userSpaceOnUse" x1="351.763" y1="155.9045" x2="377.153" y2="153.6565" gradientTransform="matrix(1 0 0 -1 -0.5 252.1813)">
	<stop  offset="0" style="stop-color:#26443C"/>
	<stop  offset="1" style="stop-color:#876500"/>
</linearGradient>
<path class="st5" d="M333.5,92.2c13,5,50.5,11,65.8,9.6"/>
<linearGradient id="SVGID_6_" gradientUnits="userSpaceOnUse" x1="212.8902" y1="133.9586" x2="223.0502" y2="140.9826" gradientTransform="matrix(1 0 0 -1 -0.5 252.1813)">
	<stop  offset="0" style="stop-color:#2067BC"/>
	<stop  offset="1" style="stop-color:#876500"/>
</linearGradient>
<path class="st6" d="M208.1,120.4c9.3-3.9,10.4-5.7,17.1-11.4"/>
<g transform="translate(-0.5,-0.5)">
	<path class="st7" d="M188.6,108.4c8,0.8,13.5,1,21.2-1.4"/>
	<path class="st7" d="M189.1,108.1c5.7-8.3,8.1-12.5,11.6-16.3"/>
	<path class="st7" d="M182.4,91.6c7.6,1.6,11.6,1.8,17.9,0.3"/>
	<path class="st7" d="M194.1,75.7c0.4,5.7,2,14.3,6.1,16.4"/>
	<path class="st7" d="M200.9,91.7c1.4,5.7,4.3,11,8.7,14.9c5.7-6.9,7.4-15.4,9.3-22.4"/>
	<path class="st7" d="M201.7,91.6c6.6-1.1,11.6-2.3,16.7-7.8"/>
	<path class="st7" d="M194.6,75.3c7.4,4.5,15.8,7.8,23.4,8.1"/>
</g>
<linearGradient id="SVGID_7_" gradientUnits="userSpaceOnUse" x1="222.5059" y1="167.453" x2="234.0959" y2="166.048" gradientTransform="matrix(1 0 0 -1 -0.5 252.1813)">
	<stop  offset="0" style="stop-color:#26443C"/>
	<stop  offset="1" style="stop-color:#876500"/>
</linearGradient>
<path class="st8" d="M219.6,83.5c6.8,2.9,9.5,3.5,17.7,3"/>
<g transform="translate(-0.5,-0.5)">
	<path class="st9" d="M240.1,162.7c8.5,2.8,20.1,3.2,27.7,2.5"/>
	<path class="st10" d="M240.3,162.6c2.8,4.9,4.7,8.5,10.1,13.8"/>
	<path class="st10" d="M249.9,177.1c9.1-3.5,11.2-4.7,17.9-11.5"/>
	<path class="st10" d="M258.2,150.4c1.3,5.6,4.3,10.4,9.7,15"/>
	<path class="st10" d="M240.1,162.2c6.9-2.1,13.6-8.8,17.6-13.4"/>
</g>
<linearGradient id="SVGID_8_" gradientUnits="userSpaceOnUse" x1="250.1092" y1="117.235" x2="254.4192" y2="107.681" gradientTransform="matrix(1 0 0 -1 -0.5 252.1813)">
	<stop  offset="0" style="stop-color:#876500"/>
	<stop  offset="1" style="stop-color:#8A1F11"/>
</linearGradient>
<path class="st11" d="M248,130.7c2.9,8.2,2.7,12.8,8.7,17.4"/>
<g transform="translate(-0.5,-0.5)">
	<path class="st12" d="M249.2,131.4c11.9-4.4,20.1-9.3,27.1-17.3"/>
	<path class="st12" d="M249.6,115.8c-1.3,5.9-1.2,8.9,0.3,15.5"/>
	<path class="st12" d="M226.7,109.9c10.9,11.7,16.3,18.7,22.2,21.7"/>
	<path class="st12" d="M226.8,108.3c8.7-11.5,8-13,11.4-21c12.8,4.3,13.8,4.2,28.3,3.4"/>
	<path class="st12" d="M238.1,87.3c2.4,6.8,4.4,10.7,11.5,14.3"/>
	<path class="st12" d="M250.8,102.1c-1.7,5.7-1.5,7.8-1,13.4"/>
	<path class="st12" d="M249.7,114.8c8.1,1.4,16.5,2.8,26-0.4"/>
	<path class="st12" d="M251.1,104.5c11.4,5.8,15.9,8,25.4,9"/>
	<path class="st12" d="M225.7,111.2c11.1-1.4,19.2-3.2,24.4-9.2c9.2-2.3,11.5-4.3,16.8-9.5"/>
	<path class="st12" d="M267.1,90.3c0.5,8.7,3.2,15.5,9.1,23.1"/>
</g>
<g transform="translate(-0.5,-0.5)">
	<path class="st13" d="M38.3,164.6c7.5-1.8,13.4-5.6,16.7-10.4"/>
	<path class="st13" d="M73.9,158.8c-6.3,3.7-23.6,6.1-35.1,5.4c9.5-7.6,13-16.8,17-24.9C61.1,147.9,65.5,154.1,73.9,158.8
		L73.9,158.8z"/>
	<path class="st13" d="M32.8,142.6c10,0.9,16.7-0.5,23-3.5"/>
	<path class="st13" d="M55.6,141.1c-6.3-2.5-13.4-12-16.7-16.8c14.9,1.1,16.9-0.3,26.4-3"/>
	<path class="st13" d="M55.3,138.3c5.8-6.8,6.7-11.6,10.7-17c4,6.9,9.1,12.4,13.5,14.3"/>
	<path class="st13" d="M55.9,139.3c11.6,0.1,15.2,0,23.7-3"/>
	<path class="st13" d="M73.8,157.5c2.7-6.7,4.4-13.1,6.1-22.1"/>
	<path class="st14" d="M64.7,120.9c9.3-3.9,10.4-5.7,17.1-11.4"/>
	<path class="st15" d="M44.7,108.4c8,0.8,13.5,1,21.2-1.4"/>
	<path class="st15" d="M45.2,108.1c5.7-8.3,8.1-12.5,11.6-16.3"/>
	<path class="st15" d="M38.5,91.6c7.6,1.6,11.6,1.8,17.9,0.3"/>
	<path class="st15" d="M50.2,75.7c0.4,5.7,2,14.3,6.1,16.4"/>
	<path class="st15" d="M57,91.7c1.4,5.7,4.3,11,8.7,14.9c5.7-6.9,7.4-15.4,9.3-22.4"/>
	<path class="st15" d="M57.8,91.6c6.6-1.1,11.6-2.3,16.7-7.8"/>
	<path class="st15" d="M50.7,75.3c7.4,4.5,15.8,7.8,23.4,8.1"/>
	<path class="st15" d="M76.2,84c6.8,2.9,9.5,3.5,17.7,3"/>
	<path class="st16" d="M74.3,159.3c5.1,2.5,13.9,4.4,21.8,3.4c8.5,2.8,20.1,3.2,27.7,2.5"/>
	<path class="st15" d="M96.4,162.6c2.8,4.9,4.7,8.5,10.1,13.8"/>
	<path class="st15" d="M106,177.1c9.1-3.5,11.2-4.7,17.9-11.5"/>
	<path class="st15" d="M114.4,150.4c1.3,5.6,4.3,10.4,9.7,15"/>
	<path class="st15" d="M96.2,162.2c6.9-2.1,13.6-8.8,17.6-13.4"/>
	<path class="st15" d="M104.6,131.2c2.9,8.2,2.7,12.8,8.7,17.4"/>
	<path class="st14" d="M105.3,131.4c11.9-4.4,20.1-9.3,27.1-17.3"/>
	<path class="st14" d="M105.7,115.8c-1.3,5.9-1.2,8.9,0.3,15.5"/>
	<path class="st14" d="M82.8,109.9c10.9,11.7,16.3,18.7,22.2,21.7"/>
	<path class="st14" d="M82.9,108.3c8.7-11.5,8-13,11.4-21c12.8,4.3,13.8,4.2,28.3,3.4"/>
	<path class="st14" d="M94.2,87.3c2.4,6.8,4.4,10.7,11.5,14.3"/>
	<path class="st14" d="M106.9,102.1c-1.7,5.7-1.5,7.8-1,13.4"/>
	<path class="st14" d="M105.8,114.8c8.1,1.4,16.5,2.8,26-0.4"/>
	<path class="st14" d="M107.2,104.5c11.4,5.8,15.9,8,25.4,9"/>
	<path class="st14" d="M81.8,111.2c11.1-1.4,19.2-3.2,24.4-9.2c9.2-2.3,11.5-4.3,16.8-9.5"/>
	<path class="st14" d="M123.2,90.3c0.5,8.7,3.2,15.5,9.1,23.1"/>
	<path class="st13" d="M54.9,154.1c4.3,3.4,9.7,4.9,17.7,4.5"/>
	<path class="st13" d="M55.9,140.6c-1.4,4.7-0.6,8.3,0.2,13.6"/>
	<path class="st13" d="M182.2,164.6c7.4-1.8,13.4-5.6,16.7-10.4"/>
	<path class="st13" d="M217.9,158.8c-6.3,3.7-23.6,6.1-35.1,5.4c9.5-7.6,13-16.8,17-24.9C205,147.9,209.4,154.1,217.9,158.8
		L217.9,158.8z"/>
	<path class="st13" d="M176.7,142.6c10,0.9,16.7-0.5,23-3.5"/>
	<path class="st13" d="M199.5,141.1c-6.3-2.5-13.4-12-16.7-16.8c14.9,1.1,16.9-0.3,26.4-3"/>
	<path class="st13" d="M199.2,138.3c5.8-6.8,6.7-11.6,10.7-17c4,6.9,9.1,12.4,13.5,14.3"/>
	<path class="st13" d="M199.8,139.3c11.6,0.1,15.2,0,23.7-3"/>
	<path class="st13" d="M217.7,157.5c2.6-6.7,4.4-13.1,6.1-22.1"/>
	<path class="st13" d="M198.8,154.1c4.3,3.4,9.7,4.9,17.7,4.5"/>
	<path class="st13" d="M199.8,140.6c-1.4,4.7-0.6,8.3,0.2,13.6"/>
</g>
<g transform="translate(-0.5,-0.5)">
	<path class="st17" d="M44,164.2c0,3.1-2.5,5.6-5.6,5.6c-3.1,0-5.6-2.5-5.6-5.6s2.5-5.6,5.6-5.6C41.5,158.6,44,161.1,44,164.2z"/>
	<path class="st17" d="M38.5,142.3c0,3.1-2.5,5.6-5.6,5.6c-3.1,0-5.6-2.5-5.6-5.6s2.5-5.6,5.6-5.6C36,136.8,38.5,139.2,38.5,142.3z"
		/>
	<path class="st17" d="M61,139.1c0,3.1-2.5,5.6-5.6,5.6c-3.1,0-5.6-2.5-5.6-5.6s2.5-5.6,5.6-5.6C58.5,133.5,61,136,61,139.1z"/>
	<path class="st17" d="M60.6,154.3c0,3.1-2.5,5.6-5.6,5.6s-5.6-2.5-5.6-5.6s2.5-5.6,5.6-5.6S60.6,151.2,60.6,154.3z"/>
	<path class="st17" d="M79.2,158.7c0,3.1-2.5,5.6-5.6,5.6c-3.1,0-5.6-2.5-5.6-5.6l0,0c0-3.1,2.5-5.6,5.6-5.6
		C76.7,153.2,79.2,155.7,79.2,158.7z"/>
	<path class="st17" d="M85.3,135.5c0,3.1-2.5,5.6-5.6,5.6s-5.6-2.5-5.6-5.6c0-3.1,2.5-5.6,5.6-5.6S85.3,132.5,85.3,135.5z"/>
	<path class="st17" d="M71,121.2c0,3.1-2.5,5.6-5.6,5.6c-3.1,0-5.6-2.5-5.6-5.6c0-3.1,2.5-5.6,5.6-5.6C68.5,115.7,71,118.2,71,121.2
		z"/>
	<path class="st17" d="M44.4,124.5c0,3.1-2.5,5.6-5.6,5.6s-5.6-2.5-5.6-5.6c0-3.1,2.5-5.6,5.6-5.6S44.4,121.4,44.4,124.5z"/>
	<path class="st17" d="M71.5,106.2c0,3.1-2.5,5.6-5.6,5.6c-3.1,0-5.6-2.5-5.6-5.6c0-3.1,2.5-5.6,5.6-5.6
		C69,100.7,71.5,103.2,71.5,106.2z"/>
	<path class="st17" d="M50.6,108.2c0,3.1-2.5,5.6-5.6,5.6s-5.6-2.5-5.6-5.6c0-3.1,2.5-5.6,5.6-5.6S50.6,105.1,50.6,108.2z"/>
	<path class="st17" d="M45.1,92.3c0,3.1-2.5,5.6-5.6,5.6c-3.1,0-5.6-2.5-5.6-5.6l0,0c0-3.1,2.5-5.6,5.6-5.6S45.1,89.2,45.1,92.3z"/>
	<path class="st17" d="M61.9,92c0,3.1-2.5,5.6-5.6,5.6S50.8,95,50.8,92s2.5-5.6,5.6-5.6S61.9,88.9,61.9,92z"/>
	<path class="st17" d="M56,75.9c0,3.1-2.5,5.6-5.6,5.6c-3.1,0-5.6-2.5-5.6-5.6c0-3.1,2.5-5.6,5.6-5.6S56,72.8,56,75.9z"/>
	<path class="st17" d="M80.5,83.7c0,3.1-2.5,5.6-5.6,5.6c-3.1,0-5.6-2.5-5.6-5.6c0-3.1,2.5-5.6,5.6-5.6C78,78.2,80.5,80.7,80.5,83.7
		z"/>
	<path class="st17" d="M99.9,87.1c0,3.1-2.5,5.6-5.6,5.6s-5.6-2.5-5.6-5.6s2.5-5.6,5.6-5.6S99.9,84.1,99.9,87.1z"/>
	<path class="st17" d="M128.5,90.9c0,3.1-2.5,5.6-5.6,5.6s-5.6-2.5-5.6-5.6s2.5-5.6,5.6-5.6S128.5,87.8,128.5,90.9z"/>
	<path class="st17" d="M112.1,102.3c0,3.1-2.5,5.6-5.6,5.6s-5.6-2.5-5.6-5.6c0-3.1,2.5-5.6,5.6-5.6S112.1,99.2,112.1,102.3z"/>
	<path class="st17" d="M87.8,108.9c0,3.1-2.5,5.6-5.6,5.6s-5.6-2.5-5.6-5.6c0-3.1,2.5-5.6,5.6-5.6S87.8,105.9,87.8,108.9z"/>
	<path class="st17" d="M110.8,115.5c0,3.1-2.5,5.6-5.6,5.6s-5.6-2.5-5.6-5.6c0-3.1,2.5-5.6,5.6-5.6S110.8,112.5,110.8,115.5
		L110.8,115.5z"/>
	<path class="st17" d="M138.1,113.6c0,3.1-2.5,5.6-5.6,5.6c-3.1,0-5.6-2.5-5.6-5.6c0-3.1,2.5-5.6,5.6-5.6
		C135.7,108,138.1,110.5,138.1,113.6z"/>
	<path class="st17" d="M110.8,131.4c0,3.1-2.5,5.6-5.6,5.6s-5.6-2.5-5.6-5.6c0-3.1,2.5-5.6,5.6-5.6S110.8,128.4,110.8,131.4z"/>
	<path class="st17" d="M119,148.9c0,3.1-2.5,5.6-5.6,5.6s-5.6-2.5-5.6-5.6s2.5-5.6,5.6-5.6S119,145.9,119,148.9z"/>
	<path class="st17" d="M102.2,162c0,3.1-2.5,5.6-5.6,5.6s-5.6-2.5-5.6-5.6s2.5-5.6,5.6-5.6S102.2,158.9,102.2,162z"/>
	<path class="st17" d="M112.4,176.4c0,3.1-2.5,5.6-5.6,5.6s-5.6-2.5-5.6-5.6s2.5-5.6,5.6-5.6S112.4,173.4,112.4,176.4z"/>
	<path class="st17" d="M129.4,165c0,3.1-2.5,5.6-5.6,5.6s-5.6-2.5-5.6-5.6s2.5-5.6,5.6-5.6S129.4,161.9,129.4,165z"/>
	<path class="st17" d="M187.9,164.2c0,3.1-2.5,5.6-5.6,5.6s-5.6-2.5-5.6-5.6s2.5-5.6,5.6-5.6S187.9,161.1,187.9,164.2z"/>
	<path class="st17" d="M182.4,142.3c0,3.1-2.5,5.6-5.6,5.6s-5.6-2.5-5.6-5.6s2.5-5.6,5.6-5.6S182.4,139.2,182.4,142.3L182.4,142.3z"
		/>
	<path class="st17" d="M204.9,139.1c0,3.1-2.5,5.6-5.6,5.6s-5.6-2.5-5.6-5.6s2.5-5.6,5.6-5.6S204.9,136,204.9,139.1z"/>
	<path class="st17" d="M204.5,154.3c0,3.1-2.5,5.6-5.6,5.6s-5.6-2.5-5.6-5.6s2.5-5.6,5.6-5.6S204.5,151.2,204.5,154.3z"/>
	<path class="st17" d="M223.1,158.7c0,3.1-2.5,5.6-5.6,5.6s-5.6-2.5-5.6-5.6l0,0c0-3.1,2.5-5.6,5.6-5.6S223.1,155.7,223.1,158.7z"/>
	<path class="st17" d="M229.2,135.5c0,3.1-2.5,5.6-5.6,5.6s-5.6-2.5-5.6-5.6c0-3.1,2.5-5.6,5.6-5.6S229.2,132.5,229.2,135.5z"/>
	<path class="st17" d="M214.9,121.2c0,3.1-2.5,5.6-5.6,5.6s-5.6-2.5-5.6-5.6c0-3.1,2.5-5.6,5.6-5.6S214.9,118.2,214.9,121.2z"/>
	<path class="st17" d="M188.3,124.5c0,3.1-2.5,5.6-5.6,5.6s-5.6-2.5-5.6-5.6c0-3.1,2.5-5.6,5.6-5.6S188.3,121.4,188.3,124.5
		L188.3,124.5z"/>
	<path class="st17" d="M370.3,152.4c0,16.5-13.4,29.9-29.9,29.9c-16.5,0-29.9-13.4-29.9-29.9c0-16.5,13.4-29.9,29.9-29.9
		S370.3,135.9,370.3,152.4C370.3,152.4,370.3,152.4,370.3,152.4z"/>
</g>
<g transform="translate(-0.5,-0.5)">
	<path class="st18" d="M215.4,106.2c0,3.1-2.5,5.6-5.6,5.6s-5.6-2.5-5.6-5.6c0-3.1,2.5-5.6,5.6-5.6S215.4,103.2,215.4,106.2z"/>
	<path class="st18" d="M194.5,108.2c0,3.1-2.5,5.6-5.6,5.6s-5.6-2.5-5.6-5.6c0-3.1,2.5-5.6,5.6-5.6S194.5,105.1,194.5,108.2z"/>
	<path class="st18" d="M189,92.3c0,3.1-2.5,5.6-5.6,5.6s-5.6-2.5-5.6-5.6c0-3.1,2.5-5.6,5.6-5.6S189,89.2,189,92.3z"/>
	<path class="st18" d="M205.8,92c0,3.1-2.5,5.6-5.6,5.6s-5.6-2.5-5.6-5.6s2.5-5.6,5.6-5.6S205.8,88.9,205.8,92z"/>
	<path class="st18" d="M199.9,75.9c0,3.1-2.5,5.6-5.6,5.6s-5.6-2.5-5.6-5.6c0-3.1,2.5-5.6,5.6-5.6S199.9,72.8,199.9,75.9z"/>
	<path class="st18" d="M224.4,83.7c0,3.1-2.5,5.6-5.6,5.6s-5.6-2.5-5.6-5.6c0-3.1,2.5-5.6,5.6-5.6S224.4,80.7,224.4,83.7z"/>
	<path class="st18" d="M353.1,93.2c-0.1,10.5-8.6,18.9-19.1,18.8c-10.4-0.1-18.7-8.5-18.8-18.8c-0.1-10.5,8.3-19,18.8-19.1
		s19,8.3,19.1,18.8C353.1,93,353.1,93.1,353.1,93.2z"/>
</g>
<g transform="translate(-0.5,-0.5)">
	<path class="st19" d="M254.7,115.5c0,3.1-2.5,5.6-5.6,5.6s-5.6-2.5-5.6-5.6c0-3.1,2.5-5.6,5.6-5.6S254.7,112.5,254.7,115.5
		L254.7,115.5z"/>
	<path class="st19" d="M243.8,87.1c0,3.1-2.5,5.6-5.6,5.6s-5.6-2.5-5.6-5.6s2.5-5.6,5.6-5.6S243.8,84.1,243.8,87.1z"/>
	<path class="st19" d="M272.4,90.9c0,3.1-2.5,5.6-5.6,5.6c-3.1,0-5.6-2.5-5.6-5.6s2.5-5.6,5.6-5.6C269.9,85.3,272.4,87.8,272.4,90.9
		z"/>
	<path class="st19" d="M256,102.3c0,3.1-2.5,5.6-5.6,5.6s-5.6-2.5-5.6-5.6c0-3.1,2.5-5.6,5.6-5.6S256,99.2,256,102.3z"/>
	<path class="st19" d="M231.7,108.9c0,3.1-2.5,5.6-5.6,5.6s-5.6-2.5-5.6-5.6c0-3.1,2.5-5.6,5.6-5.6S231.7,105.9,231.7,108.9z"/>
	<path class="st19" d="M282,113.6c0,3.1-2.5,5.6-5.6,5.6s-5.6-2.5-5.6-5.6c0-3.1,2.5-5.6,5.6-5.6S282,110.5,282,113.6z"/>
	<path class="st19" d="M254.7,131.4c0,3.1-2.5,5.6-5.6,5.6s-5.6-2.5-5.6-5.6c0-3.1,2.5-5.6,5.6-5.6S254.7,128.4,254.7,131.4z"/>
	<path class="st19" d="M421,100.9c0,11.9-9.7,21.6-21.6,21.6s-21.6-9.7-21.6-21.6s9.7-21.6,21.6-21.6S421,88.9,421,100.9z"/>
</g>
<g transform="translate(-0.5,-0.5)">
	<path class="st20" d="M262.9,148.9c0,3.1-2.5,5.6-5.6,5.6c-3.1,0-5.6-2.5-5.6-5.6s2.5-5.6,5.6-5.6
		C260.4,143.4,262.9,145.9,262.9,148.9z"/>
	<path class="st20" d="M246.2,162c0,3.1-2.5,5.6-5.6,5.6S235,165,235,162s2.5-5.6,5.6-5.6S246.2,158.9,246.2,162z"/>
	<path class="st20" d="M256.3,176.4c0,3.1-2.5,5.6-5.6,5.6s-5.6-2.5-5.6-5.6s2.5-5.6,5.6-5.6S256.3,173.4,256.3,176.4z"/>
	<path class="st20" d="M273.3,165c0,3.1-2.5,5.6-5.6,5.6s-5.6-2.5-5.6-5.6s2.5-5.6,5.6-5.6S273.3,161.9,273.3,165z"/>
	<path class="st20" d="M414.6,155.3c-0.1,7.5-6.2,13.5-13.7,13.5c-7.4-0.1-13.4-6.1-13.5-13.5c-0.1-7.5,6-13.6,13.5-13.7
		s13.6,6,13.7,13.5C414.6,155.2,414.6,155.3,414.6,155.3z"/>
</g>
<path class="st21" d="M139.9,119.8h11v-7l17,14l-17,14v-7h-11V119.8z"/>
<path class="st21" d="M282.9,119.8h11v-7l17,14l-17,14v-7h-11V119.8z"/>
</svg>
